<svg width="244" height="42" viewBox="0 0 244 42" fill="none" xmlns="http://www.w3.org/2000/svg">
<path d="M21.5 0L14.5 13.5L0 15L10.5 26.5L6.5 41.5L21.5 34.5L35 41L32 26.5L43.5 15L28 13.5L21.5 0Z" fill="#F8C718"/>
<path d="M221.5 0L214.5 13.5L200 15L210.5 26.5L206.5 41.5L221.5 34.5L235 41L232 26.5L243.5 15L228 13.5L221.5 0Z" fill="#C6B8B8"/>
<path d="M171.5 0L164.5 13.5L150 15L160.5 26.5L156.5 41.5L171.5 34.5L185 41L182 26.5L193.5 15L178 13.5L171.5 0Z" fill="#C6B8B8"/>
<path d="M121.5 0L114.5 13.5L100 15L110.5 26.5L106.5 41.5L121.5 34.5L135 41L132 26.5L143.5 15L128 13.5L121.5 0Z" fill="#C6B8B8"/>
<path d="M71.5 0L64.5 13.5L50 15L60.5 26.5L56.5 41.5L71.5 34.5L85 41L82 26.5L93.5 15L78 13.5L71.5 0Z" fill="#C6B8B8"/>
</svg>
