<svg width="1417" height="296" viewBox="0 0 1417 296" fill="none" xmlns="http://www.w3.org/2000/svg">
<g filter="url(#filter0_f_38_2)">
<ellipse cx="708.5" cy="198.5" rx="683.5" ry="72.5" fill="url(#paint0_radial_38_2)"/>
<path d="M1391.5 198.5C1391.5 200.831 1390.39 203.187 1388.11 205.567C1385.83 207.949 1382.41 210.321 1377.88 212.667C1368.83 217.36 1355.45 221.902 1338.17 226.235C1303.61 234.901 1253.59 242.709 1191.75 249.268C1068.09 262.386 897.231 270.5 708.5 270.5C519.769 270.5 348.912 262.386 225.245 249.268C163.409 242.709 113.388 234.901 78.8344 226.235C61.5538 221.902 48.1698 217.36 39.1164 212.667C34.5889 210.321 31.1705 207.949 28.89 205.567C26.6113 203.187 25.5 200.831 25.5 198.5C25.5 196.169 26.6113 193.813 28.89 191.433C31.1705 189.051 34.5889 186.679 39.1164 184.333C48.1698 179.64 61.5538 175.098 78.8344 170.765C113.388 162.099 163.409 154.291 225.245 147.732C348.912 134.614 519.769 126.5 708.5 126.5C897.231 126.5 1068.09 134.614 1191.75 147.732C1253.59 154.291 1303.61 162.099 1338.17 170.765C1355.45 175.098 1368.83 179.64 1377.88 184.333C1382.41 186.679 1385.83 189.051 1388.11 191.433C1390.39 193.813 1391.5 196.169 1391.5 198.5Z" stroke="black"/>
</g>
<g filter="url(#filter1_i_38_2)">
<path d="M397.375 94C397.562 93.2188 397.703 92.2656 397.797 91.1406C397.891 89.9844 397.938 88.7969 397.938 87.5781C397.938 86.4531 397.891 85.4062 397.797 84.4375C397.734 83.4375 397.625 82.5625 397.469 81.8125C399.062 81.75 400.422 81.4688 401.547 80.9688C402.672 80.4375 403.594 79.8594 404.312 79.2344C405.062 78.0781 405.828 76.7812 406.609 75.3438C407.391 73.9062 408.094 72.4375 408.719 70.9375C409.375 69.4062 409.906 67.8906 410.312 66.3906C410.719 64.8594 410.922 63.4375 410.922 62.125C410.922 61.5938 410.844 61.0625 410.688 60.5312C410.531 60 410.266 59.6719 409.891 59.5469C410.828 59.2969 411.766 58.6094 412.703 57.4844C413.641 56.3594 414.547 54.9688 415.422 53.3125C416.297 51.6562 417.109 49.8125 417.859 47.7812C418.609 45.75 419.266 43.7031 419.828 41.6406C420.391 39.5469 420.828 37.5156 421.141 35.5469C421.453 33.5781 421.609 31.8281 421.609 30.2969C421.609 29.7656 421.578 29.25 421.516 28.75C421.453 28.25 421.422 27.8281 421.422 27.4844C421.422 27.3281 421.422 27.1875 421.422 27.0625C421.453 26.9375 421.469 26.75 421.469 26.5C422.188 26.7812 423.078 27.0312 424.141 27.25C425.234 27.4375 426.453 27.6094 427.797 27.7656C429.141 27.8906 430.578 27.9844 432.109 28.0469C433.641 28.1094 435.234 28.1406 436.891 28.1406C438.328 28.1406 439.797 28.1094 441.297 28.0469C442.797 27.9844 444.25 27.8906 445.656 27.7656C447.062 27.6094 448.375 27.4375 449.594 27.25C450.812 27.0312 451.828 26.7812 452.641 26.5V26.6875V27.1094C452.641 27.4531 452.594 27.8906 452.5 28.4219C452.438 28.9219 452.406 29.4844 452.406 30.1094C452.406 31.5469 452.531 33.2344 452.781 35.1719C453.062 37.1094 453.438 39.125 453.906 41.2188C454.375 43.2812 454.938 45.3438 455.594 47.4062C456.281 49.4375 457.031 51.3125 457.844 53.0312C458.656 54.7188 459.531 56.1562 460.469 57.3438C461.406 58.5 462.391 59.2344 463.422 59.5469C462.984 59.7031 462.672 60.0156 462.484 60.4844C462.328 60.9219 462.25 61.4688 462.25 62.125C462.25 63.4375 462.438 64.8594 462.812 66.3906C463.219 67.8906 463.734 69.4062 464.359 70.9375C465.016 72.4375 465.719 73.8906 466.469 75.2969C467.25 76.7031 468.016 77.9688 468.766 79.0938C469.234 79.375 469.797 79.6719 470.453 79.9844C471.109 80.2969 471.797 80.5938 472.516 80.875C473.234 81.1562 473.953 81.3906 474.672 81.5781C475.391 81.7344 476.062 81.8125 476.688 81.8125C476.531 82.5625 476.406 83.4375 476.312 84.4375C476.25 85.4062 476.219 86.4531 476.219 87.5781C476.219 88.7969 476.266 89.9844 476.359 91.1406C476.453 92.2656 476.594 93.2188 476.781 94C475.656 93.875 474.359 93.75 472.891 93.625C471.422 93.4688 469.844 93.3438 468.156 93.25C466.469 93.125 464.719 93.0312 462.906 92.9688C461.094 92.875 459.281 92.8281 457.469 92.8281C454.156 92.8281 451 92.9375 448 93.1562C445.031 93.3438 442.516 93.625 440.453 94C440.547 93.4688 440.625 92.6406 440.688 91.5156C440.781 90.3594 440.828 89.0781 440.828 87.6719C440.828 87.0781 440.812 86.4844 440.781 85.8906C440.75 85.2656 440.719 84.6875 440.688 84.1562C440.656 83.625 440.609 83.1562 440.547 82.75C440.516 82.3125 440.484 82 440.453 81.8125C441.016 81.8125 441.609 81.7969 442.234 81.7656C442.859 81.7031 443.469 81.6094 444.062 81.4844C444.688 81.3594 445.281 81.1875 445.844 80.9688C446.406 80.75 446.906 80.4531 447.344 80.0781C447.281 78.8281 447.078 77.7656 446.734 76.8906C446.391 75.9844 445.734 75.2344 444.766 74.6406C443.828 74.0469 442.5 73.6094 440.781 73.3281C439.094 73.0469 436.875 72.9062 434.125 72.9062C431.656 72.9062 429.594 73 427.938 73.1875C426.312 73.375 424.984 73.7344 423.953 74.2656C422.953 74.7656 422.203 75.4844 421.703 76.4219C421.234 77.3281 420.938 78.5312 420.812 80.0312C421.281 80.4062 421.844 80.7031 422.5 80.9219C423.156 81.1406 423.828 81.3281 424.516 81.4844C425.234 81.6094 425.938 81.7031 426.625 81.7656C427.344 81.7969 427.984 81.8125 428.547 81.8125C428.484 82 428.422 82.2969 428.359 82.7031C428.328 83.1094 428.297 83.5938 428.266 84.1562C428.234 84.6875 428.203 85.2656 428.172 85.8906C428.172 86.5156 428.172 87.1094 428.172 87.6719C428.172 89.0781 428.203 90.3594 428.266 91.5156C428.359 92.6406 428.453 93.4688 428.547 94C426.172 93.5625 423.766 93.2656 421.328 93.1094C418.891 92.9219 416.406 92.8281 413.875 92.8281C410.938 92.8281 408.078 92.9219 405.297 93.1094C402.547 93.2656 399.906 93.5625 397.375 94ZM427.375 59.1719C427.375 60.0781 427.469 60.8281 427.656 61.4219C427.875 62.0156 428.234 62.4844 428.734 62.8281C429.266 63.1719 429.969 63.4219 430.844 63.5781C431.75 63.7031 432.891 63.7656 434.266 63.7656C435.641 63.7656 436.766 63.7031 437.641 63.5781C438.547 63.4219 439.25 63.1719 439.75 62.8281C440.281 62.4844 440.641 62.0156 440.828 61.4219C441.047 60.8281 441.156 60.0781 441.156 59.1719C441.156 58.0781 440.875 56.7344 440.312 55.1406C439.75 53.5469 439.094 51.875 438.344 50.125C437.594 48.375 436.828 46.625 436.047 44.875C435.266 43.125 434.672 41.5469 434.266 40.1406C433.797 41.5469 433.172 43.125 432.391 44.875C431.609 46.625 430.844 48.375 430.094 50.125C429.375 51.875 428.734 53.5469 428.172 55.1406C427.641 56.7344 427.375 58.0781 427.375 59.1719ZM482.406 83.9219C482.781 83.1094 483.203 81.4531 483.672 78.9531C484.172 76.4531 484.422 72.9844 484.422 68.5469C484.422 64.1406 484.172 60.6875 483.672 58.1875C483.203 55.6875 482.781 54.0312 482.406 53.2188C484.125 53.0938 485.828 52.7188 487.516 52.0938C489.203 51.4688 490.766 50.7031 492.203 49.7969C493.672 48.8594 494.953 47.8438 496.047 46.75C497.141 45.625 497.953 44.5 498.484 43.375C499.172 43.9062 500.281 44.3125 501.812 44.5938C503.344 44.875 505 45.0156 506.781 45.0156C507.812 45.0156 508.828 44.9688 509.828 44.875C510.828 44.7812 511.75 44.6562 512.594 44.5C513.438 44.3438 514.188 44.1719 514.844 43.9844C515.5 43.7969 516 43.5938 516.344 43.375C517.031 44.7812 517.906 46 518.969 47.0312C520.062 48.0312 521.359 48.8125 522.859 49.375V37.2812C522.828 35.9375 522.562 34.875 522.062 34.0938C521.562 33.2812 520.906 32.6719 520.094 32.2656C519.312 31.8281 518.406 31.5469 517.375 31.4219C516.344 31.2656 515.281 31.1875 514.188 31.1875H512.688C512.938 30.5625 513.156 29.7031 513.344 28.6094C513.531 27.4844 513.625 26.3125 513.625 25.0938C513.625 23.9063 513.531 22.7656 513.344 21.6719C513.188 20.5469 512.969 19.6562 512.688 19C513.281 19.0938 514.016 19.1719 514.891 19.2344C515.797 19.2969 516.797 19.3594 517.891 19.4219C518.984 19.4531 520.156 19.4844 521.406 19.5156C522.688 19.5469 523.984 19.5625 525.297 19.5625C527.078 19.5625 528.875 19.5312 530.688 19.4688C532.5 19.4063 534.219 19.3125 535.844 19.1875C537.5 19.0625 539 18.8906 540.344 18.6719C541.719 18.4531 542.844 18.1719 543.719 17.8281C543.062 19.0469 542.516 20.4062 542.078 21.9062C541.641 23.4062 541.281 25 541 26.6875C540.75 28.375 540.562 30.1406 540.438 31.9844C540.312 33.8281 540.25 35.7031 540.25 37.6094V46.9844C540.25 48.9219 540.297 50.6406 540.391 52.1406C540.484 53.6094 540.656 54.8594 540.906 55.8906C541.156 56.9219 541.5 57.75 541.938 58.375C542.375 59 542.938 59.4219 543.625 59.6406H543.578C543.016 59.7969 542.516 60.1719 542.078 60.7656C541.641 61.3594 541.281 62.0781 541 62.9219C540.719 63.7656 540.5 64.7188 540.344 65.7812C540.219 66.8125 540.156 67.8594 540.156 68.9219V74.6406C540.156 77.2031 540.688 79.0469 541.75 80.1719C542.812 81.2656 544.219 81.8125 545.969 81.8125C545.812 82.5 545.688 83.375 545.594 84.4375C545.531 85.5 545.5 86.6094 545.5 87.7656C545.5 88.9219 545.531 90.0938 545.594 91.2812C545.656 92.4375 545.781 93.3438 545.969 94C545.531 93.8438 544.953 93.7031 544.234 93.5781C543.516 93.4219 542.734 93.2969 541.891 93.2031C541.078 93.0781 540.234 92.9844 539.359 92.9219C538.516 92.8594 537.719 92.8281 536.969 92.8281C535.188 92.8281 533.625 92.9531 532.281 93.2031C530.969 93.4531 529.812 93.7188 528.812 94C528.719 92.75 528.328 91.4375 527.641 90.0625C526.984 88.6875 526.141 87.4531 525.109 86.3594C524.359 86.8594 523.641 87.4531 522.953 88.1406C522.297 88.8281 521.703 89.5469 521.172 90.2969C520.672 91.0156 520.234 91.75 519.859 92.5C519.516 93.2188 519.281 93.875 519.156 94.4688C518.219 94.0312 516.828 93.6562 514.984 93.3438C513.172 93 511.094 92.8281 508.75 92.8281C506.469 92.8281 504.406 93 502.562 93.3438C500.719 93.6562 499.359 94.0312 498.484 94.4688C497.953 93.375 497.141 92.2344 496.047 91.0469C494.953 89.8594 493.688 88.7656 492.25 87.7656C490.812 86.7344 489.234 85.875 487.516 85.1875C485.828 84.4688 484.125 84.0469 482.406 83.9219ZM503.922 68.5938C503.922 71 504.078 73.0625 504.391 74.7812C504.734 76.5 505.281 77.9219 506.031 79.0469C506.781 80.1406 507.75 80.9531 508.938 81.4844C510.125 82.0156 511.578 82.2812 513.297 82.2812C515.109 82.2812 516.594 81.9375 517.75 81.25C518.906 80.5625 519.812 79.6094 520.469 78.3906C521.125 77.1719 521.578 75.7344 521.828 74.0781C522.078 72.3906 522.203 70.5625 522.203 68.5938C522.203 66.625 522.078 64.8281 521.828 63.2031C521.578 61.5469 521.125 60.125 520.469 58.9375C519.812 57.7188 518.906 56.7812 517.75 56.125C516.594 55.4375 515.109 55.0938 513.297 55.0938C511.578 55.0938 510.125 55.3438 508.938 55.8438C507.75 56.3438 506.781 57.1406 506.031 58.2344C505.281 59.3281 504.734 60.7344 504.391 62.4531C504.078 64.1406 503.922 66.1875 503.922 68.5938ZM554.406 83.9219C554.781 83.1094 555.203 81.4531 555.672 78.9531C556.172 76.4531 556.422 72.9844 556.422 68.5469C556.422 64.1406 556.172 60.6875 555.672 58.1875C555.203 55.6875 554.781 54.0312 554.406 53.2188C556.125 53.0938 557.828 52.7188 559.516 52.0938C561.203 51.4688 562.766 50.7031 564.203 49.7969C565.672 48.8594 566.953 47.8438 568.047 46.75C569.141 45.625 569.953 44.5 570.484 43.375C571.172 43.9062 572.281 44.3125 573.812 44.5938C575.344 44.875 577 45.0156 578.781 45.0156C579.812 45.0156 580.828 44.9688 581.828 44.875C582.828 44.7812 583.75 44.6562 584.594 44.5C585.438 44.3438 586.188 44.1719 586.844 43.9844C587.5 43.7969 588 43.5938 588.344 43.375C589.031 44.7812 589.906 46 590.969 47.0312C592.062 48.0312 593.359 48.8125 594.859 49.375V37.2812C594.828 35.9375 594.562 34.875 594.062 34.0938C593.562 33.2812 592.906 32.6719 592.094 32.2656C591.312 31.8281 590.406 31.5469 589.375 31.4219C588.344 31.2656 587.281 31.1875 586.188 31.1875H584.688C584.938 30.5625 585.156 29.7031 585.344 28.6094C585.531 27.4844 585.625 26.3125 585.625 25.0938C585.625 23.9063 585.531 22.7656 585.344 21.6719C585.188 20.5469 584.969 19.6562 584.688 19C585.281 19.0938 586.016 19.1719 586.891 19.2344C587.797 19.2969 588.797 19.3594 589.891 19.4219C590.984 19.4531 592.156 19.4844 593.406 19.5156C594.688 19.5469 595.984 19.5625 597.297 19.5625C599.078 19.5625 600.875 19.5312 602.688 19.4688C604.5 19.4063 606.219 19.3125 607.844 19.1875C609.5 19.0625 611 18.8906 612.344 18.6719C613.719 18.4531 614.844 18.1719 615.719 17.8281C615.062 19.0469 614.516 20.4062 614.078 21.9062C613.641 23.4062 613.281 25 613 26.6875C612.75 28.375 612.562 30.1406 612.438 31.9844C612.312 33.8281 612.25 35.7031 612.25 37.6094V46.9844C612.25 48.9219 612.297 50.6406 612.391 52.1406C612.484 53.6094 612.656 54.8594 612.906 55.8906C613.156 56.9219 613.5 57.75 613.938 58.375C614.375 59 614.938 59.4219 615.625 59.6406H615.578C615.016 59.7969 614.516 60.1719 614.078 60.7656C613.641 61.3594 613.281 62.0781 613 62.9219C612.719 63.7656 612.5 64.7188 612.344 65.7812C612.219 66.8125 612.156 67.8594 612.156 68.9219V74.6406C612.156 77.2031 612.688 79.0469 613.75 80.1719C614.812 81.2656 616.219 81.8125 617.969 81.8125C617.812 82.5 617.688 83.375 617.594 84.4375C617.531 85.5 617.5 86.6094 617.5 87.7656C617.5 88.9219 617.531 90.0938 617.594 91.2812C617.656 92.4375 617.781 93.3438 617.969 94C617.531 93.8438 616.953 93.7031 616.234 93.5781C615.516 93.4219 614.734 93.2969 613.891 93.2031C613.078 93.0781 612.234 92.9844 611.359 92.9219C610.516 92.8594 609.719 92.8281 608.969 92.8281C607.188 92.8281 605.625 92.9531 604.281 93.2031C602.969 93.4531 601.812 93.7188 600.812 94C600.719 92.75 600.328 91.4375 599.641 90.0625C598.984 88.6875 598.141 87.4531 597.109 86.3594C596.359 86.8594 595.641 87.4531 594.953 88.1406C594.297 88.8281 593.703 89.5469 593.172 90.2969C592.672 91.0156 592.234 91.75 591.859 92.5C591.516 93.2188 591.281 93.875 591.156 94.4688C590.219 94.0312 588.828 93.6562 586.984 93.3438C585.172 93 583.094 92.8281 580.75 92.8281C578.469 92.8281 576.406 93 574.562 93.3438C572.719 93.6562 571.359 94.0312 570.484 94.4688C569.953 93.375 569.141 92.2344 568.047 91.0469C566.953 89.8594 565.688 88.7656 564.25 87.7656C562.812 86.7344 561.234 85.875 559.516 85.1875C557.828 84.4688 556.125 84.0469 554.406 83.9219ZM575.922 68.5938C575.922 71 576.078 73.0625 576.391 74.7812C576.734 76.5 577.281 77.9219 578.031 79.0469C578.781 80.1406 579.75 80.9531 580.938 81.4844C582.125 82.0156 583.578 82.2812 585.297 82.2812C587.109 82.2812 588.594 81.9375 589.75 81.25C590.906 80.5625 591.812 79.6094 592.469 78.3906C593.125 77.1719 593.578 75.7344 593.828 74.0781C594.078 72.3906 594.203 70.5625 594.203 68.5938C594.203 66.625 594.078 64.8281 593.828 63.2031C593.578 61.5469 593.125 60.125 592.469 58.9375C591.812 57.7188 590.906 56.7812 589.75 56.125C588.594 55.4375 587.109 55.0938 585.297 55.0938C583.578 55.0938 582.125 55.3438 580.938 55.8438C579.75 56.3438 578.781 57.1406 578.031 58.2344C577.281 59.3281 576.734 60.7344 576.391 62.4531C576.078 64.1406 575.922 66.1875 575.922 68.5938ZM667.047 83.4062C667.328 83.0625 667.547 82.5781 667.703 81.9531C667.859 81.2969 667.969 80.5312 668.031 79.6562C668.125 78.7812 668.172 77.8281 668.172 76.7969C668.203 75.7656 668.219 74.7031 668.219 73.6094C668.219 72.7656 668.188 71.8594 668.125 70.8906C668.094 69.9219 668.016 69 667.891 68.125C667.797 67.2188 667.672 66.4062 667.516 65.6875C667.391 64.9688 667.234 64.4375 667.047 64.0938C667.641 64.0938 668.422 63.9531 669.391 63.6719C670.359 63.3594 671.344 62.9219 672.344 62.3594C673.375 61.7656 674.328 61.0625 675.203 60.25C676.109 59.4062 676.781 58.4375 677.219 57.3438C676.719 56.6875 676.188 56.1094 675.625 55.6094C675.062 55.0781 674.516 54.6094 673.984 54.2031C673.453 53.7969 672.938 53.4531 672.438 53.1719C671.969 52.8594 671.547 52.5938 671.172 52.375C671.359 51.9375 671.531 51.375 671.688 50.6875C671.844 49.9688 671.969 49.1719 672.062 48.2969C672.188 47.3906 672.281 46.4531 672.344 45.4844C672.406 44.4844 672.438 43.4844 672.438 42.4844C672.438 40.7031 672.344 39.0625 672.156 37.5625C672 36.0312 671.75 34.9219 671.406 34.2344C671.562 34.2656 671.656 34.2812 671.688 34.2812C671.719 34.2812 671.812 34.2812 671.969 34.2812C672.812 34.2812 673.875 34.0469 675.156 33.5781C676.469 33.0781 677.75 32.4531 679 31.7031C680.281 30.9531 681.422 30.125 682.422 29.2188C683.453 28.2812 684.109 27.375 684.391 26.5C684.766 26.75 685.312 26.9844 686.031 27.2031C686.781 27.3906 687.641 27.5625 688.609 27.7188C689.578 27.8438 690.625 27.9531 691.75 28.0469C692.906 28.1094 694.078 28.1406 695.266 28.1406C696.297 28.1406 697.281 28.1094 698.219 28.0469C699.188 27.9531 700.062 27.8438 700.844 27.7188C701.656 27.5625 702.359 27.3906 702.953 27.2031C703.547 26.9844 703.984 26.75 704.266 26.5C704.578 27.375 705.312 28.2812 706.469 29.2188C707.656 30.1562 708.969 31.0156 710.406 31.7969C711.875 32.5781 713.344 33.2188 714.812 33.7188C716.312 34.2188 717.547 34.4688 718.516 34.4688C718.609 34.4688 718.703 34.4688 718.797 34.4688C718.922 34.4688 719.031 34.4531 719.125 34.4219C718.781 35.1094 718.516 36.2188 718.328 37.75C718.172 39.25 718.094 40.8906 718.094 42.6719C718.094 43.6719 718.125 44.6719 718.188 45.6719C718.25 46.6406 718.328 47.5781 718.422 48.4844C718.547 49.3594 718.688 50.1562 718.844 50.875C719 51.5625 719.172 52.125 719.359 52.5625C718.641 52.8438 717.797 53.2656 716.828 53.8281C715.859 54.3906 714.859 55.0625 713.828 55.8438C712.828 56.5938 711.844 57.4531 710.875 58.4219C709.906 59.3906 709.062 60.4219 708.344 61.5156C709.25 62.4531 710.203 63.3906 711.203 64.3281C712.234 65.2656 713.25 66.1406 714.25 66.9531C715.531 65.9844 716.703 64.875 717.766 63.625C718.828 62.3438 719.734 61 720.484 59.5938C721.266 58.1875 721.859 56.7344 722.266 55.2344C722.703 53.7344 722.922 52.2812 722.922 50.875C722.922 49.8125 722.812 48.8594 722.594 48.0156C722.719 48.1719 723.047 48.3281 723.578 48.4844C724.109 48.6406 724.797 48.7969 725.641 48.9531C726.484 49.0781 727.438 49.1875 728.5 49.2812C729.562 49.375 730.672 49.4219 731.828 49.4219C732.672 49.4219 733.578 49.4062 734.547 49.375C735.547 49.3438 736.531 49.2812 737.5 49.1875C738.469 49.0938 739.391 48.9844 740.266 48.8594C741.141 48.7344 741.891 48.5781 742.516 48.3906C742.328 48.7344 742.156 49.2031 742 49.7969C741.875 50.3906 741.75 51.0312 741.625 51.7188C741.531 52.375 741.453 53.0625 741.391 53.7812C741.359 54.5 741.344 55.1562 741.344 55.75C741.344 56.75 741.359 57.625 741.391 58.375C741.453 59.125 741.531 59.8125 741.625 60.4375C741.719 61.0625 741.812 61.6406 741.906 62.1719C742 62.7031 742.094 63.2344 742.188 63.7656C741.281 63.5469 740.266 63.375 739.141 63.25C738.047 63.0938 737.125 63.0156 736.375 63.0156C735 63.0156 733.641 63.3125 732.297 63.9062C730.953 64.4688 729.656 65.2188 728.406 66.1562C727.156 67.0938 725.984 68.1562 724.891 69.3438C723.828 70.5312 722.859 71.7344 721.984 72.9531C722.641 73.8594 723.406 74.75 724.281 75.625C725.156 76.5 726.125 77.2969 727.188 78.0156C728.281 78.7344 729.453 79.3125 730.703 79.75C731.984 80.1875 733.359 80.4062 734.828 80.4062C735.672 80.4062 736.406 80.3906 737.031 80.3594C737.688 80.3281 738.281 80.2812 738.812 80.2188C739.375 80.1562 739.891 80.0625 740.359 79.9375C740.828 79.8125 741.312 79.6562 741.812 79.4688C741.594 80.6562 741.422 81.875 741.297 83.125C741.172 84.375 741.109 85.7031 741.109 87.1094C741.109 88.5156 741.188 89.8281 741.344 91.0469C741.5 92.2656 741.656 93.25 741.812 94C741.188 93.7812 740.312 93.5938 739.188 93.4375C738.094 93.2812 736.906 93.1562 735.625 93.0625C734.375 92.9688 733.125 92.9062 731.875 92.875C730.656 92.8438 729.625 92.8281 728.781 92.8281C727.375 92.8281 726 92.8594 724.656 92.9219C723.344 92.9531 722.156 93.0156 721.094 93.1094C720.031 93.2031 719.125 93.3281 718.375 93.4844C717.656 93.6406 717.188 93.8125 716.969 94C716.938 93.1875 716.75 92.4062 716.406 91.6562C716.094 90.9062 715.672 90.1875 715.141 89.5C714.641 88.8125 714.062 88.1719 713.406 87.5781C712.781 86.9531 712.125 86.375 711.438 85.8438C710.25 86.9062 709.062 88.1719 707.875 89.6406C706.688 91.1094 705.719 92.5625 704.969 94C703.875 93.4688 702.469 93.1406 700.75 93.0156C699.031 92.8906 697 92.8281 694.656 92.8281C692 92.8281 689.625 92.9062 687.531 93.0625C685.438 93.2188 683.688 93.5312 682.281 94C681.469 92.8125 680.375 91.5938 679 90.3438C677.656 89.0938 676.234 87.9531 674.734 86.9219C673.266 85.8906 671.828 85.0469 670.422 84.3906C669.016 83.7344 667.891 83.4062 667.047 83.4062ZM698.453 54.1094C698.953 53.7656 699.469 53.2188 700 52.4688C700.531 51.6875 701.016 50.8438 701.453 49.9375C701.922 49 702.297 48.0625 702.578 47.125C702.859 46.1875 703 45.3594 703 44.6406C703 41.9531 702.344 39.9531 701.031 38.6406C699.75 37.3281 698.094 36.6719 696.062 36.6719C694.188 36.6719 692.703 37.25 691.609 38.4062C690.547 39.5312 690.016 41.0781 690.016 43.0469C690.016 44.2031 690.297 45.3594 690.859 46.5156C691.453 47.6406 692.172 48.7031 693.016 49.7031C693.859 50.6719 694.766 51.5469 695.734 52.3281C696.734 53.1094 697.641 53.7031 698.453 54.1094ZM685.094 74.6406C685.094 76.1406 685.297 77.4375 685.703 78.5312C686.109 79.625 686.672 80.5469 687.391 81.2969C688.141 82.0156 689 82.5469 689.969 82.8906C690.969 83.2344 692.031 83.4062 693.156 83.4062C694.344 83.4062 695.406 83.2188 696.344 82.8438C697.312 82.4688 698.156 82 698.875 81.4375C699.594 80.875 700.219 80.2812 700.75 79.6562C701.281 79 701.734 78.3906 702.109 77.8281C702.016 77.5781 701.656 77.1406 701.031 76.5156C700.438 75.8906 699.688 75.1875 698.781 74.4062C697.875 73.5938 696.875 72.75 695.781 71.875C694.719 70.9688 693.688 70.1406 692.688 69.3906C691.688 68.6406 690.781 68.0156 689.969 67.5156C689.156 66.9844 688.547 66.6719 688.141 66.5781C687.141 67.6094 686.375 68.8438 685.844 70.2812C685.344 71.6875 685.094 73.1406 685.094 74.6406ZM791.875 94C792.062 93.2188 792.219 92.2812 792.344 91.1875C792.5 90.0625 792.578 88.9062 792.578 87.7188C792.578 86.625 792.5 85.5625 792.344 84.5312C792.188 83.4688 792.031 82.5625 791.875 81.8125C793.281 81.8125 794.516 81.7031 795.578 81.4844C796.641 81.2656 797.531 80.9062 798.25 80.4062C798.969 79.875 799.5 79.1719 799.844 78.2969C800.219 77.3906 800.406 76.2656 800.406 74.9219C800.406 72.2969 800.328 70.0469 800.172 68.1719C800.047 66.2969 799.844 64.75 799.562 63.5312C799.312 62.3125 798.984 61.3906 798.578 60.7656C798.172 60.1094 797.703 59.7031 797.172 59.5469C797.734 59.3594 798.219 59.0625 798.625 58.6562C799.031 58.25 799.359 57.5625 799.609 56.5938C799.891 55.5938 800.094 54.2344 800.219 52.5156C800.344 50.7656 800.406 48.4531 800.406 45.5781C800.406 44.2344 800.219 43.125 799.844 42.25C799.5 41.3438 798.969 40.6406 798.25 40.1406C797.531 39.6094 796.641 39.2344 795.578 39.0156C794.516 38.7969 793.281 38.6875 791.875 38.6875C792.031 37.9375 792.188 37.0469 792.344 36.0156C792.5 34.9531 792.578 33.875 792.578 32.7812C792.578 31.5938 792.5 30.4531 792.344 29.3594C792.219 28.2344 792.062 27.2813 791.875 26.5C792.5 26.6562 793.578 26.8125 795.109 26.9688C796.641 27.0938 798.422 27.2187 800.453 27.3438C802.484 27.4688 804.656 27.5781 806.969 27.6719C809.281 27.7656 811.531 27.8594 813.719 27.9531C815.938 28.0156 817.969 28.0625 819.812 28.0938C821.688 28.125 823.188 28.1406 824.312 28.1406C825.438 28.1406 826.875 28.125 828.625 28.0938C830.375 28.0625 832.25 28.0156 834.25 27.9531C836.281 27.8594 838.344 27.7656 840.438 27.6719C842.562 27.5781 844.547 27.4688 846.391 27.3438C848.266 27.2187 849.906 27.0938 851.312 26.9688C852.75 26.8125 853.781 26.6562 854.406 26.5C854.156 27.8125 853.891 29.4844 853.609 31.5156C853.359 33.5156 853.234 35.6406 853.234 37.8906C853.234 39.2031 853.281 40.5 853.375 41.7812C853.469 43.0312 853.562 44.1875 853.656 45.25C853.781 46.2812 853.906 47.1875 854.031 47.9688C854.188 48.75 854.312 49.3281 854.406 49.7031C853.938 49.5156 853.344 49.3594 852.625 49.2344C851.938 49.0781 851.188 48.9531 850.375 48.8594C849.562 48.7344 848.719 48.6562 847.844 48.625C846.969 48.5625 846.125 48.5312 845.312 48.5312C843.875 48.5312 842.438 48.625 841 48.8125C839.562 48.9688 838.188 49.2656 836.875 49.7031C837.094 49.0469 837.266 48.25 837.391 47.3125C837.547 46.375 837.625 45.4219 837.625 44.4531C837.625 42.8594 837.344 41.5938 836.781 40.6562C836.25 39.6875 835.562 38.9531 834.719 38.4531C833.875 37.9531 832.953 37.6406 831.953 37.5156C830.953 37.3594 830 37.2812 829.094 37.2812C828.375 37.2812 827.609 37.3125 826.797 37.375C826.016 37.4062 825.203 37.5156 824.359 37.7031C823.547 37.8594 822.734 38.0938 821.922 38.4062C821.109 38.6875 820.359 39.0781 819.672 39.5781C819.547 40.2969 819.438 41.125 819.344 42.0625C819.25 43 819.203 44.1719 819.203 45.5781C819.203 47.6719 819.234 49.3125 819.297 50.5C819.391 51.6562 819.5 52.5469 819.625 53.1719C820.469 53.5469 821.453 53.8125 822.578 53.9688C823.703 54.125 824.859 54.2031 826.047 54.2031C827.828 54.2031 829.516 54.0625 831.109 53.7812C832.703 53.5 833.859 53.1719 834.578 52.7969C834.328 53.4844 834.141 54.4375 834.016 55.6562C833.922 56.875 833.875 58.1562 833.875 59.5C833.875 60.25 833.891 61 833.922 61.75C833.953 62.4688 834 63.1406 834.062 63.7656C834.156 64.3594 834.234 64.8906 834.297 65.3594C834.391 65.7969 834.484 66.125 834.578 66.3438C834.297 66.1875 833.844 66.0312 833.219 65.875C832.594 65.6875 831.859 65.5156 831.016 65.3594C830.203 65.2031 829.297 65.0781 828.297 64.9844C827.328 64.8594 826.328 64.7969 825.297 64.7969C824.234 64.7969 823.219 64.8594 822.25 64.9844C821.281 65.1094 820.406 65.3438 819.625 65.6875C819.562 66.0625 819.5 66.5 819.438 67C819.406 67.4688 819.359 68.0781 819.297 68.8281C819.266 69.5469 819.234 70.4062 819.203 71.4062C819.203 72.4062 819.203 73.5781 819.203 74.9219C819.203 76.6094 819.266 77.9844 819.391 79.0469C819.516 80.0781 819.656 80.9688 819.812 81.7188C820.562 82.125 821.359 82.4688 822.203 82.75C823.047 83 823.891 83.2031 824.734 83.3594C825.609 83.4844 826.453 83.5781 827.266 83.6406C828.078 83.6719 828.844 83.6875 829.562 83.6875C830.469 83.6875 831.391 83.5781 832.328 83.3594C833.297 83.1094 834.172 82.6719 834.953 82.0469C835.734 81.3906 836.375 80.5 836.875 79.375C837.375 78.2188 837.625 76.75 837.625 74.9688C837.625 73.8438 837.547 72.7344 837.391 71.6406C837.266 70.5469 837.094 69.6406 836.875 68.9219C838.188 69.3594 839.562 69.6719 841 69.8594C842.438 70.0156 843.875 70.0938 845.312 70.0938C846.125 70.0938 846.969 70.0781 847.844 70.0469C848.719 69.9844 849.562 69.9062 850.375 69.8125C851.188 69.6875 851.938 69.5625 852.625 69.4375C853.344 69.2812 853.938 69.1094 854.406 68.9219C854.312 69.3281 854.188 69.9531 854.031 70.7969C853.906 71.6406 853.781 72.6406 853.656 73.7969C853.562 74.9219 853.469 76.1719 853.375 77.5469C853.281 78.8906 853.234 80.2656 853.234 81.6719C853.234 82.8906 853.266 84.0938 853.328 85.2812C853.422 86.4375 853.516 87.5469 853.609 88.6094C853.734 89.6719 853.859 90.6719 853.984 91.6094C854.141 92.5156 854.281 93.3125 854.406 94C853.781 93.875 852.75 93.7656 851.312 93.6719C849.906 93.5469 848.266 93.4531 846.391 93.3906C844.547 93.2969 842.562 93.2188 840.438 93.1562C838.344 93.0625 836.281 93 834.25 92.9688C832.25 92.9062 830.375 92.875 828.625 92.875C826.875 92.8438 825.438 92.8281 824.312 92.8281C823.188 92.8281 821.688 92.8438 819.812 92.875C817.969 92.875 815.938 92.9062 813.719 92.9688C811.531 93 809.281 93.0625 806.969 93.1562C804.656 93.2188 802.484 93.2969 800.453 93.3906C798.422 93.4531 796.641 93.5469 795.109 93.6719C793.578 93.7656 792.5 93.875 791.875 94ZM864.438 83.9219C864.812 83.1094 865.234 81.4531 865.703 78.9531C866.203 76.4531 866.453 72.9844 866.453 68.5469C866.453 64.1406 866.203 60.6875 865.703 58.1875C865.234 55.6875 864.812 54.0312 864.438 53.2188C866.156 53.0938 867.859 52.7188 869.547 52.0938C871.234 51.4688 872.797 50.7031 874.234 49.7969C875.703 48.8594 876.984 47.8438 878.078 46.75C879.172 45.625 879.984 44.5 880.516 43.375C881.203 43.9062 882.312 44.3125 883.844 44.5938C885.375 44.875 887.031 45.0156 888.812 45.0156C889.844 45.0156 890.859 44.9688 891.859 44.875C892.859 44.7812 893.781 44.6562 894.625 44.5C895.469 44.3438 896.219 44.1719 896.875 43.9844C897.531 43.7969 898.031 43.5938 898.375 43.375C899.062 44.7812 899.938 46 901 47.0312C902.094 48.0312 903.391 48.8125 904.891 49.375V37.2812C904.859 35.9375 904.594 34.875 904.094 34.0938C903.594 33.2812 902.938 32.6719 902.125 32.2656C901.344 31.8281 900.438 31.5469 899.406 31.4219C898.375 31.2656 897.312 31.1875 896.219 31.1875H894.719C894.969 30.5625 895.188 29.7031 895.375 28.6094C895.562 27.4844 895.656 26.3125 895.656 25.0938C895.656 23.9063 895.562 22.7656 895.375 21.6719C895.219 20.5469 895 19.6562 894.719 19C895.312 19.0938 896.047 19.1719 896.922 19.2344C897.828 19.2969 898.828 19.3594 899.922 19.4219C901.016 19.4531 902.188 19.4844 903.438 19.5156C904.719 19.5469 906.016 19.5625 907.328 19.5625C909.109 19.5625 910.906 19.5312 912.719 19.4688C914.531 19.4063 916.25 19.3125 917.875 19.1875C919.531 19.0625 921.031 18.8906 922.375 18.6719C923.75 18.4531 924.875 18.1719 925.75 17.8281C925.094 19.0469 924.547 20.4062 924.109 21.9062C923.672 23.4062 923.312 25 923.031 26.6875C922.781 28.375 922.594 30.1406 922.469 31.9844C922.344 33.8281 922.281 35.7031 922.281 37.6094V46.9844C922.281 48.9219 922.328 50.6406 922.422 52.1406C922.516 53.6094 922.688 54.8594 922.938 55.8906C923.188 56.9219 923.531 57.75 923.969 58.375C924.406 59 924.969 59.4219 925.656 59.6406H925.609C925.047 59.7969 924.547 60.1719 924.109 60.7656C923.672 61.3594 923.312 62.0781 923.031 62.9219C922.75 63.7656 922.531 64.7188 922.375 65.7812C922.25 66.8125 922.188 67.8594 922.188 68.9219V74.6406C922.188 77.2031 922.719 79.0469 923.781 80.1719C924.844 81.2656 926.25 81.8125 928 81.8125C927.844 82.5 927.719 83.375 927.625 84.4375C927.562 85.5 927.531 86.6094 927.531 87.7656C927.531 88.9219 927.562 90.0938 927.625 91.2812C927.688 92.4375 927.812 93.3438 928 94C927.562 93.8438 926.984 93.7031 926.266 93.5781C925.547 93.4219 924.766 93.2969 923.922 93.2031C923.109 93.0781 922.266 92.9844 921.391 92.9219C920.547 92.8594 919.75 92.8281 919 92.8281C917.219 92.8281 915.656 92.9531 914.312 93.2031C913 93.4531 911.844 93.7188 910.844 94C910.75 92.75 910.359 91.4375 909.672 90.0625C909.016 88.6875 908.172 87.4531 907.141 86.3594C906.391 86.8594 905.672 87.4531 904.984 88.1406C904.328 88.8281 903.734 89.5469 903.203 90.2969C902.703 91.0156 902.266 91.75 901.891 92.5C901.547 93.2188 901.312 93.875 901.188 94.4688C900.25 94.0312 898.859 93.6562 897.016 93.3438C895.203 93 893.125 92.8281 890.781 92.8281C888.5 92.8281 886.438 93 884.594 93.3438C882.75 93.6562 881.391 94.0312 880.516 94.4688C879.984 93.375 879.172 92.2344 878.078 91.0469C876.984 89.8594 875.719 88.7656 874.281 87.7656C872.844 86.7344 871.266 85.875 869.547 85.1875C867.859 84.4688 866.156 84.0469 864.438 83.9219ZM885.953 68.5938C885.953 71 886.109 73.0625 886.422 74.7812C886.766 76.5 887.312 77.9219 888.062 79.0469C888.812 80.1406 889.781 80.9531 890.969 81.4844C892.156 82.0156 893.609 82.2812 895.328 82.2812C897.141 82.2812 898.625 81.9375 899.781 81.25C900.938 80.5625 901.844 79.6094 902.5 78.3906C903.156 77.1719 903.609 75.7344 903.859 74.0781C904.109 72.3906 904.234 70.5625 904.234 68.5938C904.234 66.625 904.109 64.8281 903.859 63.2031C903.609 61.5469 903.156 60.125 902.5 58.9375C901.844 57.7188 900.938 56.7812 899.781 56.125C898.625 55.4375 897.141 55.0938 895.328 55.0938C893.609 55.0938 892.156 55.3438 890.969 55.8438C889.781 56.3438 888.812 57.1406 888.062 58.2344C887.312 59.3281 886.766 60.7344 886.422 62.4531C886.109 64.1406 885.953 66.1875 885.953 68.5938ZM937.047 38.4531C937.234 38.1094 937.406 37.5938 937.562 36.9062C937.75 36.2188 937.891 35.4219 937.984 34.5156C938.109 33.6094 938.203 32.6406 938.266 31.6094C938.359 30.5469 938.406 29.4687 938.406 28.375C938.406 27.375 938.359 26.4062 938.266 25.4688C938.203 24.5 938.109 23.6094 937.984 22.7969C937.859 21.9531 937.703 21.2031 937.516 20.5469C937.359 19.8906 937.188 19.375 937 19C937.562 19.1875 938.297 19.375 939.203 19.5625C940.141 19.7187 941.172 19.8594 942.297 19.9844C943.453 20.1094 944.656 20.2188 945.906 20.3125C947.188 20.375 948.438 20.4062 949.656 20.4062C950.781 20.4062 952 20.3906 953.312 20.3594C954.656 20.2969 955.938 20.2031 957.156 20.0781C958.406 19.9531 959.531 19.8125 960.531 19.6562C961.531 19.4688 962.281 19.25 962.781 19C962.594 19.4063 962.422 19.9375 962.266 20.5938C962.141 21.25 962.016 22 961.891 22.8438C961.797 23.6562 961.719 24.5469 961.656 25.5156C961.625 26.4531 961.609 27.4062 961.609 28.375C961.609 29.375 961.625 30.3594 961.656 31.3281C961.719 32.2969 961.797 33.2344 961.891 34.1406C962.016 35.0156 962.141 35.8281 962.266 36.5781C962.422 37.3281 962.594 37.9531 962.781 38.4531C962.281 38.2969 961.547 38.1719 960.578 38.0781C959.641 37.9531 958.562 37.8594 957.344 37.7969C956.156 37.7031 954.906 37.6406 953.594 37.6094C952.281 37.5469 951.016 37.5156 949.797 37.5156C948.578 37.5156 947.328 37.5469 946.047 37.6094C944.766 37.6406 943.531 37.7031 942.344 37.7969C941.188 37.8594 940.141 37.9531 939.203 38.0781C938.266 38.1719 937.547 38.2969 937.047 38.4531ZM933.297 94C933.547 93.1875 933.719 92.2188 933.812 91.0938C933.906 89.9688 933.953 88.8594 933.953 87.7656C933.953 86.7656 933.891 85.7656 933.766 84.7656C933.641 83.7656 933.484 82.7812 933.297 81.8125C935.047 81.8125 936.578 81.7344 937.891 81.5781C939.234 81.4219 940.344 81.1562 941.219 80.7812C942.125 80.375 942.797 79.8125 943.234 79.0938C943.703 78.375 943.938 77.4531 943.938 76.3281V63.2969C943.906 61.9531 943.656 60.8906 943.188 60.1094C942.75 59.2969 942.156 58.6875 941.406 58.2812C940.656 57.8438 939.781 57.5625 938.781 57.4375C937.812 57.2812 936.781 57.2031 935.688 57.2031H934.188C934.438 56.5781 934.656 55.7188 934.844 54.625C935.031 53.5 935.125 52.3281 935.125 51.1094C935.125 49.9219 935.031 48.7812 934.844 47.6875C934.688 46.5625 934.469 45.6719 934.188 45.0156C936.844 45.1406 939.312 45.2344 941.594 45.2969C943.906 45.3594 946.078 45.3906 948.109 45.3906C951.891 45.3906 955.156 45.25 957.906 44.9688C960.656 44.6562 963.016 44.125 964.984 43.375C964.359 44.5938 963.812 45.7656 963.344 46.8906C962.875 47.9844 962.469 49.1562 962.125 50.4062C961.812 51.625 961.562 52.9688 961.375 54.4375C961.219 55.9062 961.141 57.5938 961.141 59.5L961.094 76.3281C961.094 77.4531 961.328 78.375 961.797 79.0938C962.297 79.8125 962.969 80.375 963.812 80.7812C964.656 81.1562 965.656 81.4219 966.812 81.5781C967.969 81.7344 969.219 81.8125 970.562 81.8125C970.375 82.4688 970.219 83.2812 970.094 84.25C970 85.2188 969.953 86.25 969.953 87.3438C969.953 88.5312 969.984 89.7344 970.047 90.9531C970.141 92.1406 970.312 93.1562 970.562 94C969.719 93.8438 968.562 93.7031 967.094 93.5781C965.625 93.4219 964.016 93.2969 962.266 93.2031C960.547 93.0781 958.734 92.9844 956.828 92.9219C954.953 92.8594 953.172 92.8281 951.484 92.8281C949.984 92.8281 948.344 92.8594 946.562 92.9219C944.812 92.9531 943.078 93.0312 941.359 93.1562C939.672 93.25 938.109 93.375 936.672 93.5312C935.234 93.6562 934.109 93.8125 933.297 94ZM980.266 84.3438C981.297 83.0938 981.984 81.5 982.328 79.5625C982.672 77.625 982.844 75.2969 982.844 72.5781V59.0312C982.812 58.4688 982.719 57.9688 982.562 57.5312C982.438 57.0625 982.203 56.6719 981.859 56.3594C981.547 56.0156 981.109 55.75 980.547 55.5625C979.984 55.375 979.281 55.2812 978.438 55.2812C977.969 55.2812 977.453 55.3125 976.891 55.375C976.359 55.4375 975.75 55.5312 975.062 55.6562C975.219 54.75 975.328 53.7656 975.391 52.7031C975.453 51.6406 975.484 50.5625 975.484 49.4688C975.484 48.4688 975.453 47.4844 975.391 46.5156C975.328 45.5469 975.219 44.6562 975.062 43.8438C975.375 44.0625 975.766 44.25 976.234 44.4062C976.703 44.5312 977.172 44.6406 977.641 44.7344C978.109 44.8281 978.547 44.9062 978.953 44.9688C979.359 45 979.672 45.0156 979.891 45.0156C980.797 45.0156 981.469 44.6719 981.906 43.9844C982.375 43.2656 982.609 42.0312 982.609 40.2812C982.609 40 982.594 39.6094 982.562 39.1094C982.562 38.6094 982.547 38.0938 982.516 37.5625C982.484 37.0312 982.422 36.5312 982.328 36.0625C982.266 35.5938 982.172 35.2344 982.047 34.9844C982.297 35.0469 982.547 35.0781 982.797 35.0781C983.047 35.0781 983.312 35.0781 983.594 35.0781C985.188 35.0781 986.859 34.8125 988.609 34.2812C990.391 33.75 992.109 33.1719 993.766 32.5469C995.453 31.9219 997.016 31.3437 998.453 30.8125C999.891 30.2813 1001.08 30.0156 1002.02 30.0156C1001.77 30.7656 1001.56 31.5938 1001.41 32.5C1001.25 33.4062 1001.12 34.3125 1001.03 35.2188C1000.94 36.125 1000.86 37.0156 1000.8 37.8906C1000.77 38.7344 1000.75 39.4531 1000.75 40.0469C1000.75 41.0781 1000.88 41.9219 1001.12 42.5781C1001.38 43.2031 1001.81 43.7031 1002.44 44.0781C1003.09 44.4219 1003.98 44.6719 1005.11 44.8281C1006.27 44.9531 1007.73 45.0156 1009.52 45.0156C1010.27 45.0156 1011.14 45.0156 1012.14 45.0156C1013.17 44.9844 1014.23 44.9375 1015.33 44.875C1016.42 44.7812 1017.5 44.6562 1018.56 44.5C1019.66 44.3438 1020.66 44.125 1021.56 43.8438C1021.25 44.6562 1021.03 45.6094 1020.91 46.7031C1020.78 47.7969 1020.72 48.9219 1020.72 50.0781C1020.72 51.3906 1020.78 52.6094 1020.91 53.7344C1021.03 54.8594 1021.25 55.8594 1021.56 56.7344C1020.5 56.6406 1019.33 56.5312 1018.05 56.4062C1016.8 56.2812 1015.55 56.1719 1014.3 56.0781C1013.05 55.9531 1011.89 55.8594 1010.83 55.7969C1009.77 55.7031 1008.91 55.6562 1008.25 55.6562C1006.69 55.6562 1005.39 55.7344 1004.36 55.8906C1003.36 56.0156 1002.56 56.2344 1001.97 56.5469C1001.38 56.8281 1000.95 57.2031 1000.7 57.6719C1000.48 58.1094 1000.38 58.625 1000.38 59.2188V71.7812C1000.38 73 1000.44 74.2969 1000.56 75.6719C1000.72 77.0156 1000.98 78.2656 1001.36 79.4219C1001.73 80.5781 1002.25 81.5469 1002.91 82.3281C1003.56 83.0781 1004.41 83.4531 1005.44 83.4531C1006.56 83.4531 1007.5 83.2344 1008.25 82.7969C1009.03 82.3281 1009.66 81.6875 1010.12 80.875C1010.59 80.0625 1010.92 79.1094 1011.11 78.0156C1011.33 76.8906 1011.44 75.6562 1011.44 74.3125C1012.12 74.4688 1013.05 74.625 1014.2 74.7812C1015.36 74.9375 1016.55 75.0156 1017.77 75.0156C1018.95 75.0156 1020.06 74.9375 1021.09 74.7812C1022.16 74.625 1022.97 74.4688 1023.53 74.3125C1023.28 75 1023.09 75.9688 1022.97 77.2188C1022.88 78.4375 1022.83 79.75 1022.83 81.1562C1022.83 82.5625 1022.88 83.875 1022.97 85.0938C1023.06 86.3125 1023.25 87.2188 1023.53 87.8125H1023.06C1021.91 87.8125 1020.66 88 1019.31 88.375C1018 88.7188 1016.73 89.1875 1015.52 89.7812C1014.3 90.375 1013.17 91.0469 1012.14 91.7969C1011.14 92.5156 1010.38 93.25 1009.84 94C1009.59 93.8125 1009.11 93.6562 1008.39 93.5312C1007.7 93.375 1006.89 93.25 1005.95 93.1562C1005.05 93.0312 1004.08 92.9531 1003.05 92.9219C1002.02 92.8594 1001.03 92.8281 1000.09 92.8281C999.156 92.8281 998.172 92.8594 997.141 92.9219C996.141 92.9531 995.156 93.0312 994.188 93.1562C993.219 93.25 992.328 93.375 991.516 93.5312C990.734 93.6562 990.109 93.8125 989.641 94C989.359 92.9062 988.922 91.8438 988.328 90.8125C987.766 89.75 987.078 88.7812 986.266 87.9062C985.453 87.0312 984.531 86.2812 983.5 85.6562C982.5 85.0312 981.422 84.5938 980.266 84.3438Z" fill="#C6B8B8"/>
</g>
<defs>
<filter id="filter0_f_38_2" x="0" y="101" width="1417" height="195" filterUnits="userSpaceOnUse" color-interpolation-filters="sRGB">
<feFlood flood-opacity="0" result="BackgroundImageFix"/>
<feBlend mode="normal" in="SourceGraphic" in2="BackgroundImageFix" result="shape"/>
<feGaussianBlur stdDeviation="12.5" result="effect1_foregroundBlur_38_2"/>
</filter>
<filter id="filter1_i_38_2" x="397.375" y="17.8281" width="626.156" height="80.6406" filterUnits="userSpaceOnUse" color-interpolation-filters="sRGB">
<feFlood flood-opacity="0" result="BackgroundImageFix"/>
<feBlend mode="normal" in="SourceGraphic" in2="BackgroundImageFix" result="shape"/>
<feColorMatrix in="SourceAlpha" type="matrix" values="0 0 0 0 0 0 0 0 0 0 0 0 0 0 0 0 0 0 127 0" result="hardAlpha"/>
<feOffset dy="4"/>
<feGaussianBlur stdDeviation="2"/>
<feComposite in2="hardAlpha" operator="arithmetic" k2="-1" k3="1"/>
<feColorMatrix type="matrix" values="0 0 0 0 0 0 0 0 0 0 0 0 0 0 0 0 0 0 0.25 0"/>
<feBlend mode="normal" in2="shape" result="effect1_innerShadow_38_2"/>
</filter>
<radialGradient id="paint0_radial_38_2" cx="0" cy="0" r="1" gradientUnits="userSpaceOnUse" gradientTransform="translate(708.5 198.5) scale(683.5 72.5)">
<stop offset="0.15"/>
<stop offset="0.491667" stop-color="#100303"/>
<stop offset="1" stop-color="#450C0C"/>
</radialGradient>
</defs>
</svg>
