<svg width="329" height="116" viewBox="0 0 329 116" fill="none" xmlns="http://www.w3.org/2000/svg">
<g filter="url(#filter0_d_20_3)">
<ellipse cx="50.4512" cy="38.5" rx="33" ry="30.5" fill="#F9EBEB"/>
<path d="M84.3141 40.9067C89.1026 41.2323 92.8056 39.1249 94.14 37.5658C83.0768 41.0403 71.5768 34.2248 66.1179 30.2158C60.4164 24.8704 45.7382 16.8523 33.3647 18.1887C23.2447 19.2817 16.3816 24.5364 16.6242 26.5409C25.7223 18.5227 45.7382 21.8636 57.3837 29.2136C68.8659 36.4605 74.4881 40.2385 84.3141 40.9067Z" fill="#DD4343"/>
<path d="M96.6875 22.8659C101.476 23.1915 105.179 21.0841 106.513 19.525C95.4502 22.9995 83.9502 16.184 78.4913 12.175C72.7899 6.82957 58.1116 -1.18847 45.7381 0.147903C35.6181 1.24091 28.755 6.49557 28.9976 8.50009C38.0957 0.481959 58.1116 3.82286 69.7571 11.1728C81.2394 18.4197 86.8615 22.1977 96.6875 22.8659Z" fill="#DD4343"/>
<path d="M29.3553 10.3567L23.5325 19.3771C28.9914 16.3703 34.0863 16.0362 36.6338 16.3703L41.3648 6.01352C37.58 5.47898 32.2667 8.01809 29.3553 10.3567Z" fill="#DD4343"/>
<path d="M40.273 17.0385L45.004 5.67953C49.9534 5.41226 56.0431 7.5727 58.4692 8.68633L53.3743 20.3794C49.8806 17.974 43.1844 17.1499 40.273 17.0385Z" fill="#DD4343"/>
<path d="M55.9218 21.3817L61.0167 9.68858C63.9281 10.4904 69.9935 14.0317 72.6623 15.7022L67.5673 28.7316C65.5294 26.3262 58.9545 22.8294 55.9218 21.3817Z" fill="#DD4343"/>
<path d="M79.9408 34.7452C76.7382 34.7452 71.8131 31.6271 69.7509 30.068L74.8458 17.0385C77.7572 19.1767 82.8521 21.0476 85.0357 21.7158L79.9408 34.7452Z" fill="#DD4343"/>
<path d="M95.5895 34.7452C91.8047 37.1507 86.8553 36.7498 82.4882 35.4134L87.5832 23.0521C91.2224 25.0567 98.5008 25.3908 101.776 25.0567L95.5895 34.7452Z" fill="#DD4343"/>
<path d="M21.1306 43.0975C20.5484 33.2084 23.9114 27.618 26.2163 25.0567H36.9977C35.906 27.7294 36.6338 34.4111 42.8205 34.7452C47.7699 35.0125 49.2498 30.8475 49.3712 28.7316L53.7382 30.7362C54.3205 35.8143 59.8036 35.5248 62.4724 34.7452C64.8015 36.8834 71.4143 41.2584 79.9408 43.0975C79.5768 46.1043 74.609 59.812 61.7446 64.8132C49.3712 69.6236 38.942 65.1098 34.4536 63.1053C30.4505 61.2121 21.7129 52.9865 21.1306 43.0975Z" fill="#DD4343"/>
<ellipse cx="63.9281" cy="45.4361" rx="6.55063" ry="6.0136" fill="#F9EBEB"/>
<ellipse cx="50.4512" cy="40.5" rx="4" ry="3.5" fill="#F9EBEB"/>
<ellipse cx="36.9512" cy="44" rx="6.5" ry="6" fill="#F9EBEB"/>
<ellipse cx="49.9512" cy="53" rx="6.5" ry="6" fill="#F9EBEB"/>
<path fill-rule="evenodd" clip-rule="evenodd" d="M25.8128 58.6163C24.6842 58.6337 23.8216 58.7087 23.2795 58.795L14.3975 62.4774C13.2275 62.7404 10.3146 63.0297 8.02247 62.0828C5.73033 61.1359 3.62921 60.7239 2.86517 60.6362C2.00562 60.6143 0.229213 61.1096 0 63.2664L0.143258 83.4538C0.334269 84.5717 1.31798 87.0573 3.72472 88.0568L48.7795 100.945C49.9494 101.318 52.6618 102.05 54.1516 101.997C55.6415 101.945 59.1179 100.923 60.6699 100.419L71.4143 92.5282C71.9396 92.1995 72.9185 91.3841 72.632 90.7528C72.3455 90.1215 71.7008 89.8322 71.4143 89.7665L39.8974 81.2181C39.7064 81.0208 39.3817 80.4947 39.6109 79.9687C39.8401 79.4426 40.5182 79.5303 40.8286 79.6399L77.5027 89.7665C78.9353 89.9856 82.1586 89.9506 83.5912 88.0568C85.0238 86.163 84.8567 83.5853 84.594 82.5332C84.1165 81.7003 82.4022 79.7977 79.3651 78.8508C76.328 77.9039 62.007 73.8095 55.2261 71.8806C54.4519 71.079 53.3875 70.0577 52.1218 68.9479C51.2795 69.012 50.4276 69.0447 49.5674 69.0447C39.9694 69.0447 31.4064 64.9766 25.8128 58.6163ZM61.4017 66.86C59.1397 67.7346 56.7388 68.366 54.2378 68.7186L56.4438 70.6312L61.4017 66.86ZM75.139 66.2255L65.9705 73.2615L58.6643 71.1573L80.2247 54.7838C81.2991 54.0167 83.7775 52.193 85.0954 51.0357C86.4134 49.8784 87.6025 49.8959 88.0322 50.0493C88.8918 50.4 90.7541 51.2856 91.3272 52.022C91.9002 52.7585 91.5659 53.5564 91.3272 53.8632L75.139 66.2255ZM75.8553 76.2205L84.594 69.3818L93.5477 62.7404C94.4311 62.039 96.771 60.7282 99.0631 61.0965C99.6839 60.9211 101.026 60.1627 101.427 58.532C101.828 56.9012 100.925 55.0468 100.424 54.3235C99.5884 53.7098 97.5303 52.627 95.9831 53.2057C94.4359 53.7843 92.712 55.0249 92.0435 55.5729L81.5856 63.398L68.0477 73.9191L75.8553 76.2205ZM83.0898 78.3248C82.6887 77.9039 79.58 77.1411 78.0758 76.8124C82.3258 73.4807 91.4131 66.357 93.7626 64.5158C96.112 62.6746 97.6544 62.4335 98.132 62.5431C98.7289 62.4774 100.324 62.8325 101.928 64.7789C103.533 66.7253 102.215 68.8339 101.355 69.6449L93.7626 75.563C92.1151 76.8562 88.5909 79.6267 87.6741 80.3632C86.7572 81.0997 86.0505 80.977 85.8117 80.8235C85.0716 80.166 83.491 78.7456 83.0898 78.3248Z" fill="#F9EBEB"/>
<g filter="url(#filter1_d_20_3)">
<path d="M148.544 48.64H148.352H148.544L151.088 38.128L153.152 30.4H159.152L161.312 64H155.024L154.112 45.664H153.872L150.416 59.2H146.48L143.024 45.664H142.784L141.872 64H135.584L137.744 30.4H143.744L145.808 38.128L148.352 48.64H148.544ZM164.795 50.512V39.472H171.179V50.56C171.179 53.344 171.739 55.664 172.859 57.52H175.691C176.747 55.696 177.275 53.376 177.275 50.56V39.472H183.659V50.176C183.659 52.576 183.339 54.688 182.699 56.512C182.091 58.336 181.083 60.4 179.675 62.704L176.459 67.936C175.883 68.928 175.275 69.664 174.635 70.144C173.995 70.624 173.163 70.976 172.139 71.2H164.555V66.16H169.739C170.411 65.968 170.971 65.632 171.419 65.152C171.867 64.672 172.331 63.984 172.811 63.088L173.099 62.56H169.787C168.251 61.312 167.035 59.632 166.139 57.52C165.243 55.376 164.795 53.04 164.795 50.512ZM207.794 48.64H207.602H207.794L210.338 38.128L212.402 30.4H218.402L220.562 64H214.274L213.362 45.664H213.122L209.666 59.2H205.73L202.274 45.664H202.034L201.122 64H194.834L196.994 30.4H202.994L205.058 38.128L207.602 48.64H207.794ZM238.781 64H228.317C225.117 61.024 223.517 56.96 223.517 51.808C223.517 49.216 223.869 46.96 224.573 45.04C225.309 43.12 226.461 41.264 228.029 39.472H239.261C240.925 41.392 242.061 43.264 242.669 45.088C243.277 46.88 243.581 49.12 243.581 51.808C243.581 56.96 241.981 61.024 238.781 64ZM231.725 58.96H235.373C236.525 56.72 237.101 54.176 237.101 51.328C237.101 48.48 236.509 46.208 235.325 44.512H231.725C230.573 46.144 229.997 48.464 229.997 51.472C229.997 54.448 230.573 56.944 231.725 58.96ZM260.511 64H251.631C250.095 62.752 248.879 61.104 247.983 59.056C247.087 57.008 246.639 54.736 246.639 52.24V39.472H253.023V52.048C253.023 54.864 253.551 57.168 254.607 58.96H257.535C258.591 57.072 259.119 54.784 259.119 52.096V39.472H265.503V52C265.503 54.528 265.055 56.848 264.159 58.96C263.263 61.072 262.047 62.752 260.511 64ZM269.47 64V39.472H275.806V64H269.47ZM269.47 30.4H275.806V36.88H269.47V30.4ZM291.011 44.512H287.411C286.931 45.088 286.531 45.888 286.211 46.912C285.923 47.936 285.779 48.928 285.779 49.888H292.643C292.707 48.928 292.579 47.936 292.259 46.912C291.939 45.856 291.523 45.056 291.011 44.512ZM297.539 58.96V64H285.347C283.107 62.496 281.523 60.64 280.595 58.432C279.699 56.192 279.251 53.936 279.251 51.664C279.251 46.416 281.235 42.352 285.203 39.472H292.979C295.123 41.04 296.579 42.704 297.347 44.464C298.115 46.224 298.499 48 298.499 49.792C298.499 51.584 298.355 53.12 298.067 54.4H286.115C286.211 55.136 286.483 55.984 286.931 56.944C287.411 57.872 287.923 58.544 288.467 58.96H297.539ZM303.37 39.472H313.978V44.512H306.49L311.05 51.28C313.098 54.192 314.234 56.192 314.458 57.28C314.586 57.792 314.65 58.32 314.65 58.864C314.65 61.136 313.802 62.848 312.106 64H299.866V58.96H308.65L303.514 51.424C303.29 51.072 302.938 50.576 302.458 49.936C302.01 49.296 301.658 48.784 301.402 48.4C301.146 47.984 300.97 47.68 300.874 47.488C300.778 47.296 300.65 47.056 300.49 46.768C300.33 46.448 300.218 46.176 300.154 45.952C300.026 45.344 299.962 44.848 299.962 44.464C299.962 42.128 301.098 40.464 303.37 39.472Z" fill="#F9EBEB"/>
</g>
</g>
<defs>
<filter id="filter0_d_20_3" x="0" y="0" width="328.65" height="116" filterUnits="userSpaceOnUse" color-interpolation-filters="sRGB">
<feFlood flood-opacity="0" result="BackgroundImageFix"/>
<feColorMatrix in="SourceAlpha" type="matrix" values="0 0 0 0 0 0 0 0 0 0 0 0 0 0 0 0 0 0 127 0" result="hardAlpha"/>
<feOffset dx="10" dy="10"/>
<feGaussianBlur stdDeviation="2"/>
<feComposite in2="hardAlpha" operator="out"/>
<feColorMatrix type="matrix" values="0 0 0 0 0 0 0 0 0 0 0 0 0 0 0 0 0 0 0.25 0"/>
<feBlend mode="normal" in2="BackgroundImageFix" result="effect1_dropShadow_20_3"/>
<feBlend mode="normal" in="SourceGraphic" in2="effect1_dropShadow_20_3" result="shape"/>
</filter>
<filter id="filter1_d_20_3" x="135.584" y="30.4" width="193.066" height="54.8" filterUnits="userSpaceOnUse" color-interpolation-filters="sRGB">
<feFlood flood-opacity="0" result="BackgroundImageFix"/>
<feColorMatrix in="SourceAlpha" type="matrix" values="0 0 0 0 0 0 0 0 0 0 0 0 0 0 0 0 0 0 127 0" result="hardAlpha"/>
<feOffset dx="10" dy="10"/>
<feGaussianBlur stdDeviation="2"/>
<feComposite in2="hardAlpha" operator="out"/>
<feColorMatrix type="matrix" values="0 0 0 0 0 0 0 0 0 0 0 0 0 0 0 0 0 0 0.25 0"/>
<feBlend mode="normal" in2="BackgroundImageFix" result="effect1_dropShadow_20_3"/>
<feBlend mode="normal" in="SourceGraphic" in2="effect1_dropShadow_20_3" result="shape"/>
</filter>
</defs>
</svg>
