<svg width="1417" height="289" viewBox="0 0 1417 289" fill="none" xmlns="http://www.w3.org/2000/svg">
<g filter="url(#filter0_f_50_2)">
<ellipse cx="708.5" cy="191.5" rx="683.5" ry="72.5" fill="url(#paint0_radial_50_2)"/>
<path d="M1391.5 191.5C1391.5 193.831 1390.39 196.187 1388.11 198.567C1385.83 200.949 1382.41 203.321 1377.88 205.667C1368.83 210.36 1355.45 214.902 1338.17 219.235C1303.61 227.901 1253.59 235.709 1191.75 242.268C1068.09 255.386 897.231 263.5 708.5 263.5C519.769 263.5 348.912 255.386 225.245 242.268C163.409 235.709 113.388 227.901 78.8344 219.235C61.5538 214.902 48.1698 210.36 39.1164 205.667C34.5889 203.321 31.1705 200.949 28.89 198.567C26.6113 196.187 25.5 193.831 25.5 191.5C25.5 189.169 26.6113 186.813 28.89 184.433C31.1705 182.051 34.5889 179.679 39.1164 177.333C48.1698 172.64 61.5538 168.098 78.8344 163.765C113.388 155.099 163.409 147.291 225.245 140.732C348.912 127.614 519.769 119.5 708.5 119.5C897.231 119.5 1068.09 127.614 1191.75 140.732C1253.59 147.291 1303.61 155.099 1338.17 163.765C1355.45 168.098 1368.83 172.64 1377.88 177.333C1382.41 179.679 1385.83 182.051 1388.11 184.433C1390.39 186.813 1391.5 189.169 1391.5 191.5Z" stroke="black"/>
</g>
<g filter="url(#filter1_i_50_2)">
<path d="M321.016 94C321.203 93.2188 321.359 92.2812 321.484 91.1875C321.641 90.0625 321.719 88.9062 321.719 87.7188C321.719 86.625 321.641 85.5625 321.484 84.5312C321.328 83.4688 321.172 82.5625 321.016 81.8125C323.078 81.8125 324.719 81.5781 325.938 81.1094C327.188 80.6094 328.141 79.7969 328.797 78.6719C329.453 77.5156 329.875 75.9844 330.062 74.0781C330.281 72.1719 330.391 69.8125 330.391 67C330.391 64.8438 330.125 63.1094 329.594 61.7969C329.062 60.4531 328.438 59.7031 327.719 59.5469C328.344 59.3594 328.891 58.8594 329.359 58.0469C329.828 57.2344 330.203 56.1875 330.484 54.9062C330.797 53.5938 331.031 52.0781 331.188 50.3594C331.344 48.6406 331.422 46.7656 331.422 44.7344C331.422 43.4844 331.219 42.4688 330.812 41.6875C330.406 40.9062 329.859 40.2969 329.172 39.8594C328.484 39.3906 327.672 39.0781 326.734 38.9219C325.828 38.7656 324.844 38.6875 323.781 38.6875H322.891C323.047 37.9375 323.203 37.0781 323.359 36.1094C323.516 35.1094 323.594 34.0625 323.594 32.9688C323.594 31.8125 323.516 30.6406 323.359 29.4531C323.234 28.2656 323.078 27.2813 322.891 26.5C323.453 26.7188 324.297 26.9219 325.422 27.1094C326.578 27.2969 327.891 27.4688 329.359 27.625C330.859 27.7812 332.438 27.9062 334.094 28C335.75 28.0938 337.375 28.1406 338.969 28.1406C340.781 28.1406 342.484 28.0938 344.078 28C345.703 27.9062 347.188 27.7812 348.531 27.625C349.875 27.4688 351.047 27.2969 352.047 27.1094C353.078 26.9219 353.906 26.7188 354.531 26.5C354.562 27.4688 354.812 28.7656 355.281 30.3906C355.75 31.9844 356.359 33.75 357.109 35.6875C357.859 37.625 358.703 39.6562 359.641 41.7812C360.609 43.9062 361.578 45.9531 362.547 47.9219C363.547 49.8906 364.516 51.7188 365.453 53.4062C366.422 55.0938 367.281 56.4688 368.031 57.5312C368.781 56.4688 369.625 55.0938 370.562 53.4062C371.531 51.7188 372.5 49.8906 373.469 47.9219C374.469 45.9531 375.438 43.9062 376.375 41.7812C377.344 39.6562 378.203 37.625 378.953 35.6875C379.703 33.75 380.312 31.9844 380.781 30.3906C381.25 28.7656 381.5 27.4688 381.531 26.5C382.125 26.7188 382.938 26.9375 383.969 27.1562C385 27.3438 386.188 27.5156 387.531 27.6719C388.875 27.7969 390.359 27.9062 391.984 28C393.609 28.0938 395.312 28.1406 397.094 28.1406C398.688 28.1406 400.312 28.0938 401.969 28C403.625 27.9062 405.188 27.7812 406.656 27.625C408.156 27.4688 409.469 27.2969 410.594 27.1094C411.75 26.9219 412.609 26.7188 413.172 26.5C412.984 27.2813 412.812 28.2656 412.656 29.4531C412.531 30.6406 412.469 31.8125 412.469 32.9688C412.469 34.0625 412.547 35.1094 412.703 36.1094C412.859 37.0781 413.016 37.9375 413.172 38.6875H412.281C411.219 38.6875 410.219 38.7656 409.281 38.9219C408.375 39.0781 407.578 39.3906 406.891 39.8594C406.203 40.2969 405.656 40.9062 405.25 41.6875C404.844 42.4688 404.641 43.4844 404.641 44.7344C404.641 46.7656 404.703 48.6406 404.828 50.3594C404.984 52.0781 405.219 53.5938 405.531 54.9062C405.844 56.1875 406.234 57.2344 406.703 58.0469C407.172 58.8594 407.719 59.3594 408.344 59.5469C407.625 59.7031 407 60.4531 406.469 61.7969C405.938 63.1094 405.672 64.8438 405.672 67C405.672 68.5312 405.828 69.9219 406.141 71.1719C406.484 72.4219 406.766 73.6719 406.984 74.9219C407.203 76.2344 407.516 77.3281 407.922 78.2031C408.328 79.0781 408.875 79.7812 409.562 80.3125C410.281 80.8438 411.156 81.2344 412.188 81.4844C413.25 81.7031 414.516 81.8125 415.984 81.8125C415.828 82.5625 415.672 83.4688 415.516 84.5312C415.359 85.5625 415.281 86.625 415.281 87.7188C415.281 88.9062 415.344 90.0625 415.469 91.1875C415.625 92.2812 415.797 93.2188 415.984 94C415.078 93.8125 413.938 93.6562 412.562 93.5312C411.188 93.375 409.688 93.25 408.062 93.1562C406.438 93.0312 404.75 92.9531 403 92.9219C401.281 92.8594 399.625 92.8281 398.031 92.8281C396.438 92.8281 394.766 92.8594 393.016 92.9219C391.297 92.9531 389.625 93.0312 388 93.1562C386.375 93.25 384.875 93.375 383.5 93.5312C382.125 93.6562 381 93.8125 380.125 94C380.312 93.2188 380.469 92.2812 380.594 91.1875C380.75 90.0625 380.828 88.9062 380.828 87.7188C380.828 86.625 380.75 85.5625 380.594 84.5312C380.438 83.4688 380.281 82.5625 380.125 81.8125C383.25 81.8125 385.531 81.2812 386.969 80.2188C388.406 79.125 389.125 77.2344 389.125 74.5469C389.125 72.3906 389.062 70.1406 388.938 67.7969C388.844 65.4531 388.688 63.2188 388.469 61.0938C388.281 58.9375 388.031 56.9844 387.719 55.2344C387.438 53.4531 387.109 52.0625 386.734 51.0625C386.047 51.0625 385.266 51.5625 384.391 52.5625C383.547 53.5625 382.656 54.8438 381.719 56.4062C380.812 57.9688 379.922 59.6875 379.047 61.5625C378.172 63.4375 377.391 65.2656 376.703 67.0469C376.016 68.8281 375.453 70.4375 375.016 71.875C374.578 73.3125 374.344 74.3594 374.312 75.0156C373.438 74.7344 372.453 74.5469 371.359 74.4531C370.266 74.3594 369.156 74.3125 368.031 74.3125C366.906 74.3125 365.797 74.3594 364.703 74.4531C363.609 74.5469 362.625 74.7344 361.75 75.0156C361.719 74.3906 361.484 73.375 361.047 71.9688C360.609 70.5625 360.047 69 359.359 67.2812C358.672 65.5312 357.891 63.7344 357.016 61.8906C356.172 60.0469 355.297 58.375 354.391 56.875C353.484 55.3438 352.594 54.0781 351.719 53.0781C350.844 52.0781 350.062 51.5625 349.375 51.5312C349.062 52.5312 348.797 53.9062 348.578 55.6562C348.391 57.4062 348.234 59.3438 348.109 61.4688C348.016 63.5938 347.953 65.8281 347.922 68.1719C347.891 70.4844 347.875 72.7344 347.875 74.9219C347.875 76.2656 348.047 77.3906 348.391 78.2969C348.766 79.1719 349.312 79.875 350.031 80.4062C350.781 80.9062 351.719 81.2656 352.844 81.4844C353.969 81.7031 355.312 81.8125 356.875 81.8125C356.719 82.5625 356.562 83.4688 356.406 84.5312C356.25 85.5625 356.172 86.625 356.172 87.7188C356.172 88.9062 356.234 90.0625 356.359 91.1875C356.516 92.2812 356.688 93.2188 356.875 94C355.969 93.8125 354.828 93.6562 353.453 93.5312C352.078 93.375 350.578 93.25 348.953 93.1562C347.328 93.0312 345.656 92.9531 343.938 92.9219C342.219 92.8594 340.562 92.8281 338.969 92.8281C337.375 92.8281 335.703 92.8594 333.953 92.9219C332.234 92.9531 330.562 93.0312 328.938 93.1562C327.312 93.25 325.797 93.375 324.391 93.5312C323.016 93.6562 321.891 93.8125 321.016 94ZM425.406 86.2188C425.75 85.7188 426.078 85.0781 426.391 84.2969C426.703 83.5156 426.969 82.5 427.188 81.25C427.438 79.9688 427.625 78.4062 427.75 76.5625C427.906 74.6875 427.984 72.4062 427.984 69.7188C427.984 66.9062 427.906 64.625 427.75 62.875C427.625 61.125 427.438 59.7031 427.188 58.6094C426.969 57.4844 426.703 56.5781 426.391 55.8906C426.078 55.2031 425.766 54.5312 425.453 53.875C426.703 53.75 428.125 53.3906 429.719 52.7969C431.312 52.1719 432.844 51.3906 434.312 50.4531C435.812 49.5156 437.141 48.4375 438.297 47.2188C439.453 46 440.219 44.7188 440.594 43.375C441.156 43.625 441.969 43.8594 443.031 44.0781C444.094 44.2656 445.328 44.4375 446.734 44.5938C448.141 44.7188 449.672 44.8281 451.328 44.9219C452.984 44.9844 454.703 45.0156 456.484 45.0156C458.109 45.0156 459.688 44.9688 461.219 44.875C462.75 44.75 464.156 44.6094 465.438 44.4531C466.719 44.2969 467.828 44.125 468.766 43.9375C469.703 43.75 470.406 43.5625 470.875 43.375C471.25 44.7188 472.031 46 473.219 47.2188C474.406 48.4375 475.75 49.5156 477.25 50.4531C478.781 51.3906 480.328 52.1719 481.891 52.7969C483.484 53.3906 484.859 53.75 486.016 53.875C485.703 54.5 485.391 55.1562 485.078 55.8438C484.797 56.5 484.531 57.3906 484.281 58.5156C484.062 59.6094 483.875 61.0312 483.719 62.7812C483.594 64.5 483.531 66.7344 483.531 69.4844C483.531 72.2031 483.578 74.5156 483.672 76.4219C483.766 78.2969 483.906 79.875 484.094 81.1562C484.281 82.4375 484.531 83.4688 484.844 84.25C485.188 85.0312 485.594 85.6875 486.062 86.2188C485.281 86.2188 484.391 86.3438 483.391 86.5938C482.391 86.8125 481.344 87.125 480.25 87.5312C479.188 87.9062 478.125 88.3594 477.062 88.8906C476.031 89.4219 475.078 90 474.203 90.625C473.328 91.2188 472.578 91.8438 471.953 92.5C471.328 93.1562 470.906 93.8125 470.688 94.4688C470.094 94.25 469.297 94.0469 468.297 93.8594C467.297 93.6719 466.141 93.5 464.828 93.3438C463.516 93.1875 462.078 93.0625 460.516 92.9688C458.953 92.875 457.312 92.8281 455.594 92.8281C453.906 92.8281 452.281 92.875 450.719 92.9688C449.188 93.0625 447.766 93.1875 446.453 93.3438C445.172 93.4688 444.031 93.6406 443.031 93.8594C442.062 94.0469 441.312 94.25 440.781 94.4688C440.25 93.3125 439.359 92.2344 438.109 91.2344C436.859 90.2344 435.484 89.3594 433.984 88.6094C432.484 87.8594 430.953 87.2812 429.391 86.875C427.859 86.4375 426.531 86.2188 425.406 86.2188ZM446.734 69.5312C446.734 72.1875 446.891 74.4688 447.203 76.375C447.547 78.2812 448.094 79.8438 448.844 81.0625C449.594 82.2812 450.562 83.1875 451.75 83.7812C452.938 84.3438 454.391 84.625 456.109 84.625C457.922 84.625 459.406 84.25 460.562 83.5C461.719 82.7188 462.625 81.6562 463.281 80.3125C463.938 78.9688 464.391 77.375 464.641 75.5312C464.891 73.6875 465.016 71.6875 465.016 69.5312C465.016 67.375 464.891 65.3906 464.641 63.5781C464.391 61.7344 463.938 60.1562 463.281 58.8438C462.625 57.5 461.719 56.4688 460.562 55.75C459.406 55 457.922 54.625 456.109 54.625C454.391 54.625 452.938 54.9062 451.75 55.4688C450.562 56.0312 449.594 56.9219 448.844 58.1406C448.094 59.3281 447.547 60.8594 447.203 62.7344C446.891 64.6094 446.734 66.875 446.734 69.5312ZM514.375 94C514.406 93.7812 514.422 93.5312 514.422 93.25C514.453 92.9375 514.469 92.6562 514.469 92.4062C514.469 91.0625 514.203 89.4531 513.672 87.5781C513.141 85.7031 512.344 83.6719 511.281 81.4844C510.188 79.2344 509.047 77.4531 507.859 76.1406C506.672 74.8281 505.5 74 504.344 73.6562C504.875 73.4688 505.141 72.9688 505.141 72.1562C505.141 71.75 505.109 71.2031 505.047 70.5156C505.016 69.7969 504.875 68.9844 504.625 68.0781C504.375 67.1406 504 66.125 503.5 65.0312C503 63.9375 502.281 62.7969 501.344 61.6094C500.812 60.9219 500.234 60.2812 499.609 59.6875C499.016 59.0625 498.297 58.5156 497.453 58.0469C496.641 57.5781 495.688 57.2031 494.594 56.9219C493.5 56.6406 492.203 56.5 490.703 56.5C490.859 55.5938 491 54.6094 491.125 53.5469C491.219 52.4531 491.266 51.25 491.266 49.9375C491.266 48.7812 491.219 47.6719 491.125 46.6094C491.031 45.5156 490.891 44.5938 490.703 43.8438C491.172 44.0312 491.984 44.2031 493.141 44.3594C494.328 44.4844 495.734 44.5938 497.359 44.6875C498.984 44.7812 500.734 44.8594 502.609 44.9219C504.484 44.9844 506.359 45.0156 508.234 45.0156C510.234 45.0156 512.156 45.0156 514 45.0156C515.844 44.9844 517.547 44.9375 519.109 44.875C520.703 44.7812 522.109 44.6562 523.328 44.5C524.578 44.3438 525.578 44.125 526.328 43.8438C526.141 44.625 526 45.4688 525.906 46.375C525.812 47.2812 525.766 48.3125 525.766 49.4688C525.766 50.7812 525.797 52.0625 525.859 53.3125C525.953 54.5312 526.078 55.5938 526.234 56.5C523.891 56.5 522.203 56.75 521.172 57.25C520.172 57.75 519.672 58.5469 519.672 59.6406C519.672 60.4844 519.953 61.5938 520.516 62.9688C521.078 64.3438 521.781 65.9062 522.625 67.6562C523.469 69.4062 524.359 71.3125 525.297 73.375C526.234 75.4062 527.078 77.5156 527.828 79.7031C528.641 77.7344 529.531 75.7812 530.5 73.8438C531.469 71.9062 532.359 70.0625 533.172 68.3125C534.016 66.5625 534.719 64.9375 535.281 63.4375C535.844 61.9375 536.125 60.625 536.125 59.5C536.125 58.25 535.672 57.4375 534.766 57.0625C533.859 56.6875 532.375 56.5 530.312 56.5C530.469 55.5938 530.578 54.5312 530.641 53.3125C530.734 52.0625 530.781 50.7812 530.781 49.4688C530.781 47.2188 530.594 45.3438 530.219 43.8438C530.625 44.125 531.297 44.3438 532.234 44.5C533.203 44.6562 534.312 44.7812 535.562 44.875C536.812 44.9375 538.141 44.9844 539.547 45.0156C540.984 45.0156 542.391 45.0156 543.766 45.0156C545.297 45.0156 546.781 45 548.219 44.9688C549.656 44.9062 550.953 44.8281 552.109 44.7344C553.297 44.6094 554.297 44.4844 555.109 44.3594C555.953 44.2031 556.531 44.0312 556.844 43.8438C556.688 44.4688 556.562 45.2812 556.469 46.2812C556.406 47.2812 556.375 48.3438 556.375 49.4688C556.375 50.7812 556.406 52.0625 556.469 53.3125C556.562 54.5312 556.688 55.5938 556.844 56.5C556.094 56.5 555.312 56.6094 554.5 56.8281C553.688 57.0469 552.875 57.3906 552.062 57.8594C551.281 58.2969 550.516 58.8594 549.766 59.5469C549.047 60.2344 548.422 61.0312 547.891 61.9375C547.141 63.0312 546.531 64.0938 546.062 65.125C545.625 66.125 545.281 67.0781 545.031 67.9844C544.812 68.8594 544.672 69.6562 544.609 70.375C544.547 71.0938 544.516 71.6875 544.516 72.1562C544.516 72.9688 544.781 73.4688 545.312 73.6562C544.156 73.9062 543.016 74.5625 541.891 75.625C540.797 76.6562 539.812 77.9844 538.938 79.6094C538.094 81.2031 537.406 83.0469 536.875 85.1406C536.344 87.2031 536.078 89.375 536.078 91.6562C536.078 92.0938 536.094 92.5156 536.125 92.9219C536.188 93.2969 536.25 93.6562 536.312 94C536.031 93.8438 535.438 93.7031 534.531 93.5781C533.625 93.4219 532.578 93.2969 531.391 93.2031C530.234 93.0781 529.047 92.9844 527.828 92.9219C526.609 92.8594 525.562 92.8281 524.688 92.8281C523.719 92.8281 522.719 92.875 521.688 92.9688C520.688 93.0312 519.719 93.125 518.781 93.25C517.875 93.3438 517.031 93.4688 516.25 93.625C515.469 93.75 514.844 93.875 514.375 94ZM561.953 38.4531C562.141 38.1094 562.312 37.5938 562.469 36.9062C562.656 36.2188 562.797 35.4219 562.891 34.5156C563.016 33.6094 563.109 32.6406 563.172 31.6094C563.266 30.5469 563.312 29.4687 563.312 28.375C563.312 27.375 563.266 26.4062 563.172 25.4688C563.109 24.5 563.016 23.6094 562.891 22.7969C562.766 21.9531 562.609 21.2031 562.422 20.5469C562.266 19.8906 562.094 19.375 561.906 19C562.469 19.1875 563.203 19.375 564.109 19.5625C565.047 19.7187 566.078 19.8594 567.203 19.9844C568.359 20.1094 569.562 20.2188 570.812 20.3125C572.094 20.375 573.344 20.4062 574.562 20.4062C575.688 20.4062 576.906 20.3906 578.219 20.3594C579.562 20.2969 580.844 20.2031 582.062 20.0781C583.312 19.9531 584.438 19.8125 585.438 19.6562C586.438 19.4688 587.188 19.25 587.688 19C587.5 19.4063 587.328 19.9375 587.172 20.5938C587.047 21.25 586.922 22 586.797 22.8438C586.703 23.6562 586.625 24.5469 586.562 25.5156C586.531 26.4531 586.516 27.4062 586.516 28.375C586.516 29.375 586.531 30.3594 586.562 31.3281C586.625 32.2969 586.703 33.2344 586.797 34.1406C586.922 35.0156 587.047 35.8281 587.172 36.5781C587.328 37.3281 587.5 37.9531 587.688 38.4531C587.188 38.2969 586.453 38.1719 585.484 38.0781C584.547 37.9531 583.469 37.8594 582.25 37.7969C581.062 37.7031 579.812 37.6406 578.5 37.6094C577.188 37.5469 575.922 37.5156 574.703 37.5156C573.484 37.5156 572.234 37.5469 570.953 37.6094C569.672 37.6406 568.438 37.7031 567.25 37.7969C566.094 37.8594 565.047 37.9531 564.109 38.0781C563.172 38.1719 562.453 38.2969 561.953 38.4531ZM558.203 94C558.453 93.1875 558.625 92.2188 558.719 91.0938C558.812 89.9688 558.859 88.8594 558.859 87.7656C558.859 86.7656 558.797 85.7656 558.672 84.7656C558.547 83.7656 558.391 82.7812 558.203 81.8125C559.953 81.8125 561.484 81.7344 562.797 81.5781C564.141 81.4219 565.25 81.1562 566.125 80.7812C567.031 80.375 567.703 79.8125 568.141 79.0938C568.609 78.375 568.844 77.4531 568.844 76.3281V63.2969C568.812 61.9531 568.562 60.8906 568.094 60.1094C567.656 59.2969 567.062 58.6875 566.312 58.2812C565.562 57.8438 564.688 57.5625 563.688 57.4375C562.719 57.2812 561.688 57.2031 560.594 57.2031H559.094C559.344 56.5781 559.562 55.7188 559.75 54.625C559.938 53.5 560.031 52.3281 560.031 51.1094C560.031 49.9219 559.938 48.7812 559.75 47.6875C559.594 46.5625 559.375 45.6719 559.094 45.0156C561.75 45.1406 564.219 45.2344 566.5 45.2969C568.812 45.3594 570.984 45.3906 573.016 45.3906C576.797 45.3906 580.062 45.25 582.812 44.9688C585.562 44.6562 587.922 44.125 589.891 43.375C589.266 44.5938 588.719 45.7656 588.25 46.8906C587.781 47.9844 587.375 49.1562 587.031 50.4062C586.719 51.625 586.469 52.9688 586.281 54.4375C586.125 55.9062 586.047 57.5938 586.047 59.5L586 76.3281C586 77.4531 586.234 78.375 586.703 79.0938C587.203 79.8125 587.875 80.375 588.719 80.7812C589.562 81.1562 590.562 81.4219 591.719 81.5781C592.875 81.7344 594.125 81.8125 595.469 81.8125C595.281 82.4688 595.125 83.2812 595 84.25C594.906 85.2188 594.859 86.25 594.859 87.3438C594.859 88.5312 594.891 89.7344 594.953 90.9531C595.047 92.1406 595.219 93.1562 595.469 94C594.625 93.8438 593.469 93.7031 592 93.5781C590.531 93.4219 588.922 93.2969 587.172 93.2031C585.453 93.0781 583.641 92.9844 581.734 92.9219C579.859 92.8594 578.078 92.8281 576.391 92.8281C574.891 92.8281 573.25 92.8594 571.469 92.9219C569.719 92.9531 567.984 93.0312 566.266 93.1562C564.578 93.25 563.016 93.375 561.578 93.5312C560.141 93.6562 559.016 93.8125 558.203 94ZM601.047 86.2188C601.672 85.4688 602.156 84.4219 602.5 83.0781C602.844 81.7344 603.094 80.2812 603.25 78.7188C603.438 77.125 603.547 75.5312 603.578 73.9375C603.641 72.3438 603.672 70.9375 603.672 69.7188C603.672 68.4375 603.625 66.9844 603.531 65.3594C603.438 63.7344 603.281 62.1562 603.062 60.625C602.875 59.0625 602.609 57.6562 602.266 56.4062C601.953 55.1562 601.562 54.25 601.094 53.6875C602.469 53.6875 603.984 53.3438 605.641 52.6562C607.297 51.9375 608.859 51.0625 610.328 50.0312C611.828 48.9688 613.125 47.8438 614.219 46.6562C615.312 45.4688 616 44.375 616.281 43.375C618 43.9688 620.031 44.3906 622.375 44.6406C624.719 44.8906 627.625 45.0156 631.094 45.0156C633.531 45.0156 635.547 44.875 637.141 44.5938C638.734 44.3125 640.031 43.9062 641.031 43.375C641.562 44.4688 642.438 45.4531 643.656 46.3281C644.906 47.2031 646.25 47.9531 647.688 48.5781C649.156 49.2031 650.609 49.7031 652.047 50.0781C653.516 50.4219 654.719 50.6094 655.656 50.6406C655.406 51.1719 655.172 51.75 654.953 52.375C654.766 53 654.594 53.7344 654.438 54.5781C654.312 55.4219 654.203 56.4219 654.109 57.5781C654.047 58.7031 654.016 60.0312 654.016 61.5625C654.016 62.625 654.031 63.6562 654.062 64.6562C654.125 65.6562 654.203 66.5781 654.297 67.4219C654.391 68.2656 654.484 69.0156 654.578 69.6719C654.703 70.2969 654.828 70.7656 654.953 71.0781C654.172 71.0156 653.125 70.9688 651.812 70.9375C650.5 70.875 649.062 70.8281 647.5 70.7969C645.938 70.7344 644.297 70.7031 642.578 70.7031C640.891 70.6719 639.281 70.6562 637.75 70.6562C635.938 70.6562 634.125 70.6719 632.312 70.7031C630.531 70.7031 628.688 70.7031 626.781 70.7031C625.188 70.7031 623.922 70.8438 622.984 71.125C622.047 71.4062 621.328 71.7969 620.828 72.2969C620.359 72.7656 620.047 73.3438 619.891 74.0312C619.766 74.7188 619.703 75.4688 619.703 76.2812C619.703 77.5 620 78.6094 620.594 79.6094C621.188 80.6094 622 81.4688 623.031 82.1875C624.062 82.875 625.281 83.4219 626.688 83.8281C628.094 84.2031 629.594 84.3906 631.188 84.3906C632.5 84.3906 633.547 84.2031 634.328 83.8281C635.109 83.4219 635.703 82.8906 636.109 82.2344C636.547 81.5781 636.828 80.8125 636.953 79.9375C637.078 79.0625 637.141 78.125 637.141 77.125C637.516 77.25 638.078 77.3594 638.828 77.4531C639.578 77.5469 640.391 77.625 641.266 77.6875C642.141 77.7188 643.016 77.75 643.891 77.7812C644.797 77.8125 645.578 77.8281 646.234 77.8281C646.891 77.8281 647.641 77.8125 648.484 77.7812C649.328 77.75 650.156 77.7188 650.969 77.6875C651.812 77.625 652.594 77.5469 653.312 77.4531C654.031 77.3594 654.609 77.25 655.047 77.125C654.984 77.4688 654.906 77.9375 654.812 78.5312C654.75 79.0938 654.688 79.7031 654.625 80.3594C654.594 81.0156 654.562 81.6719 654.531 82.3281C654.5 82.9844 654.484 83.5312 654.484 83.9688C654.484 85.5 654.531 86.7344 654.625 87.6719C654.75 88.5781 654.938 89.3906 655.188 90.1094H654.344C653.062 90.1094 651.75 90.2344 650.406 90.4844C649.062 90.7031 647.766 91.0156 646.516 91.4219C645.266 91.7969 644.094 92.25 643 92.7812C641.906 93.3125 640.969 93.875 640.188 94.4688C639.75 94.1875 639.141 93.9531 638.359 93.7656C637.609 93.5469 636.766 93.375 635.828 93.25C634.922 93.0938 633.953 92.9844 632.922 92.9219C631.922 92.8594 630.953 92.8281 630.016 92.8281C628.891 92.8281 627.719 92.875 626.5 92.9688C625.281 93.0625 624.109 93.2031 622.984 93.3906C621.891 93.5469 620.891 93.7188 619.984 93.9062C619.078 94.0938 618.375 94.2812 617.875 94.4688C617.594 93.6562 616.859 92.7656 615.672 91.7969C614.516 90.8281 613.156 89.9375 611.594 89.125C610.031 88.2812 608.375 87.5781 606.625 87.0156C604.875 86.4531 603.281 86.1719 601.844 86.1719C601.688 86.1719 601.547 86.1875 601.422 86.2188C601.297 86.2188 601.172 86.2188 601.047 86.2188ZM632.219 62.2188C633.469 62.2188 634.453 62.1719 635.172 62.0781C635.922 61.9844 636.484 61.7969 636.859 61.5156C637.266 61.2344 637.516 60.8594 637.609 60.3906C637.734 59.8906 637.797 59.2344 637.797 58.4219C637.797 56.9219 637.156 55.7031 635.875 54.7656C634.594 53.8281 632.594 53.3594 629.875 53.3594C628.188 53.3594 626.734 53.5 625.516 53.7812C624.297 54.0625 623.266 54.5469 622.422 55.2344C621.609 55.9219 620.984 56.8281 620.547 57.9531C620.109 59.0781 619.844 60.5 619.75 62.2188H632.219ZM703.938 94C704.125 93.2188 704.281 92.2812 704.406 91.1875C704.562 90.0625 704.641 88.9062 704.641 87.7188C704.641 86.625 704.562 85.5625 704.406 84.5312C704.25 83.4688 704.094 82.5625 703.938 81.8125C705.344 81.8125 706.578 81.7031 707.641 81.4844C708.703 81.2656 709.594 80.9062 710.312 80.4062C711.031 79.875 711.562 79.1719 711.906 78.2969C712.281 77.3906 712.469 76.2656 712.469 74.9219C712.469 72.2969 712.391 70.0469 712.234 68.1719C712.109 66.2969 711.906 64.75 711.625 63.5312C711.375 62.3125 711.047 61.3906 710.641 60.7656C710.234 60.1094 709.766 59.7031 709.234 59.5469C709.797 59.3594 710.281 59.0312 710.688 58.5625C711.094 58.0938 711.422 57.3438 711.672 56.3125C711.953 55.2812 712.156 53.9062 712.281 52.1875C712.406 50.4688 712.469 48.2656 712.469 45.5781C712.469 44.2344 712.281 43.125 711.906 42.25C711.562 41.3438 711.031 40.6406 710.312 40.1406C709.594 39.6094 708.703 39.2344 707.641 39.0156C706.578 38.7969 705.344 38.6875 703.938 38.6875C704.094 37.9375 704.25 37.0469 704.406 36.0156C704.562 34.9531 704.641 33.875 704.641 32.7812C704.641 31.5938 704.562 30.4531 704.406 29.3594C704.281 28.2344 704.125 27.2813 703.938 26.5C704.344 26.6562 705.141 26.8125 706.328 26.9688C707.516 27.125 708.906 27.2656 710.5 27.3906C712.125 27.4844 713.875 27.5781 715.75 27.6719C717.625 27.7656 719.469 27.8594 721.281 27.9531C723.094 28.0156 724.781 28.0625 726.344 28.0938C727.938 28.125 729.25 28.1406 730.281 28.1406C733 28.1406 735.75 28.125 738.531 28.0938C741.344 28.0313 743.953 27.9375 746.359 27.8125C748.766 27.6875 750.875 27.5156 752.688 27.2969C754.5 27.0781 755.781 26.8125 756.531 26.5C756.562 27.1562 756.844 27.8594 757.375 28.6094C757.938 29.3281 758.641 30.0625 759.484 30.8125C760.328 31.5312 761.297 32.2344 762.391 32.9219C763.484 33.6094 764.578 34.2344 765.672 34.7969C766.766 35.3281 767.828 35.7656 768.859 36.1094C769.922 36.4219 770.844 36.5938 771.625 36.625C771.469 37.5625 771.344 38.5156 771.25 39.4844C771.188 40.4531 771.156 41.4219 771.156 42.3906C771.156 44.4844 771.312 46.5156 771.625 48.4844C771.969 50.4219 772.406 52.1875 772.938 53.7812C773.5 55.3438 774.141 56.6406 774.859 57.6719C775.578 58.7031 776.344 59.3281 777.156 59.5469C776.312 59.7344 775.516 60.3281 774.766 61.3281C774.047 62.3281 773.406 63.625 772.844 65.2188C772.312 66.7812 771.891 68.5938 771.578 70.6562C771.297 72.7188 771.156 74.8906 771.156 77.1719C771.156 78.2656 771.188 79.375 771.25 80.5C771.344 81.625 771.469 82.75 771.625 83.875C770.812 83.9062 769.891 84.0781 768.859 84.3906C767.859 84.7031 766.812 85.125 765.719 85.6562C764.656 86.1562 763.594 86.7344 762.531 87.3906C761.5 88.0469 760.562 88.75 759.719 89.5C758.875 90.25 758.156 91.0156 757.562 91.7969C757 92.5469 756.656 93.2812 756.531 94C755.781 93.7812 754.5 93.5938 752.688 93.4375C750.875 93.2812 748.766 93.1562 746.359 93.0625C743.953 92.9688 741.344 92.9062 738.531 92.875C735.75 92.8438 733 92.8281 730.281 92.8281C729.25 92.8281 727.938 92.8438 726.344 92.875C724.781 92.875 723.094 92.9062 721.281 92.9688C719.469 93 717.625 93.0625 715.75 93.1562C713.875 93.2188 712.125 93.2969 710.5 93.3906C708.875 93.4531 707.469 93.5469 706.281 93.6719C705.125 93.7656 704.344 93.875 703.938 94ZM731.453 82.6562C732.766 83 734.172 83.2656 735.672 83.4531C737.203 83.6094 738.719 83.6875 740.219 83.6875C742.281 83.6875 744.172 83.2188 745.891 82.2812C747.641 81.3438 749.156 79.8594 750.438 77.8281C751.719 75.7969 752.719 73.1875 753.438 70C754.156 66.7812 754.516 62.9219 754.516 58.4219C754.516 51.5156 753.359 46.2656 751.047 42.6719C748.766 39.0781 745.312 37.2812 740.688 37.2812C740 37.2812 739.25 37.3125 738.438 37.375C737.625 37.4062 736.812 37.4844 736 37.6094C735.188 37.7031 734.375 37.8438 733.562 38.0312C732.781 38.1875 732.062 38.3906 731.406 38.6406C731.219 40.1406 731.078 42.2812 730.984 45.0625C730.922 47.8125 730.891 50.875 730.891 54.25C730.891 56.875 730.906 59.5781 730.938 62.3594C730.969 65.1094 731.016 67.7656 731.078 70.3281C731.141 72.8594 731.203 75.2031 731.266 77.3594C731.328 79.4844 731.391 81.25 731.453 82.6562ZM784.234 86.2188C784.859 85.4688 785.344 84.4219 785.688 83.0781C786.031 81.7344 786.281 80.2812 786.438 78.7188C786.625 77.125 786.734 75.5312 786.766 73.9375C786.828 72.3438 786.859 70.9375 786.859 69.7188C786.859 68.4375 786.812 66.9844 786.719 65.3594C786.625 63.7344 786.469 62.1562 786.25 60.625C786.062 59.0625 785.797 57.6562 785.453 56.4062C785.141 55.1562 784.75 54.25 784.281 53.6875C785.656 53.6875 787.172 53.3438 788.828 52.6562C790.484 51.9375 792.047 51.0625 793.516 50.0312C795.016 48.9688 796.312 47.8438 797.406 46.6562C798.5 45.4688 799.188 44.375 799.469 43.375C801.188 43.9688 803.219 44.3906 805.562 44.6406C807.906 44.8906 810.812 45.0156 814.281 45.0156C816.719 45.0156 818.734 44.875 820.328 44.5938C821.922 44.3125 823.219 43.9062 824.219 43.375C824.75 44.4688 825.625 45.4531 826.844 46.3281C828.094 47.2031 829.438 47.9531 830.875 48.5781C832.344 49.2031 833.797 49.7031 835.234 50.0781C836.703 50.4219 837.906 50.6094 838.844 50.6406C838.594 51.1719 838.359 51.75 838.141 52.375C837.953 53 837.781 53.7344 837.625 54.5781C837.5 55.4219 837.391 56.4219 837.297 57.5781C837.234 58.7031 837.203 60.0312 837.203 61.5625C837.203 62.625 837.219 63.6562 837.25 64.6562C837.312 65.6562 837.391 66.5781 837.484 67.4219C837.578 68.2656 837.672 69.0156 837.766 69.6719C837.891 70.2969 838.016 70.7656 838.141 71.0781C837.359 71.0156 836.312 70.9688 835 70.9375C833.688 70.875 832.25 70.8281 830.688 70.7969C829.125 70.7344 827.484 70.7031 825.766 70.7031C824.078 70.6719 822.469 70.6562 820.938 70.6562C819.125 70.6562 817.312 70.6719 815.5 70.7031C813.719 70.7031 811.875 70.7031 809.969 70.7031C808.375 70.7031 807.109 70.8438 806.172 71.125C805.234 71.4062 804.516 71.7969 804.016 72.2969C803.547 72.7656 803.234 73.3438 803.078 74.0312C802.953 74.7188 802.891 75.4688 802.891 76.2812C802.891 77.5 803.188 78.6094 803.781 79.6094C804.375 80.6094 805.188 81.4688 806.219 82.1875C807.25 82.875 808.469 83.4219 809.875 83.8281C811.281 84.2031 812.781 84.3906 814.375 84.3906C815.688 84.3906 816.734 84.2031 817.516 83.8281C818.297 83.4219 818.891 82.8906 819.297 82.2344C819.734 81.5781 820.016 80.8125 820.141 79.9375C820.266 79.0625 820.328 78.125 820.328 77.125C820.703 77.25 821.266 77.3594 822.016 77.4531C822.766 77.5469 823.578 77.625 824.453 77.6875C825.328 77.7188 826.203 77.75 827.078 77.7812C827.984 77.8125 828.766 77.8281 829.422 77.8281C830.078 77.8281 830.828 77.8125 831.672 77.7812C832.516 77.75 833.344 77.7188 834.156 77.6875C835 77.625 835.781 77.5469 836.5 77.4531C837.219 77.3594 837.797 77.25 838.234 77.125C838.172 77.4688 838.094 77.9375 838 78.5312C837.938 79.0938 837.875 79.7031 837.812 80.3594C837.781 81.0156 837.75 81.6719 837.719 82.3281C837.688 82.9844 837.672 83.5312 837.672 83.9688C837.672 85.5 837.719 86.7344 837.812 87.6719C837.938 88.5781 838.125 89.3906 838.375 90.1094H837.531C836.25 90.1094 834.938 90.2344 833.594 90.4844C832.25 90.7031 830.953 91.0156 829.703 91.4219C828.453 91.7969 827.281 92.25 826.188 92.7812C825.094 93.3125 824.156 93.875 823.375 94.4688C822.938 94.1875 822.328 93.9531 821.547 93.7656C820.797 93.5469 819.953 93.375 819.016 93.25C818.109 93.0938 817.141 92.9844 816.109 92.9219C815.109 92.8594 814.141 92.8281 813.203 92.8281C812.078 92.8281 810.906 92.875 809.688 92.9688C808.469 93.0625 807.297 93.2031 806.172 93.3906C805.078 93.5469 804.078 93.7188 803.172 93.9062C802.266 94.0938 801.562 94.2812 801.062 94.4688C800.781 93.6562 800.047 92.7656 798.859 91.7969C797.703 90.8281 796.344 89.9375 794.781 89.125C793.219 88.2812 791.562 87.5781 789.812 87.0156C788.062 86.4531 786.469 86.1719 785.031 86.1719C784.875 86.1719 784.734 86.1875 784.609 86.2188C784.484 86.2188 784.359 86.2188 784.234 86.2188ZM815.406 62.2188C816.656 62.2188 817.641 62.1719 818.359 62.0781C819.109 61.9844 819.672 61.7969 820.047 61.5156C820.453 61.2344 820.703 60.8594 820.797 60.3906C820.922 59.8906 820.984 59.2344 820.984 58.4219C820.984 56.9219 820.344 55.7031 819.062 54.7656C817.781 53.8281 815.781 53.3594 813.062 53.3594C811.375 53.3594 809.922 53.5 808.703 53.7812C807.484 54.0625 806.453 54.5469 805.609 55.2344C804.797 55.9219 804.172 56.8281 803.734 57.9531C803.297 59.0781 803.031 60.5 802.938 62.2188H815.406ZM852.391 84.3438C853.422 83.0938 854.109 81.5 854.453 79.5625C854.797 77.625 854.969 75.2969 854.969 72.5781V59.0312C854.938 58.4688 854.844 57.9688 854.688 57.5312C854.562 57.0625 854.328 56.6719 853.984 56.3594C853.672 56.0156 853.234 55.75 852.672 55.5625C852.109 55.375 851.406 55.2812 850.562 55.2812C850.094 55.2812 849.578 55.3125 849.016 55.375C848.484 55.4375 847.875 55.5312 847.188 55.6562C847.344 54.75 847.453 53.7656 847.516 52.7031C847.578 51.6406 847.609 50.5625 847.609 49.4688C847.609 48.4688 847.578 47.4844 847.516 46.5156C847.453 45.5469 847.344 44.6562 847.188 43.8438C847.5 44.0625 847.891 44.25 848.359 44.4062C848.828 44.5312 849.297 44.6406 849.766 44.7344C850.234 44.8281 850.672 44.9062 851.078 44.9688C851.484 45 851.797 45.0156 852.016 45.0156C852.922 45.0156 853.594 44.6719 854.031 43.9844C854.5 43.2656 854.734 42.0312 854.734 40.2812C854.734 40 854.719 39.6094 854.688 39.1094C854.688 38.6094 854.672 38.0938 854.641 37.5625C854.609 37.0312 854.547 36.5312 854.453 36.0625C854.391 35.5938 854.297 35.2344 854.172 34.9844C854.422 35.0469 854.672 35.0781 854.922 35.0781C855.172 35.0781 855.438 35.0781 855.719 35.0781C857.312 35.0781 858.984 34.8125 860.734 34.2812C862.516 33.75 864.234 33.1719 865.891 32.5469C867.578 31.9219 869.141 31.3437 870.578 30.8125C872.016 30.2813 873.203 30.0156 874.141 30.0156C873.891 30.7656 873.688 31.5938 873.531 32.5C873.375 33.4062 873.25 34.3125 873.156 35.2188C873.062 36.125 872.984 37.0156 872.922 37.8906C872.891 38.7344 872.875 39.4531 872.875 40.0469C872.875 41.0781 873 41.9219 873.25 42.5781C873.5 43.2031 873.938 43.7031 874.562 44.0781C875.219 44.4219 876.109 44.6719 877.234 44.8281C878.391 44.9531 879.859 45.0156 881.641 45.0156C882.391 45.0156 883.266 45.0156 884.266 45.0156C885.297 44.9844 886.359 44.9375 887.453 44.875C888.547 44.7812 889.625 44.6562 890.688 44.5C891.781 44.3438 892.781 44.125 893.688 43.8438C893.375 44.6562 893.156 45.6094 893.031 46.7031C892.906 47.7969 892.844 48.9219 892.844 50.0781C892.844 51.3906 892.906 52.6094 893.031 53.7344C893.156 54.8594 893.375 55.8594 893.688 56.7344C892.625 56.6406 891.453 56.5312 890.172 56.4062C888.922 56.2812 887.672 56.1719 886.422 56.0781C885.172 55.9531 884.016 55.8594 882.953 55.7969C881.891 55.7031 881.031 55.6562 880.375 55.6562C878.812 55.6562 877.516 55.7344 876.484 55.8906C875.484 56.0156 874.688 56.2344 874.094 56.5469C873.5 56.8281 873.078 57.2031 872.828 57.6719C872.609 58.1094 872.5 58.625 872.5 59.2188V71.7812C872.5 73 872.562 74.2969 872.688 75.6719C872.844 77.0156 873.109 78.2656 873.484 79.4219C873.859 80.5781 874.375 81.5469 875.031 82.3281C875.688 83.0781 876.531 83.4531 877.562 83.4531C878.688 83.4531 879.625 83.2344 880.375 82.7969C881.156 82.3281 881.781 81.6875 882.25 80.875C882.719 80.0625 883.047 79.1094 883.234 78.0156C883.453 76.8906 883.562 75.6562 883.562 74.3125C884.25 74.4688 885.172 74.625 886.328 74.7812C887.484 74.9375 888.672 75.0156 889.891 75.0156C891.078 75.0156 892.188 74.9375 893.219 74.7812C894.281 74.625 895.094 74.4688 895.656 74.3125C895.406 75 895.219 75.9688 895.094 77.2188C895 78.4375 894.953 79.75 894.953 81.1562C894.953 82.5625 895 83.875 895.094 85.0938C895.188 86.3125 895.375 87.2188 895.656 87.8125H895.188C894.031 87.8125 892.781 88 891.438 88.375C890.125 88.7188 888.859 89.1875 887.641 89.7812C886.422 90.375 885.297 91.0469 884.266 91.7969C883.266 92.5156 882.5 93.25 881.969 94C881.719 93.8125 881.234 93.6562 880.516 93.5312C879.828 93.375 879.016 93.25 878.078 93.1562C877.172 93.0312 876.203 92.9531 875.172 92.9219C874.141 92.8594 873.156 92.8281 872.219 92.8281C871.281 92.8281 870.297 92.8594 869.266 92.9219C868.266 92.9531 867.281 93.0312 866.312 93.1562C865.344 93.25 864.453 93.375 863.641 93.5312C862.859 93.6562 862.234 93.8125 861.766 94C861.484 92.9062 861.047 91.8438 860.453 90.8125C859.891 89.75 859.203 88.7812 858.391 87.9062C857.578 87.0312 856.656 86.2812 855.625 85.6562C854.625 85.0312 853.547 84.5938 852.391 84.3438ZM902.781 87.1094C903.188 86.3906 903.484 85.5625 903.672 84.625C903.859 83.6875 903.953 82.7344 903.953 81.7656C903.953 80.7656 903.844 79.7656 903.625 78.7656C903.406 77.7656 903.125 76.9531 902.781 76.3281C903.625 76.0469 904.375 75.5938 905.031 74.9688C905.719 74.3438 906.297 73.6406 906.766 72.8594C907.266 72.0781 907.672 71.2812 907.984 70.4688C908.297 69.6562 908.5 68.9062 908.594 68.2188C908.75 68.2812 908.922 68.3125 909.109 68.3125C909.297 68.3125 909.5 68.3125 909.719 68.3125C912.031 68.3125 914.828 68.0938 918.109 67.6562C921.391 67.2188 924.938 66.6406 928.75 65.9219C930.531 65.5781 932 65.1562 933.156 64.6562C934.312 64.1562 935.234 63.5938 935.922 62.9688C936.609 62.3125 937.078 61.6094 937.328 60.8594C937.609 60.1094 937.75 59.3125 937.75 58.4688C937.75 56.9375 937.359 55.7656 936.578 54.9531C935.828 54.1094 934.516 53.6875 932.641 53.6875C930.172 53.6875 928.344 54.3125 927.156 55.5625C926 56.7812 925.422 58.7969 925.422 61.6094C924.391 61.3594 923.141 61.1875 921.672 61.0938C920.203 60.9688 918.578 60.9062 916.797 60.9062C915.891 60.9062 914.969 60.9219 914.031 60.9531C913.125 60.9844 912.234 61.0312 911.359 61.0938C910.484 61.125 909.672 61.1875 908.922 61.2812C908.172 61.375 907.531 61.4844 907 61.6094C907.188 60.6406 907.344 59.5469 907.469 58.3281C907.625 57.1094 907.703 55.6875 907.703 54.0625C907.703 53.5312 907.688 53.0469 907.656 52.6094C907.656 52.1406 907.625 51.6875 907.562 51.25C907.531 50.8125 907.469 50.3594 907.375 49.8906C907.281 49.3906 907.156 48.8438 907 48.25C908.312 48.25 909.75 48.125 911.312 47.875C912.875 47.5938 914.391 47.2344 915.859 46.7969C917.359 46.3594 918.719 45.8438 919.938 45.25C921.156 44.6562 922.094 44.0312 922.75 43.375C923.312 43.6562 923.859 43.9062 924.391 44.125C924.922 44.3125 925.531 44.4844 926.219 44.6406C926.906 44.7656 927.703 44.8594 928.609 44.9219C929.516 44.9844 930.609 45.0156 931.891 45.0156C934.828 45.0156 937.328 44.875 939.391 44.5938C941.484 44.2812 942.984 43.875 943.891 43.375C944.391 44.3125 945.109 45.2031 946.047 46.0469C946.984 46.8906 948 47.625 949.094 48.25C950.219 48.8438 951.344 49.3281 952.469 49.7031C953.625 50.0469 954.672 50.2188 955.609 50.2188H956.031C955.75 50.9062 955.516 51.8594 955.328 53.0781C955.141 54.2969 954.984 55.6719 954.859 57.2031C954.734 58.7031 954.641 60.2969 954.578 61.9844C954.516 63.6719 954.453 65.3438 954.391 67C954.359 68.625 954.344 70.1562 954.344 71.5938C954.344 73.0312 954.344 74.25 954.344 75.25C954.344 76.5312 954.453 77.5781 954.672 78.3906C954.891 79.1719 955.312 79.7812 955.938 80.2188C956.594 80.6562 957.5 80.9531 958.656 81.1094C959.844 81.2656 961.375 81.3438 963.25 81.3438C963.125 81.7188 963 82.1875 962.875 82.75C962.781 83.2812 962.688 83.8594 962.594 84.4844C962.5 85.1094 962.422 85.7344 962.359 86.3594C962.328 86.9844 962.312 87.5625 962.312 88.0938C962.312 90.5312 962.625 92.5 963.25 94C962.5 93.6562 961.281 93.375 959.594 93.1562C957.906 92.9375 956.062 92.8281 954.062 92.8281C951.812 92.8281 949.812 92.9375 948.062 93.1562C946.344 93.375 944.984 93.6562 943.984 94C943.734 92.2812 943.25 90.9062 942.531 89.875C941.844 88.8438 941.141 88.0312 940.422 87.4375C939.328 87.7812 938.328 88.25 937.422 88.8438C936.516 89.4062 935.703 90.0312 934.984 90.7188C934.297 91.375 933.734 92.0469 933.297 92.7344C932.859 93.3906 932.578 93.9688 932.453 94.4688C931.734 94.2812 931.078 94.0938 930.484 93.9062C929.922 93.7188 929.344 93.5469 928.75 93.3906C928.156 93.2031 927.516 93.0625 926.828 92.9688C926.141 92.875 925.328 92.8281 924.391 92.8281C923.422 92.8281 922.391 92.875 921.297 92.9688C920.234 93.0625 919.172 93.2031 918.109 93.3906C917.047 93.5469 916.047 93.7188 915.109 93.9062C914.203 94.0938 913.422 94.2812 912.766 94.4688C912.234 93.5938 911.578 92.7344 910.797 91.8906C910.016 91.0156 909.172 90.2344 908.266 89.5469C907.391 88.8281 906.469 88.25 905.5 87.8125C904.562 87.375 903.656 87.1406 902.781 87.1094ZM922.938 78.3906C922.938 79.1406 923.094 79.8125 923.406 80.4062C923.719 80.9688 924.109 81.4531 924.578 81.8594C925.078 82.2344 925.625 82.5312 926.219 82.75C926.812 82.9375 927.391 83.0312 927.953 83.0312C928.984 83.0312 930.031 82.8281 931.094 82.4219C932.188 82.0156 933.188 81.375 934.094 80.5C935 79.5938 935.766 78.4219 936.391 76.9844C937.016 75.5469 937.391 73.7969 937.516 71.7344C934.828 71.7969 932.547 71.9844 930.672 72.2969C928.828 72.5781 927.328 73 926.172 73.5625C925.016 74.0938 924.188 74.7656 923.688 75.5781C923.188 76.3906 922.938 77.3281 922.938 78.3906ZM969.297 38.4531C969.484 38.1094 969.656 37.5938 969.812 36.9062C970 36.2188 970.141 35.4219 970.234 34.5156C970.359 33.6094 970.453 32.6406 970.516 31.6094C970.609 30.5469 970.656 29.4687 970.656 28.375C970.656 27.375 970.609 26.4062 970.516 25.4688C970.453 24.5 970.359 23.6094 970.234 22.7969C970.109 21.9531 969.953 21.2031 969.766 20.5469C969.609 19.8906 969.438 19.375 969.25 19C969.812 19.1875 970.547 19.375 971.453 19.5625C972.391 19.7187 973.422 19.8594 974.547 19.9844C975.703 20.1094 976.906 20.2188 978.156 20.3125C979.438 20.375 980.688 20.4062 981.906 20.4062C983.031 20.4062 984.25 20.3906 985.562 20.3594C986.906 20.2969 988.188 20.2031 989.406 20.0781C990.656 19.9531 991.781 19.8125 992.781 19.6562C993.781 19.4688 994.531 19.25 995.031 19C994.844 19.4063 994.672 19.9375 994.516 20.5938C994.391 21.25 994.266 22 994.141 22.8438C994.047 23.6562 993.969 24.5469 993.906 25.5156C993.875 26.4531 993.859 27.4062 993.859 28.375C993.859 29.375 993.875 30.3594 993.906 31.3281C993.969 32.2969 994.047 33.2344 994.141 34.1406C994.266 35.0156 994.391 35.8281 994.516 36.5781C994.672 37.3281 994.844 37.9531 995.031 38.4531C994.531 38.2969 993.797 38.1719 992.828 38.0781C991.891 37.9531 990.812 37.8594 989.594 37.7969C988.406 37.7031 987.156 37.6406 985.844 37.6094C984.531 37.5469 983.266 37.5156 982.047 37.5156C980.828 37.5156 979.578 37.5469 978.297 37.6094C977.016 37.6406 975.781 37.7031 974.594 37.7969C973.438 37.8594 972.391 37.9531 971.453 38.0781C970.516 38.1719 969.797 38.2969 969.297 38.4531ZM965.547 94C965.797 93.1875 965.969 92.2188 966.062 91.0938C966.156 89.9688 966.203 88.8594 966.203 87.7656C966.203 86.7656 966.141 85.7656 966.016 84.7656C965.891 83.7656 965.734 82.7812 965.547 81.8125C967.297 81.8125 968.828 81.7344 970.141 81.5781C971.484 81.4219 972.594 81.1562 973.469 80.7812C974.375 80.375 975.047 79.8125 975.484 79.0938C975.953 78.375 976.188 77.4531 976.188 76.3281V63.2969C976.156 61.9531 975.906 60.8906 975.438 60.1094C975 59.2969 974.406 58.6875 973.656 58.2812C972.906 57.8438 972.031 57.5625 971.031 57.4375C970.062 57.2812 969.031 57.2031 967.938 57.2031H966.438C966.688 56.5781 966.906 55.7188 967.094 54.625C967.281 53.5 967.375 52.3281 967.375 51.1094C967.375 49.9219 967.281 48.7812 967.094 47.6875C966.938 46.5625 966.719 45.6719 966.438 45.0156C969.094 45.1406 971.562 45.2344 973.844 45.2969C976.156 45.3594 978.328 45.3906 980.359 45.3906C984.141 45.3906 987.406 45.25 990.156 44.9688C992.906 44.6562 995.266 44.125 997.234 43.375C996.609 44.5938 996.062 45.7656 995.594 46.8906C995.125 47.9844 994.719 49.1562 994.375 50.4062C994.062 51.625 993.812 52.9688 993.625 54.4375C993.469 55.9062 993.391 57.5938 993.391 59.5L993.344 76.3281C993.344 77.4531 993.578 78.375 994.047 79.0938C994.547 79.8125 995.219 80.375 996.062 80.7812C996.906 81.1562 997.906 81.4219 999.062 81.5781C1000.22 81.7344 1001.47 81.8125 1002.81 81.8125C1002.62 82.4688 1002.47 83.2812 1002.34 84.25C1002.25 85.2188 1002.2 86.25 1002.2 87.3438C1002.2 88.5312 1002.23 89.7344 1002.3 90.9531C1002.39 92.1406 1002.56 93.1562 1002.81 94C1001.97 93.8438 1000.81 93.7031 999.344 93.5781C997.875 93.4219 996.266 93.2969 994.516 93.2031C992.797 93.0781 990.984 92.9844 989.078 92.9219C987.203 92.8594 985.422 92.8281 983.734 92.8281C982.234 92.8281 980.594 92.8594 978.812 92.9219C977.062 92.9531 975.328 93.0312 973.609 93.1562C971.922 93.25 970.359 93.375 968.922 93.5312C967.484 93.6562 966.359 93.8125 965.547 94ZM1007.5 94C1007.75 93.1875 1007.92 92.2188 1008.02 91.0938C1008.11 89.9688 1008.16 88.8594 1008.16 87.7656C1008.16 86.7656 1008.09 85.7656 1007.97 84.7656C1007.84 83.7656 1007.69 82.7812 1007.5 81.8125C1009.25 81.8125 1010.69 81.7344 1011.81 81.5781C1012.97 81.4219 1013.88 81.1562 1014.53 80.7812C1015.19 80.375 1015.64 79.8125 1015.89 79.0938C1016.14 78.375 1016.27 77.4531 1016.27 76.3281V68.4531C1016.27 67.4531 1016.2 66.4531 1016.08 65.4531C1015.98 64.4531 1015.81 63.5469 1015.56 62.7344C1015.31 61.9219 1014.97 61.2344 1014.53 60.6719C1014.12 60.0781 1013.62 59.7031 1013.03 59.5469C1013.69 59.3594 1014.22 59.1094 1014.62 58.7969C1015.06 58.4531 1015.39 58 1015.61 57.4375C1015.86 56.875 1016.03 56.1719 1016.12 55.3281C1016.22 54.4531 1016.27 53.3906 1016.27 52.1406V37.2812C1016.23 35.9375 1016.06 34.875 1015.75 34.0938C1015.44 33.2812 1015 32.6719 1014.44 32.2656C1013.91 31.8281 1013.23 31.5469 1012.42 31.4219C1011.64 31.2656 1010.75 31.1875 1009.75 31.1875H1008.3C1008.55 30.5625 1008.77 29.7031 1008.95 28.6094C1009.14 27.4844 1009.23 26.3125 1009.23 25.0938C1009.23 23.9063 1009.14 22.7656 1008.95 21.6719C1008.8 20.5469 1008.58 19.6562 1008.3 19C1008.89 19.0938 1009.61 19.1719 1010.45 19.2344C1011.3 19.2969 1012.22 19.3594 1013.22 19.4219C1014.22 19.4531 1015.28 19.4844 1016.41 19.5156C1017.53 19.5469 1018.69 19.5625 1019.88 19.5625C1021.47 19.5625 1023.08 19.5312 1024.7 19.4688C1026.33 19.4063 1027.88 19.3125 1029.34 19.1875C1030.84 19.0625 1032.22 18.8906 1033.47 18.6719C1034.75 18.4531 1035.81 18.1719 1036.66 17.8281C1036 19.0469 1035.48 20.4062 1035.11 21.9062C1034.73 23.4062 1034.44 25 1034.22 26.6875C1034 28.375 1033.86 30.1406 1033.8 31.9844C1033.73 33.8281 1033.7 35.7031 1033.7 37.6094L1033.66 52.2344C1033.66 53.4844 1033.7 54.5469 1033.8 55.4219C1033.92 56.2656 1034.11 56.9688 1034.36 57.5312C1034.61 58.0938 1034.94 58.5312 1035.34 58.8438C1035.75 59.1562 1036.27 59.3906 1036.89 59.5469C1036.23 59.7344 1035.69 60.125 1035.25 60.7188C1034.84 61.2812 1034.52 61.9688 1034.27 62.7812C1034.05 63.5938 1033.89 64.5 1033.8 65.5C1033.7 66.4688 1033.66 67.4531 1033.66 68.4531V76.3281C1033.66 77.4531 1033.86 78.375 1034.27 79.0938C1034.67 79.8125 1035.25 80.375 1036 80.7812C1036.78 81.1562 1037.7 81.4219 1038.77 81.5781C1039.86 81.7344 1041.08 81.8125 1042.42 81.8125C1042.23 82.4688 1042.08 83.2812 1041.95 84.25C1041.86 85.2188 1041.81 86.25 1041.81 87.3438C1041.81 88.5312 1041.84 89.7344 1041.91 90.9531C1042 92.1406 1042.17 93.1562 1042.42 94C1041.58 93.8438 1040.44 93.7031 1039 93.5781C1037.59 93.4219 1036.05 93.2969 1034.36 93.2031C1032.67 93.0781 1030.91 92.9844 1029.06 92.9219C1027.25 92.8594 1025.5 92.8281 1023.81 92.8281C1022.31 92.8281 1020.77 92.8594 1019.17 92.9219C1017.61 92.9531 1016.09 93.0312 1014.62 93.1562C1013.19 93.25 1011.84 93.375 1010.59 93.5312C1009.34 93.6562 1008.31 93.8125 1007.5 94ZM1048.98 92.9688C1049.23 92.3125 1049.42 91.3281 1049.55 90.0156C1049.7 88.6719 1049.78 87.1875 1049.78 85.5625C1049.78 84.25 1049.7 82.9219 1049.55 81.5781C1049.39 80.2344 1049.2 79.1406 1048.98 78.2969C1049.36 78.4844 1049.89 78.6562 1050.58 78.8125C1051.3 78.9375 1052.08 79.0625 1052.92 79.1875C1053.8 79.2812 1054.7 79.3594 1055.64 79.4219C1056.61 79.4531 1057.53 79.4688 1058.41 79.4688C1060.09 79.4688 1061.66 79.375 1063.09 79.1875C1064.56 78.9688 1065.73 78.6719 1066.61 78.2969C1066.61 79.2031 1066.73 80.0625 1066.98 80.875C1067.27 81.6562 1067.69 82.3594 1068.25 82.9844C1068.84 83.5781 1069.59 84.0625 1070.5 84.4375C1071.44 84.7812 1072.55 84.9531 1073.83 84.9531C1075.52 84.9531 1076.86 84.625 1077.86 83.9688C1078.89 83.3125 1079.41 82.2344 1079.41 80.7344C1079.41 79.5469 1079 78.5156 1078.19 77.6406C1077.41 76.7656 1076.3 76.0469 1074.86 75.4844C1073.45 74.8906 1071.77 74.4531 1069.8 74.1719C1067.83 73.8906 1065.69 73.75 1063.38 73.75C1062.66 73.75 1061.86 73.7656 1060.98 73.7969C1060.14 73.7969 1059.31 73.8281 1058.5 73.8906C1057.69 73.9531 1056.94 74.0469 1056.25 74.1719C1055.59 74.2656 1055.11 74.3906 1054.8 74.5469C1054.8 73.7344 1054.5 72.875 1053.91 71.9688C1053.34 71.0625 1052.66 70.2188 1051.84 69.4375C1051.03 68.6562 1050.17 67.9844 1049.27 67.4219C1048.39 66.8594 1047.64 66.5156 1047.02 66.3906C1047.27 66.1094 1047.48 65.7188 1047.67 65.2188C1047.86 64.7188 1048.02 64.1562 1048.14 63.5312C1048.27 62.875 1048.36 62.2031 1048.42 61.5156C1048.48 60.7969 1048.52 60.1094 1048.52 59.4531C1048.52 58.0469 1048.39 56.6719 1048.14 55.3281C1047.92 53.9531 1047.55 52.8594 1047.02 52.0469C1048.14 51.8281 1049.27 51.4531 1050.39 50.9219C1051.52 50.3594 1052.56 49.7031 1053.53 48.9531C1054.53 48.1719 1055.41 47.3125 1056.16 46.375C1056.94 45.4062 1057.52 44.4062 1057.89 43.375C1058.2 43.5625 1058.83 43.75 1059.77 43.9375C1060.7 44.125 1061.81 44.2969 1063.09 44.4531C1064.38 44.6094 1065.75 44.7344 1067.22 44.8281C1068.69 44.9219 1070.11 44.9688 1071.48 44.9688C1074.02 44.9688 1076.03 44.75 1077.53 44.3125C1079.03 43.875 1079.98 43.25 1080.39 42.4375C1080.83 43.0312 1081.48 43.5625 1082.36 44.0312C1083.27 44.4688 1084.25 44.8438 1085.31 45.1562C1086.41 45.4375 1087.53 45.6562 1088.69 45.8125C1089.84 45.9375 1090.94 46 1091.97 46C1092.59 46 1093.16 45.9688 1093.66 45.9062C1094.19 45.8438 1094.66 45.7656 1095.06 45.6719C1094.97 46.3281 1094.88 46.9375 1094.78 47.5C1094.72 48.0312 1094.66 48.5625 1094.59 49.0938C1094.56 49.5938 1094.53 50.1094 1094.5 50.6406C1094.47 51.1719 1094.45 51.75 1094.45 52.375C1094.45 53.5625 1094.48 54.7344 1094.55 55.8906C1094.64 57.0469 1094.81 58.0781 1095.06 58.9844C1094.53 58.6406 1093.62 58.4062 1092.34 58.2812C1091.09 58.125 1089.67 58.0469 1088.08 58.0469C1087.2 58.0469 1086.3 58.0781 1085.36 58.1406C1084.45 58.1719 1083.59 58.2344 1082.78 58.3281C1082 58.3906 1081.3 58.4844 1080.67 58.6094C1080.08 58.7031 1079.66 58.8281 1079.41 58.9844C1079.41 56.9219 1078.69 55.3125 1077.25 54.1562C1075.81 52.9688 1073.91 52.375 1071.53 52.375C1069.56 52.375 1068.17 52.7344 1067.36 53.4531C1066.58 54.1406 1066.19 55.0156 1066.19 56.0781C1066.19 57.1094 1066.7 58.0938 1067.73 59.0312C1068.8 59.9688 1070.19 60.7969 1071.91 61.5156C1073.62 62.2031 1075.56 62.75 1077.72 63.1562C1079.88 63.5625 1082.08 63.7656 1084.33 63.7656C1084.89 63.7656 1085.45 63.75 1086.02 63.7188C1086.61 63.6875 1087.17 63.6406 1087.7 63.5781C1088.23 63.5156 1088.72 63.4375 1089.16 63.3438C1089.62 63.2188 1090 63.0781 1090.28 62.9219C1090.38 63.8594 1090.72 64.7812 1091.31 65.6875C1091.94 66.5938 1092.66 67.4375 1093.47 68.2188C1094.31 69 1095.16 69.6875 1096 70.2812C1096.88 70.8438 1097.62 71.25 1098.25 71.5C1097.84 72.125 1097.52 73.0781 1097.27 74.3594C1097.05 75.6094 1096.94 76.9531 1096.94 78.3906C1096.94 79.7031 1097.03 80.9688 1097.22 82.1875C1097.41 83.375 1097.75 84.3125 1098.25 85C1097.12 85.3125 1096.02 85.7344 1094.92 86.2656C1093.86 86.7969 1092.86 87.4219 1091.92 88.1406C1090.98 88.8594 1090.12 89.6719 1089.34 90.5781C1088.59 91.4531 1087.98 92.4062 1087.52 93.4375C1086.27 93 1084.52 92.625 1082.27 92.3125C1080.02 92 1077.42 91.8438 1074.48 91.8438C1073.17 91.8438 1072.05 91.8906 1071.11 91.9844C1070.17 92.0781 1069.38 92.2188 1068.72 92.4062C1068.06 92.5625 1067.52 92.7656 1067.08 93.0156C1066.64 93.2656 1066.28 93.5625 1066 93.9062C1065.53 93.625 1064.94 93.3906 1064.22 93.2031C1063.53 92.9844 1062.75 92.8125 1061.88 92.6875C1061.03 92.5625 1060.14 92.4688 1059.2 92.4062C1058.3 92.3438 1057.41 92.3125 1056.53 92.3125C1054.94 92.3125 1053.48 92.3438 1052.17 92.4062C1050.86 92.4688 1049.8 92.6562 1048.98 92.9688Z" fill="#C6B8B8"/>
</g>
<defs>
<filter id="filter0_f_50_2" x="0" y="94" width="1417" height="195" filterUnits="userSpaceOnUse" color-interpolation-filters="sRGB">
<feFlood flood-opacity="0" result="BackgroundImageFix"/>
<feBlend mode="normal" in="SourceGraphic" in2="BackgroundImageFix" result="shape"/>
<feGaussianBlur stdDeviation="12.5" result="effect1_foregroundBlur_50_2"/>
</filter>
<filter id="filter1_i_50_2" x="321.016" y="17.8281" width="777.234" height="80.6406" filterUnits="userSpaceOnUse" color-interpolation-filters="sRGB">
<feFlood flood-opacity="0" result="BackgroundImageFix"/>
<feBlend mode="normal" in="SourceGraphic" in2="BackgroundImageFix" result="shape"/>
<feColorMatrix in="SourceAlpha" type="matrix" values="0 0 0 0 0 0 0 0 0 0 0 0 0 0 0 0 0 0 127 0" result="hardAlpha"/>
<feOffset dy="4"/>
<feGaussianBlur stdDeviation="2"/>
<feComposite in2="hardAlpha" operator="arithmetic" k2="-1" k3="1"/>
<feColorMatrix type="matrix" values="0 0 0 0 0 0 0 0 0 0 0 0 0 0 0 0 0 0 0.25 0"/>
<feBlend mode="normal" in2="shape" result="effect1_innerShadow_50_2"/>
</filter>
<radialGradient id="paint0_radial_50_2" cx="0" cy="0" r="1" gradientUnits="userSpaceOnUse" gradientTransform="translate(708.5 191.5) scale(683.5 72.5)">
<stop offset="0.15"/>
<stop offset="0.491667" stop-color="#100303"/>
<stop offset="1" stop-color="#450C0C"/>
</radialGradient>
</defs>
</svg>
