<svg width="1417" height="299" viewBox="0 0 1417 299" fill="none" xmlns="http://www.w3.org/2000/svg">
<g filter="url(#filter0_f_20_2)">
<ellipse cx="708.5" cy="201.5" rx="683.5" ry="72.5" fill="url(#paint0_radial_20_2)"/>
<path d="M1391.5 201.5C1391.5 203.831 1390.39 206.187 1388.11 208.567C1385.83 210.949 1382.41 213.321 1377.88 215.667C1368.83 220.36 1355.45 224.902 1338.17 229.235C1303.61 237.901 1253.59 245.709 1191.75 252.268C1068.09 265.386 897.231 273.5 708.5 273.5C519.769 273.5 348.912 265.386 225.245 252.268C163.409 245.709 113.388 237.901 78.8344 229.235C61.5538 224.902 48.1698 220.36 39.1164 215.667C34.5889 213.321 31.1705 210.949 28.89 208.567C26.6113 206.187 25.5 203.831 25.5 201.5C25.5 199.169 26.6113 196.813 28.89 194.433C31.1705 192.051 34.5889 189.679 39.1164 187.333C48.1698 182.64 61.5538 178.098 78.8344 173.765C113.388 165.099 163.409 157.291 225.245 150.732C348.912 137.614 519.769 129.5 708.5 129.5C897.231 129.5 1068.09 137.614 1191.75 150.732C1253.59 157.291 1303.61 165.099 1338.17 173.765C1355.45 178.098 1368.83 182.64 1377.88 187.333C1382.41 189.679 1385.83 192.051 1388.11 194.433C1390.39 196.813 1391.5 199.169 1391.5 201.5Z" stroke="black"/>
</g>
<g filter="url(#filter1_i_20_2)">
<path d="M249.688 94C249.875 93.2188 250.031 92.2812 250.156 91.1875C250.312 90.0625 250.391 88.9062 250.391 87.7188C250.391 86.625 250.312 85.5625 250.156 84.5312C250 83.4688 249.844 82.5625 249.688 81.8125C251.094 81.8125 252.328 81.7031 253.391 81.4844C254.453 81.2656 255.344 80.9062 256.062 80.4062C256.781 79.875 257.312 79.1719 257.656 78.2969C258.031 77.3906 258.219 76.2656 258.219 74.9219C258.219 72.2969 258.141 70.0469 257.984 68.1719C257.859 66.2969 257.656 64.75 257.375 63.5312C257.125 62.3125 256.797 61.3906 256.391 60.7656C255.984 60.1094 255.516 59.7031 254.984 59.5469C255.547 59.3594 256.031 59.0625 256.438 58.6562C256.844 58.25 257.172 57.5625 257.422 56.5938C257.703 55.5938 257.906 54.2344 258.031 52.5156C258.156 50.7656 258.219 48.4531 258.219 45.5781C258.219 44.2344 258.031 43.125 257.656 42.25C257.312 41.3438 256.781 40.6406 256.062 40.1406C255.344 39.6094 254.453 39.2344 253.391 39.0156C252.328 38.7969 251.094 38.6875 249.688 38.6875C249.844 37.9375 250 37.0469 250.156 36.0156C250.312 34.9531 250.391 33.875 250.391 32.7812C250.391 31.5938 250.312 30.4531 250.156 29.3594C250.031 28.2344 249.875 27.2813 249.688 26.5C250.094 26.6562 250.891 26.8125 252.078 26.9688C253.266 27.125 254.656 27.2656 256.25 27.3906C257.875 27.4844 259.625 27.5781 261.5 27.6719C263.375 27.7656 265.219 27.8594 267.031 27.9531C268.844 28.0156 270.531 28.0625 272.094 28.0938C273.688 28.125 275 28.1406 276.031 28.1406C279 28.1406 282 28.125 285.031 28.0938C288.094 28.0313 290.938 27.9375 293.562 27.8125C296.219 27.6875 298.531 27.5156 300.5 27.2969C302.469 27.0781 303.859 26.8125 304.672 26.5C304.703 27.125 304.922 27.7969 305.328 28.5156C305.766 29.2031 306.312 29.9063 306.969 30.625C307.656 31.3125 308.422 31.9844 309.266 32.6406C310.109 33.2969 310.953 33.875 311.797 34.375C312.672 34.875 313.516 35.2812 314.328 35.5938C315.141 35.9062 315.859 36.0781 316.484 36.1094C316.266 36.5469 316.062 37.1875 315.875 38.0312C315.719 38.875 315.578 39.8125 315.453 40.8438C315.328 41.875 315.234 42.9688 315.172 44.125C315.109 45.25 315.078 46.3281 315.078 47.3594C315.078 48.5469 315.094 49.7188 315.125 50.875C315.188 52 315.266 53.0625 315.359 54.0625C315.453 55.0625 315.594 55.9844 315.781 56.8281C315.969 57.6406 316.203 58.3125 316.484 58.8438C315.391 59.0312 314.25 59.3281 313.062 59.7344C311.875 60.1406 310.703 60.6406 309.547 61.2344C308.391 61.7969 307.297 62.4375 306.266 63.1562C305.234 63.875 304.344 64.6406 303.594 65.4531C304.062 66.1094 304.609 66.7188 305.234 67.2812C305.891 67.8438 306.562 68.3281 307.25 68.7344C307.938 69.1094 308.641 69.4062 309.359 69.625C310.078 69.8438 310.75 69.9531 311.375 69.9531C311.375 71.8281 311.656 73.5 312.219 74.9688C312.812 76.4375 313.641 77.6875 314.703 78.7188C315.766 79.7188 317.062 80.4844 318.594 81.0156C320.125 81.5469 321.859 81.8125 323.797 81.8125C323.516 82.5625 323.328 83.4688 323.234 84.5312C323.141 85.5625 323.094 86.625 323.094 87.7188C323.094 88.9062 323.156 90.0625 323.281 91.1875C323.406 92.2812 323.609 93.2188 323.891 94C323.578 93.875 322.969 93.75 322.062 93.625C321.156 93.4688 320.109 93.3438 318.922 93.25C317.766 93.125 316.562 93.0312 315.312 92.9688C314.062 92.875 312.938 92.8281 311.938 92.8281C310.75 92.8281 309.438 92.8438 308 92.875C306.562 92.9062 305.156 92.9688 303.781 93.0625C302.406 93.125 301.141 93.2344 299.984 93.3906C298.859 93.5469 298 93.75 297.406 94C297.469 93.375 297.516 92.7656 297.547 92.1719C297.578 91.5469 297.594 90.9375 297.594 90.3438C297.594 89.0625 297.5 87.8438 297.312 86.6875C297.125 85.5 296.812 84.4219 296.375 83.4531C295.938 82.4531 295.375 81.5938 294.688 80.875C294 80.125 293.156 79.5469 292.156 79.1406C292.438 78.6094 292.688 77.8906 292.906 76.9844C293.125 76.0781 293.234 74.8125 293.234 73.1875C293.234 72.3125 293.094 71.4844 292.812 70.7031C292.531 69.9219 292.031 69.25 291.312 68.6875C290.625 68.125 289.703 67.6875 288.547 67.375C287.391 67.0312 285.938 66.8594 284.188 66.8594C283.438 66.8594 282.531 66.8906 281.469 66.9531C280.406 67.0156 279.281 67.125 278.094 67.2812C277.75 68.125 277.484 69.1406 277.297 70.3281C277.109 71.4844 277.016 73.0156 277.016 74.9219C277.016 76.2656 277.156 77.3906 277.438 78.2969C277.75 79.1719 278.25 79.875 278.938 80.4062C279.625 80.9062 280.5 81.2656 281.562 81.4844C282.656 81.7031 283.984 81.8125 285.547 81.8125C285.391 82.5625 285.234 83.4688 285.078 84.5312C284.922 85.5625 284.844 86.625 284.844 87.7188C284.844 88.9062 284.906 90.0625 285.031 91.1875C285.188 92.2812 285.359 93.2188 285.547 94C284.641 93.8125 283.5 93.6562 282.125 93.5312C280.75 93.375 279.25 93.25 277.625 93.1562C276 93.0312 274.328 92.9531 272.609 92.9219C270.891 92.8594 269.234 92.8281 267.641 92.8281C266.047 92.8281 264.375 92.8594 262.625 92.9219C260.906 92.9531 259.234 93.0312 257.609 93.1562C255.984 93.25 254.469 93.375 253.062 93.5312C251.688 93.6562 250.562 93.8125 249.688 94ZM277.109 56.5938C278.422 56.9688 279.797 57.25 281.234 57.4375C282.703 57.5938 284.297 57.6719 286.016 57.6719C287.703 57.6719 289.203 57.4219 290.516 56.9219C291.859 56.3906 292.984 55.6719 293.891 54.7656C294.797 53.8594 295.484 52.7969 295.953 51.5781C296.422 50.3281 296.656 49 296.656 47.5938C296.656 46.2812 296.469 45 296.094 43.75C295.75 42.5 295.172 41.4062 294.359 40.4688C293.578 39.5 292.531 38.7344 291.219 38.1719C289.938 37.5781 288.359 37.2812 286.484 37.2812C284.859 37.2812 283.203 37.3906 281.516 37.6094C279.859 37.8281 278.375 38.2031 277.062 38.7344C276.906 39.7344 276.797 40.8438 276.734 42.0625C276.672 43.25 276.641 44.5 276.641 45.8125C276.641 47.75 276.688 49.6719 276.781 51.5781C276.875 53.4531 276.984 55.125 277.109 56.5938ZM329.984 86.2188C330.609 85.4688 331.094 84.4219 331.438 83.0781C331.781 81.7344 332.031 80.2812 332.188 78.7188C332.375 77.125 332.484 75.5312 332.516 73.9375C332.578 72.3438 332.609 70.9375 332.609 69.7188C332.609 68.4375 332.562 66.9844 332.469 65.3594C332.375 63.7344 332.219 62.1562 332 60.625C331.812 59.0625 331.547 57.6562 331.203 56.4062C330.891 55.1562 330.5 54.25 330.031 53.6875C331.406 53.6875 332.922 53.3438 334.578 52.6562C336.234 51.9375 337.797 51.0625 339.266 50.0312C340.766 48.9688 342.062 47.8438 343.156 46.6562C344.25 45.4688 344.938 44.375 345.219 43.375C346.938 43.9688 348.969 44.3906 351.312 44.6406C353.656 44.8906 356.562 45.0156 360.031 45.0156C362.469 45.0156 364.484 44.875 366.078 44.5938C367.672 44.3125 368.969 43.9062 369.969 43.375C370.5 44.4688 371.375 45.4531 372.594 46.3281C373.844 47.2031 375.188 47.9531 376.625 48.5781C378.094 49.2031 379.547 49.7031 380.984 50.0781C382.453 50.4219 383.656 50.6094 384.594 50.6406C384.344 51.1719 384.109 51.75 383.891 52.375C383.703 53 383.531 53.7344 383.375 54.5781C383.25 55.4219 383.141 56.4219 383.047 57.5781C382.984 58.7031 382.953 60.0312 382.953 61.5625C382.953 62.625 382.969 63.6562 383 64.6562C383.062 65.6562 383.141 66.5781 383.234 67.4219C383.328 68.2656 383.422 69.0156 383.516 69.6719C383.641 70.2969 383.766 70.7656 383.891 71.0781C383.109 71.0156 382.062 70.9688 380.75 70.9375C379.438 70.875 378 70.8281 376.438 70.7969C374.875 70.7344 373.234 70.7031 371.516 70.7031C369.828 70.6719 368.219 70.6562 366.688 70.6562C364.875 70.6562 363.062 70.6719 361.25 70.7031C359.469 70.7031 357.625 70.7031 355.719 70.7031C354.125 70.7031 352.859 70.8438 351.922 71.125C350.984 71.4062 350.266 71.7969 349.766 72.2969C349.297 72.7656 348.984 73.3438 348.828 74.0312C348.703 74.7188 348.641 75.4688 348.641 76.2812C348.641 77.5 348.938 78.6094 349.531 79.6094C350.125 80.6094 350.938 81.4688 351.969 82.1875C353 82.875 354.219 83.4219 355.625 83.8281C357.031 84.2031 358.531 84.3906 360.125 84.3906C361.438 84.3906 362.484 84.2031 363.266 83.8281C364.047 83.4219 364.641 82.8906 365.047 82.2344C365.484 81.5781 365.766 80.8125 365.891 79.9375C366.016 79.0625 366.078 78.125 366.078 77.125C366.453 77.25 367.016 77.3594 367.766 77.4531C368.516 77.5469 369.328 77.625 370.203 77.6875C371.078 77.7188 371.953 77.75 372.828 77.7812C373.734 77.8125 374.516 77.8281 375.172 77.8281C375.828 77.8281 376.578 77.8125 377.422 77.7812C378.266 77.75 379.094 77.7188 379.906 77.6875C380.75 77.625 381.531 77.5469 382.25 77.4531C382.969 77.3594 383.547 77.25 383.984 77.125C383.922 77.4688 383.844 77.9375 383.75 78.5312C383.688 79.0938 383.625 79.7031 383.562 80.3594C383.531 81.0156 383.5 81.6719 383.469 82.3281C383.438 82.9844 383.422 83.5312 383.422 83.9688C383.422 85.5 383.469 86.7344 383.562 87.6719C383.688 88.5781 383.875 89.3906 384.125 90.1094H383.281C382 90.1094 380.688 90.2344 379.344 90.4844C378 90.7031 376.703 91.0156 375.453 91.4219C374.203 91.7969 373.031 92.25 371.938 92.7812C370.844 93.3125 369.906 93.875 369.125 94.4688C368.688 94.1875 368.078 93.9531 367.297 93.7656C366.547 93.5469 365.703 93.375 364.766 93.25C363.859 93.0938 362.891 92.9844 361.859 92.9219C360.859 92.8594 359.891 92.8281 358.953 92.8281C357.828 92.8281 356.656 92.875 355.438 92.9688C354.219 93.0625 353.047 93.2031 351.922 93.3906C350.828 93.5469 349.828 93.7188 348.922 93.9062C348.016 94.0938 347.312 94.2812 346.812 94.4688C346.531 93.6562 345.797 92.7656 344.609 91.7969C343.453 90.8281 342.094 89.9375 340.531 89.125C338.969 88.2812 337.312 87.5781 335.562 87.0156C333.812 86.4531 332.219 86.1719 330.781 86.1719C330.625 86.1719 330.484 86.1875 330.359 86.2188C330.234 86.2188 330.109 86.2188 329.984 86.2188ZM361.156 62.2188C362.406 62.2188 363.391 62.1719 364.109 62.0781C364.859 61.9844 365.422 61.7969 365.797 61.5156C366.203 61.2344 366.453 60.8594 366.547 60.3906C366.672 59.8906 366.734 59.2344 366.734 58.4219C366.734 56.9219 366.094 55.7031 364.812 54.7656C363.531 53.8281 361.531 53.3594 358.812 53.3594C357.125 53.3594 355.672 53.5 354.453 53.7812C353.234 54.0625 352.203 54.5469 351.359 55.2344C350.547 55.9219 349.922 56.8281 349.484 57.9531C349.047 59.0781 348.781 60.5 348.688 62.2188H361.156ZM393.219 86.2188C393.719 85.6875 394.125 84.8281 394.438 83.6406C394.781 82.4531 395.047 81.0938 395.234 79.5625C395.453 78.0312 395.594 76.4062 395.656 74.6875C395.75 72.9688 395.797 71.3125 395.797 69.7188C395.797 68.1562 395.75 66.5469 395.656 64.8906C395.562 63.2344 395.406 61.6719 395.188 60.2031C394.969 58.7344 394.703 57.4219 394.391 56.2656C394.078 55.1094 393.688 54.25 393.219 53.6875C394.469 53.5625 395.875 53.2031 397.438 52.6094C399 52.0156 400.5 51.2656 401.938 50.3594C403.406 49.4531 404.719 48.4062 405.875 47.2188C407.062 46 407.906 44.7188 408.406 43.375C408.812 43.5938 409.359 43.7969 410.047 43.9844C410.766 44.1719 411.562 44.3438 412.438 44.5C413.344 44.6562 414.312 44.7812 415.344 44.875C416.406 44.9688 417.484 45.0156 418.578 45.0156C419.922 45.0156 421.234 44.9531 422.516 44.8281C423.797 44.7031 424.984 44.5312 426.078 44.3125C427.172 44.0938 428.141 43.8281 428.984 43.5156C429.859 43.1719 430.531 42.8125 431 42.4375C431.438 43.0312 432.031 43.5781 432.781 44.0781C433.531 44.5469 434.391 44.9688 435.359 45.3438C436.328 45.6875 437.375 45.9531 438.5 46.1406C439.625 46.3281 440.781 46.4219 441.969 46.4219C443.625 46.4219 444.859 46.3594 445.672 46.2344C446.484 46.0781 447.125 45.9375 447.594 45.8125C447.219 46.8125 446.922 48.1719 446.703 49.8906C446.516 51.6094 446.422 53.3438 446.422 55.0938C446.422 56.0312 446.438 56.9844 446.469 57.9531C446.531 58.8906 446.609 59.7812 446.703 60.625C446.828 61.4688 446.953 62.2344 447.078 62.9219C447.234 63.5781 447.406 64.0938 447.594 64.4688C446.812 64.0938 445.781 63.8281 444.5 63.6719C443.219 63.4844 441.688 63.3906 439.906 63.3906C438.125 63.3906 436.547 63.4844 435.172 63.6719C433.797 63.8281 432.641 64.0938 431.703 64.4688C431.453 61.1562 430.719 58.6719 429.5 57.0156C428.281 55.3281 426.375 54.4844 423.781 54.4844C422.5 54.4844 421.297 54.6875 420.172 55.0938C419.047 55.5 418.062 56.25 417.219 57.3438C416.406 58.4062 415.75 59.8594 415.25 61.7031C414.781 63.5469 414.547 65.9062 414.547 68.7812C414.547 72.0312 414.766 74.6562 415.203 76.6562C415.672 78.625 416.281 80.1719 417.031 81.2969C417.812 82.3906 418.734 83.125 419.797 83.5C420.859 83.875 422 84.0625 423.219 84.0625C424.844 84.0625 426.203 83.7812 427.297 83.2188C428.391 82.625 429.266 81.8594 429.922 80.9219C430.578 79.9844 431.062 78.9062 431.375 77.6875C431.688 76.4375 431.891 75.1562 431.984 73.8438C433.078 74.25 434.344 74.5312 435.781 74.6875C437.25 74.8125 438.734 74.875 440.234 74.875C441.578 74.875 442.875 74.8125 444.125 74.6875C445.406 74.5312 446.562 74.25 447.594 73.8438C447.438 74.3125 447.297 74.8906 447.172 75.5781C447.047 76.2344 446.938 76.9219 446.844 77.6406C446.781 78.3281 446.734 79.0156 446.703 79.7031C446.672 80.3906 446.656 81 446.656 81.5312C446.656 82.5 446.672 83.3594 446.703 84.1094C446.766 84.8281 446.844 85.4844 446.938 86.0781C447.031 86.6719 447.125 87.2188 447.219 87.7188C447.344 88.2188 447.469 88.7031 447.594 89.1719C447.344 89.1406 447.094 89.125 446.844 89.125C446.594 89.0938 446.344 89.0781 446.094 89.0781C444.781 89.0781 443.375 89.2344 441.875 89.5469C440.406 89.8594 438.953 90.2656 437.516 90.7656C436.109 91.2656 434.766 91.8438 433.484 92.5C432.234 93.125 431.188 93.7812 430.344 94.4688C429.438 94.0938 428.219 93.7344 426.688 93.3906C425.188 93.0156 423.547 92.8281 421.766 92.8281C420.641 92.8281 419.5 92.875 418.344 92.9688C417.188 93.0625 416.094 93.2031 415.062 93.3906C414.031 93.5469 413.078 93.7188 412.203 93.9062C411.328 94.0938 410.594 94.2812 410 94.4688C409.875 93.9375 409.5 93.3594 408.875 92.7344C408.281 92.1094 407.516 91.5 406.578 90.9062C405.672 90.2812 404.656 89.6875 403.531 89.125C402.406 88.5625 401.266 88.0625 400.109 87.625C398.953 87.1875 397.812 86.8438 396.688 86.5938C395.594 86.3438 394.609 86.2188 393.734 86.2188H393.219ZM457.578 86.2188C458.203 85.4688 458.688 84.4219 459.031 83.0781C459.375 81.7344 459.625 80.2812 459.781 78.7188C459.969 77.125 460.078 75.5312 460.109 73.9375C460.172 72.3438 460.203 70.9375 460.203 69.7188C460.203 68.4375 460.156 66.9844 460.062 65.3594C459.969 63.7344 459.812 62.1562 459.594 60.625C459.406 59.0625 459.141 57.6562 458.797 56.4062C458.484 55.1562 458.094 54.25 457.625 53.6875C459 53.6875 460.516 53.3438 462.172 52.6562C463.828 51.9375 465.391 51.0625 466.859 50.0312C468.359 48.9688 469.656 47.8438 470.75 46.6562C471.844 45.4688 472.531 44.375 472.812 43.375C474.531 43.9688 476.562 44.3906 478.906 44.6406C481.25 44.8906 484.156 45.0156 487.625 45.0156C490.062 45.0156 492.078 44.875 493.672 44.5938C495.266 44.3125 496.562 43.9062 497.562 43.375C498.094 44.4688 498.969 45.4531 500.188 46.3281C501.438 47.2031 502.781 47.9531 504.219 48.5781C505.688 49.2031 507.141 49.7031 508.578 50.0781C510.047 50.4219 511.25 50.6094 512.188 50.6406C511.938 51.1719 511.703 51.75 511.484 52.375C511.297 53 511.125 53.7344 510.969 54.5781C510.844 55.4219 510.734 56.4219 510.641 57.5781C510.578 58.7031 510.547 60.0312 510.547 61.5625C510.547 62.625 510.562 63.6562 510.594 64.6562C510.656 65.6562 510.734 66.5781 510.828 67.4219C510.922 68.2656 511.016 69.0156 511.109 69.6719C511.234 70.2969 511.359 70.7656 511.484 71.0781C510.703 71.0156 509.656 70.9688 508.344 70.9375C507.031 70.875 505.594 70.8281 504.031 70.7969C502.469 70.7344 500.828 70.7031 499.109 70.7031C497.422 70.6719 495.812 70.6562 494.281 70.6562C492.469 70.6562 490.656 70.6719 488.844 70.7031C487.062 70.7031 485.219 70.7031 483.312 70.7031C481.719 70.7031 480.453 70.8438 479.516 71.125C478.578 71.4062 477.859 71.7969 477.359 72.2969C476.891 72.7656 476.578 73.3438 476.422 74.0312C476.297 74.7188 476.234 75.4688 476.234 76.2812C476.234 77.5 476.531 78.6094 477.125 79.6094C477.719 80.6094 478.531 81.4688 479.562 82.1875C480.594 82.875 481.812 83.4219 483.219 83.8281C484.625 84.2031 486.125 84.3906 487.719 84.3906C489.031 84.3906 490.078 84.2031 490.859 83.8281C491.641 83.4219 492.234 82.8906 492.641 82.2344C493.078 81.5781 493.359 80.8125 493.484 79.9375C493.609 79.0625 493.672 78.125 493.672 77.125C494.047 77.25 494.609 77.3594 495.359 77.4531C496.109 77.5469 496.922 77.625 497.797 77.6875C498.672 77.7188 499.547 77.75 500.422 77.7812C501.328 77.8125 502.109 77.8281 502.766 77.8281C503.422 77.8281 504.172 77.8125 505.016 77.7812C505.859 77.75 506.688 77.7188 507.5 77.6875C508.344 77.625 509.125 77.5469 509.844 77.4531C510.562 77.3594 511.141 77.25 511.578 77.125C511.516 77.4688 511.438 77.9375 511.344 78.5312C511.281 79.0938 511.219 79.7031 511.156 80.3594C511.125 81.0156 511.094 81.6719 511.062 82.3281C511.031 82.9844 511.016 83.5312 511.016 83.9688C511.016 85.5 511.062 86.7344 511.156 87.6719C511.281 88.5781 511.469 89.3906 511.719 90.1094H510.875C509.594 90.1094 508.281 90.2344 506.938 90.4844C505.594 90.7031 504.297 91.0156 503.047 91.4219C501.797 91.7969 500.625 92.25 499.531 92.7812C498.438 93.3125 497.5 93.875 496.719 94.4688C496.281 94.1875 495.672 93.9531 494.891 93.7656C494.141 93.5469 493.297 93.375 492.359 93.25C491.453 93.0938 490.484 92.9844 489.453 92.9219C488.453 92.8594 487.484 92.8281 486.547 92.8281C485.422 92.8281 484.25 92.875 483.031 92.9688C481.812 93.0625 480.641 93.2031 479.516 93.3906C478.422 93.5469 477.422 93.7188 476.516 93.9062C475.609 94.0938 474.906 94.2812 474.406 94.4688C474.125 93.6562 473.391 92.7656 472.203 91.7969C471.047 90.8281 469.688 89.9375 468.125 89.125C466.562 88.2812 464.906 87.5781 463.156 87.0156C461.406 86.4531 459.812 86.1719 458.375 86.1719C458.219 86.1719 458.078 86.1875 457.953 86.2188C457.828 86.2188 457.703 86.2188 457.578 86.2188ZM488.75 62.2188C490 62.2188 490.984 62.1719 491.703 62.0781C492.453 61.9844 493.016 61.7969 493.391 61.5156C493.797 61.2344 494.047 60.8594 494.141 60.3906C494.266 59.8906 494.328 59.2344 494.328 58.4219C494.328 56.9219 493.688 55.7031 492.406 54.7656C491.125 53.8281 489.125 53.3594 486.406 53.3594C484.719 53.3594 483.266 53.5 482.047 53.7812C480.828 54.0625 479.797 54.5469 478.953 55.2344C478.141 55.9219 477.516 56.8281 477.078 57.9531C476.641 59.0781 476.375 60.5 476.281 62.2188H488.75ZM523.016 94C523.266 93.1875 523.438 92.2188 523.531 91.0938C523.625 89.9688 523.672 88.8594 523.672 87.7656C523.672 86.7656 523.609 85.7656 523.484 84.7656C523.359 83.7656 523.203 82.7812 523.016 81.8125C524.766 81.8125 526.203 81.7344 527.328 81.5781C528.484 81.4219 529.406 81.1562 530.094 80.7812C530.781 80.375 531.25 79.8125 531.5 79.0938C531.781 78.375 531.922 77.4531 531.922 76.3281V63.2969C531.891 61.9531 531.719 60.8906 531.406 60.1094C531.094 59.2969 530.656 58.6875 530.094 58.2812C529.562 57.8438 528.891 57.5625 528.078 57.4375C527.297 57.2812 526.406 57.2031 525.406 57.2031H523.953C524.203 56.5781 524.422 55.7188 524.609 54.625C524.797 53.5 524.891 52.3281 524.891 51.1094C524.891 49.9219 524.797 48.7969 524.609 47.7344C524.453 46.6406 524.234 45.7656 523.953 45.1094C525.109 45.2656 526.531 45.3906 528.219 45.4844C529.906 45.5781 531.688 45.625 533.562 45.625C534.938 45.625 536.312 45.5938 537.688 45.5312C539.094 45.4688 540.453 45.375 541.766 45.25C543.078 45.0938 544.312 44.9062 545.469 44.6875C546.625 44.4688 547.656 44.1875 548.562 43.8438C548.344 44.4688 548.188 45.1094 548.094 45.7656C548.031 46.3906 548 47.0312 548 47.6875C548 48.5938 548.062 49.4844 548.188 50.3594C548.312 51.2344 548.453 52.0938 548.609 52.9375C549.984 52.5 551.109 51.8906 551.984 51.1094C552.891 50.2969 553.609 49.4375 554.141 48.5312C554.703 47.625 555.125 46.7188 555.406 45.8125C555.719 44.875 555.969 44.0625 556.156 43.375C556.562 43.625 557.172 43.8594 557.984 44.0781C558.828 44.2656 559.781 44.4375 560.844 44.5938C561.938 44.7188 563.094 44.8281 564.312 44.9219C565.531 44.9844 566.719 45.0156 567.875 45.0156C568.906 45.0156 569.953 44.9844 571.016 44.9219C572.078 44.8594 573.078 44.7656 574.016 44.6406C574.953 44.4844 575.797 44.3125 576.547 44.125C577.297 43.9062 577.859 43.6562 578.234 43.375C579.234 46.0312 580.484 48.2812 581.984 50.125C583.516 51.9688 585.547 53.2656 588.078 54.0156C587.578 54.6406 587.141 55.3125 586.766 56.0312C586.391 56.75 586.062 57.5781 585.781 58.5156C585.531 59.4219 585.344 60.4688 585.219 61.6562C585.094 62.8438 585.031 64.2188 585.031 65.7812V76.3281C585.031 77.4531 585.188 78.375 585.5 79.0938C585.844 79.8125 586.344 80.375 587 80.7812C587.688 81.1562 588.562 81.4219 589.625 81.5781C590.719 81.7344 592.016 81.8125 593.516 81.8125C593.422 82.1875 593.328 82.5781 593.234 82.9844C593.141 83.3906 593.062 83.8594 593 84.3906C592.938 84.8906 592.875 85.4844 592.812 86.1719C592.781 86.8281 592.766 87.6094 592.766 88.5156C592.766 89.4219 592.812 90.4062 592.906 91.4688C593.031 92.5312 593.234 93.375 593.516 94C592.547 93.8438 591.391 93.7031 590.047 93.5781C588.734 93.4219 587.312 93.2969 585.781 93.2031C584.281 93.0781 582.703 92.9844 581.047 92.9219C579.422 92.8594 577.812 92.8281 576.219 92.8281C574.938 92.8281 573.609 92.8594 572.234 92.9219C570.891 92.9531 569.578 93.0312 568.297 93.1562C567.016 93.25 565.812 93.375 564.688 93.5312C563.594 93.6562 562.672 93.8125 561.922 94C562.016 93.625 562.094 93.1875 562.156 92.6875C562.25 92.1875 562.312 91.6406 562.344 91.0469C562.406 90.4531 562.453 89.8438 562.484 89.2188C562.516 88.5938 562.531 88 562.531 87.4375C562.531 87.125 562.516 86.7031 562.484 86.1719C562.453 85.6406 562.406 85.1094 562.344 84.5781C562.312 84.0156 562.25 83.4844 562.156 82.9844C562.094 82.4844 562.016 82.0938 561.922 81.8125C562.984 81.8125 563.859 81.7656 564.547 81.6719C565.266 81.5469 565.844 81.2969 566.281 80.9219C566.719 80.5469 567.031 80 567.219 79.2812C567.406 78.5312 567.5 77.5469 567.5 76.3281V66.5781C567.5 65.3594 567.375 64.2031 567.125 63.1094C566.875 62.0156 566.484 61.0625 565.953 60.25C565.453 59.4062 564.797 58.75 563.984 58.2812C563.172 57.7812 562.188 57.5312 561.031 57.5312C560.25 57.5312 559.203 57.6719 557.891 57.9531C556.609 58.2031 555.328 58.6562 554.047 59.3125C552.797 59.9375 551.703 60.7969 550.766 61.8906C549.859 62.9531 549.406 64.2812 549.406 65.875H549.359L549.406 76.3281C549.406 78.3594 550.031 79.7812 551.281 80.5938C552.531 81.4062 554.281 81.8125 556.531 81.8125C556.344 82.4688 556.188 83.2812 556.062 84.25C555.969 85.2188 555.922 86.25 555.922 87.3438C555.922 88.5312 555.969 89.7344 556.062 90.9531C556.156 92.1406 556.312 93.1562 556.531 94C554.531 93.6875 552.156 93.4219 549.406 93.2031C546.656 92.9531 543.297 92.8281 539.328 92.8281C537.828 92.8281 536.281 92.8594 534.688 92.9219C533.125 92.9531 531.609 93.0312 530.141 93.1562C528.703 93.25 527.359 93.375 526.109 93.5312C524.859 93.6562 523.828 93.8125 523.016 94ZM605.609 84.3438C606.641 83.0938 607.328 81.5 607.672 79.5625C608.016 77.625 608.188 75.2969 608.188 72.5781V59.0312C608.156 58.4688 608.062 57.9688 607.906 57.5312C607.781 57.0625 607.547 56.6719 607.203 56.3594C606.891 56.0156 606.453 55.75 605.891 55.5625C605.328 55.375 604.625 55.2812 603.781 55.2812C603.312 55.2812 602.797 55.3125 602.234 55.375C601.703 55.4375 601.094 55.5312 600.406 55.6562C600.562 54.75 600.672 53.7656 600.734 52.7031C600.797 51.6406 600.828 50.5625 600.828 49.4688C600.828 48.4688 600.797 47.4844 600.734 46.5156C600.672 45.5469 600.562 44.6562 600.406 43.8438C600.719 44.0625 601.109 44.25 601.578 44.4062C602.047 44.5312 602.516 44.6406 602.984 44.7344C603.453 44.8281 603.891 44.9062 604.297 44.9688C604.703 45 605.016 45.0156 605.234 45.0156C606.141 45.0156 606.812 44.6719 607.25 43.9844C607.719 43.2656 607.953 42.0312 607.953 40.2812C607.953 40 607.938 39.6094 607.906 39.1094C607.906 38.6094 607.891 38.0938 607.859 37.5625C607.828 37.0312 607.766 36.5312 607.672 36.0625C607.609 35.5938 607.516 35.2344 607.391 34.9844C607.641 35.0469 607.891 35.0781 608.141 35.0781C608.391 35.0781 608.656 35.0781 608.938 35.0781C610.531 35.0781 612.203 34.8125 613.953 34.2812C615.734 33.75 617.453 33.1719 619.109 32.5469C620.797 31.9219 622.359 31.3437 623.797 30.8125C625.234 30.2813 626.422 30.0156 627.359 30.0156C627.109 30.7656 626.906 31.5938 626.75 32.5C626.594 33.4062 626.469 34.3125 626.375 35.2188C626.281 36.125 626.203 37.0156 626.141 37.8906C626.109 38.7344 626.094 39.4531 626.094 40.0469C626.094 41.0781 626.219 41.9219 626.469 42.5781C626.719 43.2031 627.156 43.7031 627.781 44.0781C628.438 44.4219 629.328 44.6719 630.453 44.8281C631.609 44.9531 633.078 45.0156 634.859 45.0156C635.609 45.0156 636.484 45.0156 637.484 45.0156C638.516 44.9844 639.578 44.9375 640.672 44.875C641.766 44.7812 642.844 44.6562 643.906 44.5C645 44.3438 646 44.125 646.906 43.8438C646.594 44.6562 646.375 45.6094 646.25 46.7031C646.125 47.7969 646.062 48.9219 646.062 50.0781C646.062 51.3906 646.125 52.6094 646.25 53.7344C646.375 54.8594 646.594 55.8594 646.906 56.7344C645.844 56.6406 644.672 56.5312 643.391 56.4062C642.141 56.2812 640.891 56.1719 639.641 56.0781C638.391 55.9531 637.234 55.8594 636.172 55.7969C635.109 55.7031 634.25 55.6562 633.594 55.6562C632.031 55.6562 630.734 55.7344 629.703 55.8906C628.703 56.0156 627.906 56.2344 627.312 56.5469C626.719 56.8281 626.297 57.2031 626.047 57.6719C625.828 58.1094 625.719 58.625 625.719 59.2188V71.7812C625.719 73 625.781 74.2969 625.906 75.6719C626.062 77.0156 626.328 78.2656 626.703 79.4219C627.078 80.5781 627.594 81.5469 628.25 82.3281C628.906 83.0781 629.75 83.4531 630.781 83.4531C631.906 83.4531 632.844 83.2344 633.594 82.7969C634.375 82.3281 635 81.6875 635.469 80.875C635.938 80.0625 636.266 79.1094 636.453 78.0156C636.672 76.8906 636.781 75.6562 636.781 74.3125C637.469 74.4688 638.391 74.625 639.547 74.7812C640.703 74.9375 641.891 75.0156 643.109 75.0156C644.297 75.0156 645.406 74.9375 646.438 74.7812C647.5 74.625 648.312 74.4688 648.875 74.3125C648.625 75 648.438 75.9688 648.312 77.2188C648.219 78.4375 648.172 79.75 648.172 81.1562C648.172 82.5625 648.219 83.875 648.312 85.0938C648.406 86.3125 648.594 87.2188 648.875 87.8125H648.406C647.25 87.8125 646 88 644.656 88.375C643.344 88.7188 642.078 89.1875 640.859 89.7812C639.641 90.375 638.516 91.0469 637.484 91.7969C636.484 92.5156 635.719 93.25 635.188 94C634.938 93.8125 634.453 93.6562 633.734 93.5312C633.047 93.375 632.234 93.25 631.297 93.1562C630.391 93.0312 629.422 92.9531 628.391 92.9219C627.359 92.8594 626.375 92.8281 625.438 92.8281C624.5 92.8281 623.516 92.8594 622.484 92.9219C621.484 92.9531 620.5 93.0312 619.531 93.1562C618.562 93.25 617.672 93.375 616.859 93.5312C616.078 93.6562 615.453 93.8125 614.984 94C614.703 92.9062 614.266 91.8438 613.672 90.8125C613.109 89.75 612.422 88.7812 611.609 87.9062C610.797 87.0312 609.875 86.2812 608.844 85.6562C607.844 85.0312 606.766 84.5938 605.609 84.3438ZM656.656 94C656.906 93.1875 657.078 92.2188 657.172 91.0938C657.266 89.9688 657.312 88.8594 657.312 87.7656C657.312 86.7656 657.25 85.7656 657.125 84.7656C657 83.7656 656.844 82.7812 656.656 81.8125C658.406 81.8125 659.844 81.7344 660.969 81.5781C662.125 81.4219 663.031 81.1562 663.688 80.7812C664.344 80.375 664.797 79.8125 665.047 79.0938C665.297 78.375 665.422 77.4531 665.422 76.3281V68.4531C665.422 67.4531 665.359 66.4531 665.234 65.4531C665.141 64.4531 664.969 63.5469 664.719 62.7344C664.469 61.9219 664.125 61.2344 663.688 60.6719C663.281 60.0781 662.781 59.7031 662.188 59.5469C662.844 59.3594 663.375 59.1094 663.781 58.7969C664.219 58.4531 664.547 58 664.766 57.4375C665.016 56.875 665.188 56.1719 665.281 55.3281C665.375 54.4531 665.422 53.3906 665.422 52.1406V37.2812C665.391 35.9375 665.219 34.875 664.906 34.0938C664.594 33.2812 664.156 32.6719 663.594 32.2656C663.062 31.8281 662.391 31.5469 661.578 31.4219C660.797 31.2656 659.906 31.1875 658.906 31.1875H657.453C657.703 30.5625 657.922 29.7031 658.109 28.6094C658.297 27.4844 658.391 26.3125 658.391 25.0938C658.391 23.9063 658.297 22.7656 658.109 21.6719C657.953 20.5469 657.734 19.6562 657.453 19C658.047 19.0938 658.766 19.1719 659.609 19.2344C660.453 19.2969 661.375 19.3594 662.375 19.4219C663.375 19.4531 664.438 19.4844 665.562 19.5156C666.688 19.5469 667.844 19.5625 669.031 19.5625C670.625 19.5625 672.234 19.5312 673.859 19.4688C675.484 19.4063 677.031 19.3125 678.5 19.1875C680 19.0625 681.375 18.8906 682.625 18.6719C683.906 18.4531 684.969 18.1719 685.812 17.8281C685.156 19.0469 684.641 20.4062 684.266 21.9062C683.891 23.4062 683.594 25 683.375 26.6875C683.156 28.375 683.016 30.1406 682.953 31.9844C682.891 33.8281 682.859 35.7031 682.859 37.6094L682.812 52.2344C682.812 53.4844 682.859 54.5469 682.953 55.4219C683.078 56.2656 683.266 56.9688 683.516 57.5312C683.766 58.0938 684.094 58.5312 684.5 58.8438C684.906 59.1562 685.422 59.3906 686.047 59.5469C685.391 59.7344 684.844 60.125 684.406 60.7188C684 61.2812 683.672 61.9688 683.422 62.7812C683.203 63.5938 683.047 64.5 682.953 65.5C682.859 66.4688 682.812 67.4531 682.812 68.4531V76.3281C682.812 77.4531 683.016 78.375 683.422 79.0938C683.828 79.8125 684.406 80.375 685.156 80.7812C685.938 81.1562 686.859 81.4219 687.922 81.5781C689.016 81.7344 690.234 81.8125 691.578 81.8125C691.391 82.4688 691.234 83.2812 691.109 84.25C691.016 85.2188 690.969 86.25 690.969 87.3438C690.969 88.5312 691 89.7344 691.062 90.9531C691.156 92.1406 691.328 93.1562 691.578 94C690.734 93.8438 689.594 93.7031 688.156 93.5781C686.75 93.4219 685.203 93.2969 683.516 93.2031C681.828 93.0781 680.062 92.9844 678.219 92.9219C676.406 92.8594 674.656 92.8281 672.969 92.8281C671.469 92.8281 669.922 92.8594 668.328 92.9219C666.766 92.9531 665.25 93.0312 663.781 93.1562C662.344 93.25 661 93.375 659.75 93.5312C658.5 93.6562 657.469 93.8125 656.656 94ZM693.219 99.625C693.594 99.7812 694.125 99.9062 694.812 100C695.5 100.094 696.281 100.172 697.156 100.234C698.031 100.297 698.953 100.328 699.922 100.328C700.922 100.359 701.906 100.375 702.875 100.375C703.844 100.375 704.781 100.359 705.688 100.328C706.625 100.328 707.484 100.297 708.266 100.234C709.047 100.172 709.734 100.094 710.328 100C710.922 99.9062 711.359 99.7812 711.641 99.625C711.641 101.125 712.016 102.312 712.766 103.188C713.516 104.094 714.547 104.547 715.859 104.547C717.047 104.547 718.016 104.047 718.766 103.047C719.516 102.047 719.891 100.812 719.891 99.3438C719.891 97.625 719.438 96.2812 718.531 95.3125C717.656 94.3438 716.469 93.8594 714.969 93.8594C714.531 93.8594 714.078 93.9062 713.609 94C713.641 93.7812 713.656 93.5312 713.656 93.25C713.688 92.9375 713.703 92.6562 713.703 92.4062C713.703 91.0625 713.516 89.4531 713.141 87.5781C712.766 85.7031 712.047 83.6719 710.984 81.4844C709.891 79.2344 708.75 77.4531 707.562 76.1406C706.375 74.7969 705.203 73.9531 704.047 73.6094C704.578 73.4219 704.844 72.9375 704.844 72.1562C704.844 71.75 704.812 71.2031 704.75 70.5156C704.719 69.7969 704.578 68.9844 704.328 68.0781C704.078 67.1406 703.703 66.125 703.203 65.0312C702.703 63.9375 701.984 62.7969 701.047 61.6094C700.516 60.9219 699.906 60.25 699.219 59.5938C698.531 58.9375 697.781 58.3438 696.969 57.8125C696.188 57.2812 695.375 56.8594 694.531 56.5469C693.688 56.2031 692.844 56.0312 692 56.0312C692.156 55.125 692.297 54.1406 692.422 53.0781C692.516 51.9844 692.562 50.7812 692.562 49.4688C692.562 47.2188 692.375 45.3438 692 43.8438C692.469 44.0312 693.016 44.2031 693.641 44.3594C694.297 44.4844 695.109 44.6094 696.078 44.7344C697.047 44.8281 698.219 44.9062 699.594 44.9688C700.969 45 702.625 45.0156 704.562 45.0156C706.562 45.0156 708.656 45.0156 710.844 45.0156C713.062 44.9844 715.172 44.9375 717.172 44.875C719.172 44.7812 720.953 44.6562 722.516 44.5C724.109 44.3438 725.281 44.125 726.031 43.8438C725.844 44.625 725.703 45.4688 725.609 46.375C725.516 47.2812 725.469 48.3125 725.469 49.4688C725.469 52.0938 725.625 54.2812 725.938 56.0312C723.594 56.0312 721.906 56.2812 720.875 56.7812C719.875 57.2812 719.375 58.0781 719.375 59.1719C719.375 60.0156 719.656 61.1406 720.219 62.5469C720.781 63.9531 721.484 65.5625 722.328 67.375C723.172 69.1562 724.062 71.0938 725 73.1875C725.938 75.2812 726.781 77.4375 727.531 79.6562C728.344 77.6875 729.234 75.7188 730.203 73.75C731.172 71.75 732.062 69.8594 732.875 68.0781C733.719 66.2656 734.422 64.5938 734.984 63.0625C735.547 61.5 735.828 60.1562 735.828 59.0312C735.828 57.7812 735.375 56.9688 734.469 56.5938C733.562 56.2188 732.078 56.0312 730.016 56.0312C730.328 54.2812 730.484 52.0938 730.484 49.4688C730.484 47.2188 730.297 45.3438 729.922 43.8438C730.328 44.125 731.016 44.3438 731.984 44.5C732.984 44.6562 734.125 44.7812 735.406 44.875C736.719 44.9375 738.109 44.9844 739.578 45.0156C741.047 45.0156 742.453 45.0156 743.797 45.0156C744.984 45.0156 746.297 45 747.734 44.9688C749.172 44.9062 750.547 44.8281 751.859 44.7344C753.172 44.6094 754.328 44.4844 755.328 44.3594C756.359 44.2031 757.047 44.0312 757.391 43.8438C757.203 44.625 757.078 45.4688 757.016 46.375C756.953 47.2812 756.922 48.3125 756.922 49.4688C756.922 52.0938 757.078 54.2812 757.391 56.0312C755.609 56.0312 753.859 56.5469 752.141 57.5781C750.422 58.6094 748.906 60.0625 747.594 61.9375C746.844 63.0312 746.234 64.0938 745.766 65.125C745.328 66.125 744.984 67.0781 744.734 67.9844C744.516 68.8594 744.375 69.6562 744.312 70.375C744.25 71.0938 744.219 71.6875 744.219 72.1562C744.219 72.9375 744.484 73.4219 745.016 73.6094C743.672 73.9844 742.328 74.9531 740.984 76.5156C739.641 78.0781 738.281 80.4219 736.906 83.5469C736.406 84.7031 735.844 86.0938 735.219 87.7188C734.594 89.3438 733.969 91.0781 733.344 92.9219C732.719 94.7344 732.109 96.5781 731.516 98.4531C730.953 100.359 730.438 102.125 729.969 103.75C729.531 105.406 729.172 106.859 728.891 108.109C728.609 109.359 728.469 110.281 728.469 110.875C727.594 110.969 726.484 111.203 725.141 111.578C723.797 111.953 722.391 112.5 720.922 113.219C719.453 113.938 718 114.828 716.562 115.891C715.125 116.984 713.875 118.281 712.812 119.781C711.688 119.344 710.328 119 708.734 118.75C707.141 118.5 705.391 118.375 703.484 118.375C701.422 118.375 699.516 118.484 697.766 118.703C696.047 118.953 694.531 119.312 693.219 119.781C693.375 119.25 693.5 118.609 693.594 117.859C693.719 117.109 693.812 116.297 693.875 115.422C693.938 114.578 693.984 113.688 694.016 112.75C694.047 111.844 694.062 110.969 694.062 110.125C694.062 109.094 694.031 108.062 693.969 107.031C693.938 106.031 693.891 105.062 693.828 104.125C693.766 103.219 693.672 102.375 693.547 101.594C693.453 100.844 693.344 100.188 693.219 99.625ZM796.344 94C796.531 93.2188 796.672 92.2656 796.766 91.1406C796.859 89.9844 796.906 88.7969 796.906 87.5781C796.906 86.4531 796.859 85.4062 796.766 84.4375C796.703 83.4375 796.594 82.5625 796.438 81.8125C798.031 81.75 799.391 81.4688 800.516 80.9688C801.641 80.4375 802.562 79.8594 803.281 79.2344C804.031 78.0781 804.797 76.7812 805.578 75.3438C806.359 73.9062 807.062 72.4375 807.688 70.9375C808.344 69.4062 808.875 67.8906 809.281 66.3906C809.688 64.8594 809.891 63.4375 809.891 62.125C809.891 61.5938 809.812 61.0625 809.656 60.5312C809.5 60 809.234 59.6719 808.859 59.5469C809.797 59.2969 810.734 58.6094 811.672 57.4844C812.609 56.3594 813.516 54.9688 814.391 53.3125C815.266 51.6562 816.078 49.8125 816.828 47.7812C817.578 45.75 818.234 43.7031 818.797 41.6406C819.359 39.5469 819.797 37.5156 820.109 35.5469C820.422 33.5781 820.578 31.8281 820.578 30.2969C820.578 29.7656 820.547 29.25 820.484 28.75C820.422 28.25 820.391 27.8281 820.391 27.4844C820.391 27.3281 820.391 27.1875 820.391 27.0625C820.422 26.9375 820.438 26.75 820.438 26.5C821.156 26.7812 822.047 27.0312 823.109 27.25C824.203 27.4375 825.422 27.6094 826.766 27.7656C828.109 27.8906 829.547 27.9844 831.078 28.0469C832.609 28.1094 834.203 28.1406 835.859 28.1406C837.297 28.1406 838.766 28.1094 840.266 28.0469C841.766 27.9844 843.219 27.8906 844.625 27.7656C846.031 27.6094 847.344 27.4375 848.562 27.25C849.781 27.0312 850.797 26.7812 851.609 26.5V26.6875V27.1094C851.609 27.4531 851.562 27.8906 851.469 28.4219C851.406 28.9219 851.375 29.4844 851.375 30.1094C851.375 31.5469 851.5 33.2344 851.75 35.1719C852.031 37.1094 852.406 39.125 852.875 41.2188C853.344 43.2812 853.906 45.3438 854.562 47.4062C855.25 49.4375 856 51.3125 856.812 53.0312C857.625 54.7188 858.5 56.1562 859.438 57.3438C860.375 58.5 861.359 59.2344 862.391 59.5469C861.953 59.7031 861.641 60.0156 861.453 60.4844C861.297 60.9219 861.219 61.4688 861.219 62.125C861.219 63.4375 861.406 64.8594 861.781 66.3906C862.188 67.8906 862.703 69.4062 863.328 70.9375C863.984 72.4375 864.688 73.8906 865.438 75.2969C866.219 76.7031 866.984 77.9688 867.734 79.0938C868.203 79.375 868.766 79.6719 869.422 79.9844C870.078 80.2969 870.766 80.5938 871.484 80.875C872.203 81.1562 872.922 81.3906 873.641 81.5781C874.359 81.7344 875.031 81.8125 875.656 81.8125C875.5 82.5625 875.375 83.4375 875.281 84.4375C875.219 85.4062 875.188 86.4531 875.188 87.5781C875.188 88.7969 875.234 89.9844 875.328 91.1406C875.422 92.2656 875.562 93.2188 875.75 94C874.625 93.875 873.328 93.75 871.859 93.625C870.391 93.4688 868.812 93.3438 867.125 93.25C865.438 93.125 863.688 93.0312 861.875 92.9688C860.062 92.875 858.25 92.8281 856.438 92.8281C853.125 92.8281 849.969 92.9375 846.969 93.1562C844 93.3438 841.484 93.625 839.422 94C839.516 93.4688 839.594 92.6406 839.656 91.5156C839.75 90.3594 839.797 89.0781 839.797 87.6719C839.797 87.0781 839.781 86.4844 839.75 85.8906C839.719 85.2656 839.688 84.6875 839.656 84.1562C839.625 83.625 839.578 83.1562 839.516 82.75C839.484 82.3125 839.453 82 839.422 81.8125C839.984 81.8125 840.578 81.7969 841.203 81.7656C841.828 81.7031 842.438 81.6094 843.031 81.4844C843.656 81.3594 844.25 81.1875 844.812 80.9688C845.375 80.75 845.875 80.4531 846.312 80.0781C846.25 78.8281 846.047 77.7656 845.703 76.8906C845.359 75.9844 844.703 75.2344 843.734 74.6406C842.797 74.0469 841.469 73.6094 839.75 73.3281C838.062 73.0469 835.844 72.9062 833.094 72.9062C830.625 72.9062 828.562 73 826.906 73.1875C825.281 73.375 823.953 73.7344 822.922 74.2656C821.922 74.7656 821.172 75.4844 820.672 76.4219C820.203 77.3281 819.906 78.5312 819.781 80.0312C820.25 80.4062 820.812 80.7031 821.469 80.9219C822.125 81.1406 822.797 81.3281 823.484 81.4844C824.203 81.6094 824.906 81.7031 825.594 81.7656C826.312 81.7969 826.953 81.8125 827.516 81.8125C827.453 82 827.391 82.2969 827.328 82.7031C827.297 83.1094 827.266 83.5938 827.234 84.1562C827.203 84.6875 827.172 85.2656 827.141 85.8906C827.141 86.5156 827.141 87.1094 827.141 87.6719C827.141 89.0781 827.172 90.3594 827.234 91.5156C827.328 92.6406 827.422 93.4688 827.516 94C825.141 93.5625 822.734 93.2656 820.297 93.1094C817.859 92.9219 815.375 92.8281 812.844 92.8281C809.906 92.8281 807.047 92.9219 804.266 93.1094C801.516 93.2656 798.875 93.5625 796.344 94ZM826.344 59.1719C826.344 60.0781 826.438 60.8281 826.625 61.4219C826.844 62.0156 827.203 62.4844 827.703 62.8281C828.234 63.1719 828.938 63.4219 829.812 63.5781C830.719 63.7031 831.859 63.7656 833.234 63.7656C834.609 63.7656 835.734 63.7031 836.609 63.5781C837.516 63.4219 838.219 63.1719 838.719 62.8281C839.25 62.4844 839.609 62.0156 839.797 61.4219C840.016 60.8281 840.125 60.0781 840.125 59.1719C840.125 58.0781 839.844 56.7344 839.281 55.1406C838.719 53.5469 838.062 51.875 837.312 50.125C836.562 48.375 835.797 46.625 835.016 44.875C834.234 43.125 833.641 41.5469 833.234 40.1406C832.766 41.5469 832.141 43.125 831.359 44.875C830.578 46.625 829.812 48.375 829.062 50.125C828.344 51.875 827.703 53.5469 827.141 55.1406C826.609 56.7344 826.344 58.0781 826.344 59.1719ZM881.375 83.9219C881.75 83.1094 882.172 81.4531 882.641 78.9531C883.141 76.4531 883.391 72.9844 883.391 68.5469C883.391 64.1406 883.141 60.6875 882.641 58.1875C882.172 55.6875 881.75 54.0312 881.375 53.2188C883.094 53.0938 884.797 52.7188 886.484 52.0938C888.172 51.4688 889.734 50.7031 891.172 49.7969C892.641 48.8594 893.922 47.8438 895.016 46.75C896.109 45.625 896.922 44.5 897.453 43.375C898.141 43.9062 899.25 44.3125 900.781 44.5938C902.312 44.875 903.969 45.0156 905.75 45.0156C906.781 45.0156 907.797 44.9688 908.797 44.875C909.797 44.7812 910.719 44.6562 911.562 44.5C912.406 44.3438 913.156 44.1719 913.812 43.9844C914.469 43.7969 914.969 43.5938 915.312 43.375C916 44.7812 916.875 46 917.938 47.0312C919.031 48.0312 920.328 48.8125 921.828 49.375V37.2812C921.797 35.9375 921.531 34.875 921.031 34.0938C920.531 33.2812 919.875 32.6719 919.062 32.2656C918.281 31.8281 917.375 31.5469 916.344 31.4219C915.312 31.2656 914.25 31.1875 913.156 31.1875H911.656C911.906 30.5625 912.125 29.7031 912.312 28.6094C912.5 27.4844 912.594 26.3125 912.594 25.0938C912.594 23.9063 912.5 22.7656 912.312 21.6719C912.156 20.5469 911.938 19.6562 911.656 19C912.25 19.0938 912.984 19.1719 913.859 19.2344C914.766 19.2969 915.766 19.3594 916.859 19.4219C917.953 19.4531 919.125 19.4844 920.375 19.5156C921.656 19.5469 922.953 19.5625 924.266 19.5625C926.047 19.5625 927.844 19.5312 929.656 19.4688C931.469 19.4063 933.188 19.3125 934.812 19.1875C936.469 19.0625 937.969 18.8906 939.312 18.6719C940.688 18.4531 941.812 18.1719 942.688 17.8281C942.031 19.0469 941.484 20.4062 941.047 21.9062C940.609 23.4062 940.25 25 939.969 26.6875C939.719 28.375 939.531 30.1406 939.406 31.9844C939.281 33.8281 939.219 35.7031 939.219 37.6094V46.9844C939.219 48.9219 939.266 50.6406 939.359 52.1406C939.453 53.6094 939.625 54.8594 939.875 55.8906C940.125 56.9219 940.469 57.75 940.906 58.375C941.344 59 941.906 59.4219 942.594 59.6406H942.547C941.984 59.7969 941.484 60.1719 941.047 60.7656C940.609 61.3594 940.25 62.0781 939.969 62.9219C939.688 63.7656 939.469 64.7188 939.312 65.7812C939.188 66.8125 939.125 67.8594 939.125 68.9219V74.6406C939.125 77.2031 939.656 79.0469 940.719 80.1719C941.781 81.2656 943.188 81.8125 944.938 81.8125C944.781 82.5 944.656 83.375 944.562 84.4375C944.5 85.5 944.469 86.6094 944.469 87.7656C944.469 88.9219 944.5 90.0938 944.562 91.2812C944.625 92.4375 944.75 93.3438 944.938 94C944.5 93.8438 943.922 93.7031 943.203 93.5781C942.484 93.4219 941.703 93.2969 940.859 93.2031C940.047 93.0781 939.203 92.9844 938.328 92.9219C937.484 92.8594 936.688 92.8281 935.938 92.8281C934.156 92.8281 932.594 92.9531 931.25 93.2031C929.938 93.4531 928.781 93.7188 927.781 94C927.688 92.75 927.297 91.4375 926.609 90.0625C925.953 88.6875 925.109 87.4531 924.078 86.3594C923.328 86.8594 922.609 87.4531 921.922 88.1406C921.266 88.8281 920.672 89.5469 920.141 90.2969C919.641 91.0156 919.203 91.75 918.828 92.5C918.484 93.2188 918.25 93.875 918.125 94.4688C917.188 94.0312 915.797 93.6562 913.953 93.3438C912.141 93 910.062 92.8281 907.719 92.8281C905.438 92.8281 903.375 93 901.531 93.3438C899.688 93.6562 898.328 94.0312 897.453 94.4688C896.922 93.375 896.109 92.2344 895.016 91.0469C893.922 89.8594 892.656 88.7656 891.219 87.7656C889.781 86.7344 888.203 85.875 886.484 85.1875C884.797 84.4688 883.094 84.0469 881.375 83.9219ZM902.891 68.5938C902.891 71 903.047 73.0625 903.359 74.7812C903.703 76.5 904.25 77.9219 905 79.0469C905.75 80.1406 906.719 80.9531 907.906 81.4844C909.094 82.0156 910.547 82.2812 912.266 82.2812C914.078 82.2812 915.562 81.9375 916.719 81.25C917.875 80.5625 918.781 79.6094 919.438 78.3906C920.094 77.1719 920.547 75.7344 920.797 74.0781C921.047 72.3906 921.172 70.5625 921.172 68.5938C921.172 66.625 921.047 64.8281 920.797 63.2031C920.547 61.5469 920.094 60.125 919.438 58.9375C918.781 57.7188 917.875 56.7812 916.719 56.125C915.562 55.4375 914.078 55.0938 912.266 55.0938C910.547 55.0938 909.094 55.3438 907.906 55.8438C906.719 56.3438 905.75 57.1406 905 58.2344C904.25 59.3281 903.703 60.7344 903.359 62.4531C903.047 64.1406 902.891 66.1875 902.891 68.5938ZM953.375 83.9219C953.75 83.1094 954.172 81.4531 954.641 78.9531C955.141 76.4531 955.391 72.9844 955.391 68.5469C955.391 64.1406 955.141 60.6875 954.641 58.1875C954.172 55.6875 953.75 54.0312 953.375 53.2188C955.094 53.0938 956.797 52.7188 958.484 52.0938C960.172 51.4688 961.734 50.7031 963.172 49.7969C964.641 48.8594 965.922 47.8438 967.016 46.75C968.109 45.625 968.922 44.5 969.453 43.375C970.141 43.9062 971.25 44.3125 972.781 44.5938C974.312 44.875 975.969 45.0156 977.75 45.0156C978.781 45.0156 979.797 44.9688 980.797 44.875C981.797 44.7812 982.719 44.6562 983.562 44.5C984.406 44.3438 985.156 44.1719 985.812 43.9844C986.469 43.7969 986.969 43.5938 987.312 43.375C988 44.7812 988.875 46 989.938 47.0312C991.031 48.0312 992.328 48.8125 993.828 49.375V37.2812C993.797 35.9375 993.531 34.875 993.031 34.0938C992.531 33.2812 991.875 32.6719 991.062 32.2656C990.281 31.8281 989.375 31.5469 988.344 31.4219C987.312 31.2656 986.25 31.1875 985.156 31.1875H983.656C983.906 30.5625 984.125 29.7031 984.312 28.6094C984.5 27.4844 984.594 26.3125 984.594 25.0938C984.594 23.9063 984.5 22.7656 984.312 21.6719C984.156 20.5469 983.938 19.6562 983.656 19C984.25 19.0938 984.984 19.1719 985.859 19.2344C986.766 19.2969 987.766 19.3594 988.859 19.4219C989.953 19.4531 991.125 19.4844 992.375 19.5156C993.656 19.5469 994.953 19.5625 996.266 19.5625C998.047 19.5625 999.844 19.5312 1001.66 19.4688C1003.47 19.4063 1005.19 19.3125 1006.81 19.1875C1008.47 19.0625 1009.97 18.8906 1011.31 18.6719C1012.69 18.4531 1013.81 18.1719 1014.69 17.8281C1014.03 19.0469 1013.48 20.4062 1013.05 21.9062C1012.61 23.4062 1012.25 25 1011.97 26.6875C1011.72 28.375 1011.53 30.1406 1011.41 31.9844C1011.28 33.8281 1011.22 35.7031 1011.22 37.6094V46.9844C1011.22 48.9219 1011.27 50.6406 1011.36 52.1406C1011.45 53.6094 1011.62 54.8594 1011.88 55.8906C1012.12 56.9219 1012.47 57.75 1012.91 58.375C1013.34 59 1013.91 59.4219 1014.59 59.6406H1014.55C1013.98 59.7969 1013.48 60.1719 1013.05 60.7656C1012.61 61.3594 1012.25 62.0781 1011.97 62.9219C1011.69 63.7656 1011.47 64.7188 1011.31 65.7812C1011.19 66.8125 1011.12 67.8594 1011.12 68.9219V74.6406C1011.12 77.2031 1011.66 79.0469 1012.72 80.1719C1013.78 81.2656 1015.19 81.8125 1016.94 81.8125C1016.78 82.5 1016.66 83.375 1016.56 84.4375C1016.5 85.5 1016.47 86.6094 1016.47 87.7656C1016.47 88.9219 1016.5 90.0938 1016.56 91.2812C1016.62 92.4375 1016.75 93.3438 1016.94 94C1016.5 93.8438 1015.92 93.7031 1015.2 93.5781C1014.48 93.4219 1013.7 93.2969 1012.86 93.2031C1012.05 93.0781 1011.2 92.9844 1010.33 92.9219C1009.48 92.8594 1008.69 92.8281 1007.94 92.8281C1006.16 92.8281 1004.59 92.9531 1003.25 93.2031C1001.94 93.4531 1000.78 93.7188 999.781 94C999.688 92.75 999.297 91.4375 998.609 90.0625C997.953 88.6875 997.109 87.4531 996.078 86.3594C995.328 86.8594 994.609 87.4531 993.922 88.1406C993.266 88.8281 992.672 89.5469 992.141 90.2969C991.641 91.0156 991.203 91.75 990.828 92.5C990.484 93.2188 990.25 93.875 990.125 94.4688C989.188 94.0312 987.797 93.6562 985.953 93.3438C984.141 93 982.062 92.8281 979.719 92.8281C977.438 92.8281 975.375 93 973.531 93.3438C971.688 93.6562 970.328 94.0312 969.453 94.4688C968.922 93.375 968.109 92.2344 967.016 91.0469C965.922 89.8594 964.656 88.7656 963.219 87.7656C961.781 86.7344 960.203 85.875 958.484 85.1875C956.797 84.4688 955.094 84.0469 953.375 83.9219ZM974.891 68.5938C974.891 71 975.047 73.0625 975.359 74.7812C975.703 76.5 976.25 77.9219 977 79.0469C977.75 80.1406 978.719 80.9531 979.906 81.4844C981.094 82.0156 982.547 82.2812 984.266 82.2812C986.078 82.2812 987.562 81.9375 988.719 81.25C989.875 80.5625 990.781 79.6094 991.438 78.3906C992.094 77.1719 992.547 75.7344 992.797 74.0781C993.047 72.3906 993.172 70.5625 993.172 68.5938C993.172 66.625 993.047 64.8281 992.797 63.2031C992.547 61.5469 992.094 60.125 991.438 58.9375C990.781 57.7188 989.875 56.7812 988.719 56.125C987.562 55.4375 986.078 55.0938 984.266 55.0938C982.547 55.0938 981.094 55.3438 979.906 55.8438C978.719 56.3438 977.75 57.1406 977 58.2344C976.25 59.3281 975.703 60.7344 975.359 62.4531C975.047 64.1406 974.891 66.1875 974.891 68.5938ZM1025.14 86.2188C1025.77 85.4688 1026.25 84.4219 1026.59 83.0781C1026.94 81.7344 1027.19 80.2812 1027.34 78.7188C1027.53 77.125 1027.64 75.5312 1027.67 73.9375C1027.73 72.3438 1027.77 70.9375 1027.77 69.7188C1027.77 68.4375 1027.72 66.9844 1027.62 65.3594C1027.53 63.7344 1027.38 62.1562 1027.16 60.625C1026.97 59.0625 1026.7 57.6562 1026.36 56.4062C1026.05 55.1562 1025.66 54.25 1025.19 53.6875C1026.56 53.6875 1028.08 53.3438 1029.73 52.6562C1031.39 51.9375 1032.95 51.0625 1034.42 50.0312C1035.92 48.9688 1037.22 47.8438 1038.31 46.6562C1039.41 45.4688 1040.09 44.375 1040.38 43.375C1042.09 43.9688 1044.12 44.3906 1046.47 44.6406C1048.81 44.8906 1051.72 45.0156 1055.19 45.0156C1057.62 45.0156 1059.64 44.875 1061.23 44.5938C1062.83 44.3125 1064.12 43.9062 1065.12 43.375C1065.66 44.4688 1066.53 45.4531 1067.75 46.3281C1069 47.2031 1070.34 47.9531 1071.78 48.5781C1073.25 49.2031 1074.7 49.7031 1076.14 50.0781C1077.61 50.4219 1078.81 50.6094 1079.75 50.6406C1079.5 51.1719 1079.27 51.75 1079.05 52.375C1078.86 53 1078.69 53.7344 1078.53 54.5781C1078.41 55.4219 1078.3 56.4219 1078.2 57.5781C1078.14 58.7031 1078.11 60.0312 1078.11 61.5625C1078.11 62.625 1078.12 63.6562 1078.16 64.6562C1078.22 65.6562 1078.3 66.5781 1078.39 67.4219C1078.48 68.2656 1078.58 69.0156 1078.67 69.6719C1078.8 70.2969 1078.92 70.7656 1079.05 71.0781C1078.27 71.0156 1077.22 70.9688 1075.91 70.9375C1074.59 70.875 1073.16 70.8281 1071.59 70.7969C1070.03 70.7344 1068.39 70.7031 1066.67 70.7031C1064.98 70.6719 1063.38 70.6562 1061.84 70.6562C1060.03 70.6562 1058.22 70.6719 1056.41 70.7031C1054.62 70.7031 1052.78 70.7031 1050.88 70.7031C1049.28 70.7031 1048.02 70.8438 1047.08 71.125C1046.14 71.4062 1045.42 71.7969 1044.92 72.2969C1044.45 72.7656 1044.14 73.3438 1043.98 74.0312C1043.86 74.7188 1043.8 75.4688 1043.8 76.2812C1043.8 77.5 1044.09 78.6094 1044.69 79.6094C1045.28 80.6094 1046.09 81.4688 1047.12 82.1875C1048.16 82.875 1049.38 83.4219 1050.78 83.8281C1052.19 84.2031 1053.69 84.3906 1055.28 84.3906C1056.59 84.3906 1057.64 84.2031 1058.42 83.8281C1059.2 83.4219 1059.8 82.8906 1060.2 82.2344C1060.64 81.5781 1060.92 80.8125 1061.05 79.9375C1061.17 79.0625 1061.23 78.125 1061.23 77.125C1061.61 77.25 1062.17 77.3594 1062.92 77.4531C1063.67 77.5469 1064.48 77.625 1065.36 77.6875C1066.23 77.7188 1067.11 77.75 1067.98 77.7812C1068.89 77.8125 1069.67 77.8281 1070.33 77.8281C1070.98 77.8281 1071.73 77.8125 1072.58 77.7812C1073.42 77.75 1074.25 77.7188 1075.06 77.6875C1075.91 77.625 1076.69 77.5469 1077.41 77.4531C1078.12 77.3594 1078.7 77.25 1079.14 77.125C1079.08 77.4688 1079 77.9375 1078.91 78.5312C1078.84 79.0938 1078.78 79.7031 1078.72 80.3594C1078.69 81.0156 1078.66 81.6719 1078.62 82.3281C1078.59 82.9844 1078.58 83.5312 1078.58 83.9688C1078.58 85.5 1078.62 86.7344 1078.72 87.6719C1078.84 88.5781 1079.03 89.3906 1079.28 90.1094H1078.44C1077.16 90.1094 1075.84 90.2344 1074.5 90.4844C1073.16 90.7031 1071.86 91.0156 1070.61 91.4219C1069.36 91.7969 1068.19 92.25 1067.09 92.7812C1066 93.3125 1065.06 93.875 1064.28 94.4688C1063.84 94.1875 1063.23 93.9531 1062.45 93.7656C1061.7 93.5469 1060.86 93.375 1059.92 93.25C1059.02 93.0938 1058.05 92.9844 1057.02 92.9219C1056.02 92.8594 1055.05 92.8281 1054.11 92.8281C1052.98 92.8281 1051.81 92.875 1050.59 92.9688C1049.38 93.0625 1048.2 93.2031 1047.08 93.3906C1045.98 93.5469 1044.98 93.7188 1044.08 93.9062C1043.17 94.0938 1042.47 94.2812 1041.97 94.4688C1041.69 93.6562 1040.95 92.7656 1039.77 91.7969C1038.61 90.8281 1037.25 89.9375 1035.69 89.125C1034.12 88.2812 1032.47 87.5781 1030.72 87.0156C1028.97 86.4531 1027.38 86.1719 1025.94 86.1719C1025.78 86.1719 1025.64 86.1875 1025.52 86.2188C1025.39 86.2188 1025.27 86.2188 1025.14 86.2188ZM1056.31 62.2188C1057.56 62.2188 1058.55 62.1719 1059.27 62.0781C1060.02 61.9844 1060.58 61.7969 1060.95 61.5156C1061.36 61.2344 1061.61 60.8594 1061.7 60.3906C1061.83 59.8906 1061.89 59.2344 1061.89 58.4219C1061.89 56.9219 1061.25 55.7031 1059.97 54.7656C1058.69 53.8281 1056.69 53.3594 1053.97 53.3594C1052.28 53.3594 1050.83 53.5 1049.61 53.7812C1048.39 54.0625 1047.36 54.5469 1046.52 55.2344C1045.7 55.9219 1045.08 56.8281 1044.64 57.9531C1044.2 59.0781 1043.94 60.5 1043.84 62.2188H1056.31ZM1089.41 83.9219C1089.78 83.1094 1090.2 81.4531 1090.67 78.9531C1091.17 76.4531 1091.42 72.9844 1091.42 68.5469C1091.42 64.1406 1091.17 60.6875 1090.67 58.1875C1090.2 55.6875 1089.78 54.0312 1089.41 53.2188C1091.12 53.0938 1092.83 52.7188 1094.52 52.0938C1096.2 51.4688 1097.77 50.7031 1099.2 49.7969C1100.67 48.8594 1101.95 47.8438 1103.05 46.75C1104.14 45.625 1104.95 44.5 1105.48 43.375C1106.17 43.9062 1107.28 44.3125 1108.81 44.5938C1110.34 44.875 1112 45.0156 1113.78 45.0156C1114.81 45.0156 1115.83 44.9688 1116.83 44.875C1117.83 44.7812 1118.75 44.6562 1119.59 44.5C1120.44 44.3438 1121.19 44.1719 1121.84 43.9844C1122.5 43.7969 1123 43.5938 1123.34 43.375C1124.03 44.7812 1124.91 46 1125.97 47.0312C1127.06 48.0312 1128.36 48.8125 1129.86 49.375V37.2812C1129.83 35.9375 1129.56 34.875 1129.06 34.0938C1128.56 33.2812 1127.91 32.6719 1127.09 32.2656C1126.31 31.8281 1125.41 31.5469 1124.38 31.4219C1123.34 31.2656 1122.28 31.1875 1121.19 31.1875H1119.69C1119.94 30.5625 1120.16 29.7031 1120.34 28.6094C1120.53 27.4844 1120.62 26.3125 1120.62 25.0938C1120.62 23.9063 1120.53 22.7656 1120.34 21.6719C1120.19 20.5469 1119.97 19.6562 1119.69 19C1120.28 19.0938 1121.02 19.1719 1121.89 19.2344C1122.8 19.2969 1123.8 19.3594 1124.89 19.4219C1125.98 19.4531 1127.16 19.4844 1128.41 19.5156C1129.69 19.5469 1130.98 19.5625 1132.3 19.5625C1134.08 19.5625 1135.88 19.5312 1137.69 19.4688C1139.5 19.4063 1141.22 19.3125 1142.84 19.1875C1144.5 19.0625 1146 18.8906 1147.34 18.6719C1148.72 18.4531 1149.84 18.1719 1150.72 17.8281C1150.06 19.0469 1149.52 20.4062 1149.08 21.9062C1148.64 23.4062 1148.28 25 1148 26.6875C1147.75 28.375 1147.56 30.1406 1147.44 31.9844C1147.31 33.8281 1147.25 35.7031 1147.25 37.6094V46.9844C1147.25 48.9219 1147.3 50.6406 1147.39 52.1406C1147.48 53.6094 1147.66 54.8594 1147.91 55.8906C1148.16 56.9219 1148.5 57.75 1148.94 58.375C1149.38 59 1149.94 59.4219 1150.62 59.6406H1150.58C1150.02 59.7969 1149.52 60.1719 1149.08 60.7656C1148.64 61.3594 1148.28 62.0781 1148 62.9219C1147.72 63.7656 1147.5 64.7188 1147.34 65.7812C1147.22 66.8125 1147.16 67.8594 1147.16 68.9219V74.6406C1147.16 77.2031 1147.69 79.0469 1148.75 80.1719C1149.81 81.2656 1151.22 81.8125 1152.97 81.8125C1152.81 82.5 1152.69 83.375 1152.59 84.4375C1152.53 85.5 1152.5 86.6094 1152.5 87.7656C1152.5 88.9219 1152.53 90.0938 1152.59 91.2812C1152.66 92.4375 1152.78 93.3438 1152.97 94C1152.53 93.8438 1151.95 93.7031 1151.23 93.5781C1150.52 93.4219 1149.73 93.2969 1148.89 93.2031C1148.08 93.0781 1147.23 92.9844 1146.36 92.9219C1145.52 92.8594 1144.72 92.8281 1143.97 92.8281C1142.19 92.8281 1140.62 92.9531 1139.28 93.2031C1137.97 93.4531 1136.81 93.7188 1135.81 94C1135.72 92.75 1135.33 91.4375 1134.64 90.0625C1133.98 88.6875 1133.14 87.4531 1132.11 86.3594C1131.36 86.8594 1130.64 87.4531 1129.95 88.1406C1129.3 88.8281 1128.7 89.5469 1128.17 90.2969C1127.67 91.0156 1127.23 91.75 1126.86 92.5C1126.52 93.2188 1126.28 93.875 1126.16 94.4688C1125.22 94.0312 1123.83 93.6562 1121.98 93.3438C1120.17 93 1118.09 92.8281 1115.75 92.8281C1113.47 92.8281 1111.41 93 1109.56 93.3438C1107.72 93.6562 1106.36 94.0312 1105.48 94.4688C1104.95 93.375 1104.14 92.2344 1103.05 91.0469C1101.95 89.8594 1100.69 88.7656 1099.25 87.7656C1097.81 86.7344 1096.23 85.875 1094.52 85.1875C1092.83 84.4688 1091.12 84.0469 1089.41 83.9219ZM1110.92 68.5938C1110.92 71 1111.08 73.0625 1111.39 74.7812C1111.73 76.5 1112.28 77.9219 1113.03 79.0469C1113.78 80.1406 1114.75 80.9531 1115.94 81.4844C1117.12 82.0156 1118.58 82.2812 1120.3 82.2812C1122.11 82.2812 1123.59 81.9375 1124.75 81.25C1125.91 80.5625 1126.81 79.6094 1127.47 78.3906C1128.12 77.1719 1128.58 75.7344 1128.83 74.0781C1129.08 72.3906 1129.2 70.5625 1129.2 68.5938C1129.2 66.625 1129.08 64.8281 1128.83 63.2031C1128.58 61.5469 1128.12 60.125 1127.47 58.9375C1126.81 57.7188 1125.91 56.7812 1124.75 56.125C1123.59 55.4375 1122.11 55.0938 1120.3 55.0938C1118.58 55.0938 1117.12 55.3438 1115.94 55.8438C1114.75 56.3438 1113.78 57.1406 1113.03 58.2344C1112.28 59.3281 1111.73 60.7344 1111.39 62.4531C1111.08 64.1406 1110.92 66.1875 1110.92 68.5938Z" fill="#C6B8B8"/>
</g>
<defs>
<filter id="filter0_f_20_2" x="0" y="104" width="1417" height="195" filterUnits="userSpaceOnUse" color-interpolation-filters="sRGB">
<feFlood flood-opacity="0" result="BackgroundImageFix"/>
<feBlend mode="normal" in="SourceGraphic" in2="BackgroundImageFix" result="shape"/>
<feGaussianBlur stdDeviation="12.5" result="effect1_foregroundBlur_20_2"/>
</filter>
<filter id="filter1_i_20_2" x="249.688" y="17.8281" width="903.281" height="105.953" filterUnits="userSpaceOnUse" color-interpolation-filters="sRGB">
<feFlood flood-opacity="0" result="BackgroundImageFix"/>
<feBlend mode="normal" in="SourceGraphic" in2="BackgroundImageFix" result="shape"/>
<feColorMatrix in="SourceAlpha" type="matrix" values="0 0 0 0 0 0 0 0 0 0 0 0 0 0 0 0 0 0 127 0" result="hardAlpha"/>
<feOffset dy="4"/>
<feGaussianBlur stdDeviation="2"/>
<feComposite in2="hardAlpha" operator="arithmetic" k2="-1" k3="1"/>
<feColorMatrix type="matrix" values="0 0 0 0 0 0 0 0 0 0 0 0 0 0 0 0 0 0 0.25 0"/>
<feBlend mode="normal" in2="shape" result="effect1_innerShadow_20_2"/>
</filter>
<radialGradient id="paint0_radial_20_2" cx="0" cy="0" r="1" gradientUnits="userSpaceOnUse" gradientTransform="translate(708.5 201.5) scale(683.5 72.5)">
<stop offset="0.15"/>
<stop offset="0.491667" stop-color="#100303"/>
<stop offset="1" stop-color="#450C0C"/>
</radialGradient>
</defs>
</svg>
